<svg width="182" height="182" viewBox="0 0 182 182" fill="none" xmlns="http://www.w3.org/2000/svg">
<circle cx="90.5118" cy="90.5119" r="73.5" transform="rotate(-14.2135 90.5118 90.5119)" fill="#B0C7CE" stroke="white" stroke-width="2"/>
<path d="M43.4382 89.5406L40.6489 78.5284L45.3175 77.3459C45.8241 77.2176 46.3169 77.2083 46.7959 77.318C47.2825 77.4148 47.7255 77.5997 48.1248 77.8727C48.5214 78.1354 48.8639 78.4668 49.1523 78.8669C49.4381 79.2566 49.6373 79.6738 49.7499 80.1184C49.8678 80.5837 49.9003 81.0597 49.8475 81.5462C49.792 82.0224 49.6576 82.4691 49.4441 82.8862C49.2307 83.3034 48.9382 83.6691 48.5666 83.9833C48.1951 84.2975 47.756 84.5187 47.2493 84.6471L44.6436 85.3071L45.5786 88.9985L43.4382 89.5406ZM44.1682 83.4303L46.6499 82.8018C47.0428 82.7022 47.3279 82.4595 47.5052 82.0734C47.6929 81.6848 47.7173 81.2165 47.5785 80.6684C47.5078 80.3893 47.4036 80.1516 47.2658 79.9554C47.1255 79.7489 46.9685 79.5851 46.7948 79.464C46.621 79.343 46.432 79.2698 46.2275 79.2446C46.0308 79.2064 45.8393 79.2108 45.6532 79.258L43.2647 79.863L44.1682 83.4303ZM53.1018 87.0929L50.3125 76.0807L55.1827 74.8471C55.6893 74.7188 56.1821 74.7095 56.6611 74.8193C57.1478 74.9161 57.5907 75.101 57.99 75.374C58.3866 75.6366 58.7291 75.968 59.0175 76.3681C59.3033 76.7579 59.5025 77.1751 59.6151 77.6197C59.7958 78.3331 59.7799 79.0304 59.5673 79.7115C59.3624 80.3796 58.9876 80.9201 58.443 81.3332L62.0046 84.8379L59.6005 85.4469L56.4166 82.3251L54.3072 82.8594L55.2422 86.5508L53.1018 87.0929ZM53.8318 80.9826L56.5151 80.303C56.7115 80.2532 56.8807 80.1609 57.0226 80.0259C57.1748 79.8883 57.2933 79.7263 57.3781 79.5397C57.4603 79.3429 57.51 79.1267 57.5274 78.8912C57.5448 78.6557 57.5221 78.4139 57.4592 78.1658C57.3937 77.9073 57.2921 77.6799 57.1544 77.4837C57.0167 77.2875 56.8558 77.1302 56.6718 77.0118C56.4954 76.8804 56.3037 76.7969 56.0967 76.7613C55.8973 76.7128 55.7046 76.7121 55.5184 76.7592L52.9282 77.4153L53.8318 80.9826ZM68.1359 83.3675C67.3294 83.5718 66.5559 83.6026 65.8156 83.46C65.083 83.3045 64.4134 83.0285 63.8068 82.6319C63.2079 82.2224 62.6941 81.7144 62.2653 81.1077C61.8366 80.5011 61.5332 79.8462 61.3551 79.1431C61.1691 78.4089 61.1254 77.6718 61.224 76.9316C61.333 76.1887 61.5598 75.4986 61.9045 74.8611C62.2595 74.221 62.73 73.6672 63.3158 73.1997C63.899 72.7219 64.5783 72.3848 65.3538 72.1884C66.15 71.9867 66.9157 71.9688 67.651 72.1347C68.3939 72.2876 69.0649 72.5688 69.6637 72.9783C70.2626 73.3878 70.7764 73.8958 71.2052 74.5025C71.6339 75.1091 71.936 75.7588 72.1115 76.4516C72.2974 77.1858 72.3411 77.9229 72.2425 78.6631C72.1413 79.393 71.9183 80.0767 71.5736 80.7142C71.2263 81.3413 70.7611 81.8938 70.1779 82.3716C69.5921 82.8391 68.9114 83.171 68.1359 83.3675ZM63.5265 78.5931C63.647 79.0687 63.8359 79.5105 64.0933 79.9185C64.3507 80.3265 64.657 80.667 65.0123 80.9401C65.3779 81.2106 65.7833 81.3995 66.2286 81.5068C66.6843 81.6115 67.1654 81.5996 67.6721 81.4713C68.1891 81.3404 68.6179 81.1217 68.9584 80.8154C69.3067 80.4961 69.5707 80.1266 69.7505 79.707C69.9407 79.2847 70.0479 78.8394 70.0724 78.371C70.1045 77.8898 70.063 77.4216 69.9477 76.9667C69.8272 76.491 69.6331 76.0505 69.3654 75.6452C69.108 75.2372 68.7965 74.898 68.4309 74.6275C68.0757 74.3544 67.6715 74.1706 67.2185 74.0763C66.7732 73.969 66.3024 73.9782 65.806 74.104C65.289 74.2349 64.8564 74.46 64.5081 74.7793C64.1572 75.0883 63.8919 75.4526 63.7121 75.8722C63.5297 76.2815 63.4224 76.7269 63.3903 77.2081C63.3658 77.6765 63.4113 78.1381 63.5265 78.5931ZM75.0508 66.4311L76.6167 67.0744L77.6876 65.7633L78.8835 65.9885L77.6362 67.9715L76.1317 68.3526L74.0908 67.2025L75.0508 66.4311ZM73.059 76.0961C72.8887 75.424 72.84 74.7321 72.9128 74.0204C72.9934 73.2958 73.2008 72.6161 73.5352 71.9812C73.8695 71.3463 74.3322 70.7835 74.9231 70.2927C75.514 69.8019 76.2386 69.4479 77.0968 69.2305C78.1101 68.9738 79.0402 68.9748 79.887 69.2335C80.7441 69.4895 81.4439 69.9285 81.9865 70.5503L80.6293 72.0989C80.4059 71.8254 80.1647 71.6114 79.9055 71.457C79.6437 71.2922 79.3781 71.1779 79.1089 71.1141C78.8396 71.0503 78.5692 71.0252 78.2976 71.039C78.0234 71.0424 77.7622 71.0756 77.514 71.1384C76.9764 71.2746 76.5334 71.5024 76.1851 71.8216C75.8472 72.1383 75.5883 72.5065 75.4085 72.9261C75.2365 73.3328 75.1395 73.7755 75.1177 74.2542C75.0933 74.7225 75.1361 75.1738 75.2461 75.6081C75.3692 76.0941 75.5659 76.5449 75.8362 76.9606C76.104 77.366 76.4206 77.7039 76.7862 77.9744C77.1622 78.2423 77.5728 78.4299 78.0181 78.5372C78.4738 78.6418 78.9394 78.6339 79.4151 78.5134C79.6632 78.4506 79.9139 78.3541 80.167 78.2239C80.4201 78.0938 80.6486 77.9314 80.8524 77.7367C81.0665 77.5395 81.2508 77.3112 81.4052 77.0521C81.557 76.7825 81.6569 76.4821 81.7051 76.1508L83.7131 76.7151C83.6421 77.1732 83.4817 77.6044 83.232 78.0088C82.99 78.4002 82.6898 78.7568 82.3311 79.0787C81.9829 79.398 81.5905 79.6735 81.154 79.9051C80.7175 80.1367 80.2769 80.3088 79.8323 80.4214C79.0465 80.6204 78.2859 80.637 77.5507 80.4711C76.8155 80.3053 76.1432 80.0189 75.534 79.612C74.9325 79.1922 74.4122 78.6803 73.9731 78.0762C73.5418 77.4593 73.237 76.7992 73.059 76.0961ZM85.7731 78.8176L82.9839 67.8054L85.1243 67.2632L87.9136 78.2755L85.7731 78.8176ZM96.1331 66.4719L92.6123 67.3637L94.9262 76.4992L92.8013 77.0374L90.4874 67.9019L86.9666 68.7937L86.4912 66.917L95.6577 64.5952L96.1331 66.4719ZM99.0673 63.7316L100.96 63.2523L107.937 73.2038L105.734 73.7617L104.015 71.2757L100.169 72.2499L99.8558 75.2506L97.6534 75.8085L99.0673 63.7316ZM103.246 69.8694L100.63 65.927L100.144 70.6551L103.246 69.8694ZM108.016 70.7903C108.187 70.8571 108.459 70.9093 108.832 70.9469C109.205 70.9846 109.613 70.9471 110.058 70.8345C110.492 70.7245 110.82 70.5643 111.042 70.3541C111.261 70.1335 111.399 69.8511 111.455 69.5069C111.51 69.1626 111.501 68.7578 111.428 68.2923C111.351 67.8165 111.234 67.2684 111.077 66.648L109.659 61.0488L111.799 60.5067L113.217 66.1059C113.43 66.9434 113.577 67.7204 113.659 68.4367C113.749 69.1402 113.711 69.7715 113.545 70.3308C113.389 70.8875 113.076 71.3684 112.606 71.7734C112.137 72.1785 111.447 72.4962 110.537 72.7267C109.606 72.9624 108.753 72.9366 107.976 72.6493L108.016 70.7903ZM122.685 59.7465L119.164 60.6383L121.478 69.7738L119.353 70.312L117.04 61.1765L113.519 62.0683L113.043 60.1916L122.21 57.8698L122.685 59.7465ZM133.537 64.7222L134.013 66.599L126.366 68.5358L123.577 57.5235L131.084 55.6221L131.559 57.4988L126.193 58.8581L126.865 61.5104L131.502 60.3357L131.942 62.0729L127.305 63.2475L128.031 66.1169L133.537 64.7222ZM57.5806 107.754C58.0873 107.625 58.485 107.415 58.7739 107.121C59.073 106.826 59.2841 106.486 59.4071 106.103C59.5405 105.717 59.5948 105.301 59.5701 104.857C59.5532 104.399 59.4871 103.942 59.3719 103.487L57.9497 97.8726L60.0746 97.3344L61.4968 102.949C61.688 103.704 61.7743 104.436 61.7558 105.145C61.7476 105.851 61.6099 106.502 61.3427 107.098C61.0859 107.691 60.6891 108.21 60.1523 108.654C59.6156 109.098 58.9233 109.427 58.0754 109.642C57.1965 109.865 56.4088 109.905 55.7125 109.762C55.0238 109.606 54.4254 109.329 53.9171 108.929C53.4062 108.519 52.979 108.006 52.6356 107.389C52.3025 106.769 52.0456 106.102 51.8649 105.389L50.4428 99.774L52.5832 99.2319L54.0053 104.847C54.1232 105.312 54.2785 105.751 54.4712 106.165C54.6716 106.565 54.9172 106.904 55.2078 107.183C55.5087 107.459 55.856 107.657 56.2496 107.777C56.6406 107.887 57.0843 107.879 57.5806 107.754ZM65.0198 107.801L62.2305 96.7883L64.3709 96.2462L66.6849 105.382L72.2996 103.96L72.7749 105.836L65.0198 107.801ZM78.1 104.57C77.2935 104.774 76.5201 104.805 75.7797 104.663C75.0471 104.507 74.3775 104.231 73.7709 103.834C73.172 103.425 72.6582 102.917 72.2295 102.31C71.8007 101.704 71.4973 101.049 71.3192 100.346C71.1333 99.6115 71.0896 98.8743 71.1882 98.1341C71.2971 97.3912 71.5239 96.7011 71.8686 96.0636C72.2237 95.4235 72.6941 94.8697 73.2799 94.4022C73.8631 93.9244 74.5425 93.5873 75.318 93.3909C76.1142 93.1892 76.8799 93.1713 77.6151 93.3372C78.3581 93.4901 79.029 93.7713 79.6279 94.1808C80.2268 94.5903 80.7406 95.0984 81.1693 95.705C81.598 96.3116 81.9002 96.9613 82.0756 97.6541C82.2616 98.3883 82.3053 99.1254 82.2067 99.8656C82.1054 100.596 81.8825 101.279 81.5378 101.917C81.1905 102.544 80.7252 103.096 80.142 103.574C79.5562 104.042 78.8755 104.374 78.1 104.57ZM73.4906 99.7956C73.6111 100.271 73.8 100.713 74.0574 101.121C74.3148 101.529 74.6211 101.87 74.9764 102.143C75.342 102.413 75.7475 102.602 76.1928 102.709C76.6484 102.814 77.1296 102.802 77.6362 102.674C78.1533 102.543 78.582 102.324 78.9226 102.018C79.2708 101.699 79.5349 101.329 79.7147 100.909C79.9048 100.487 80.0121 100.042 80.0365 99.5736C80.0686 99.0923 80.0271 98.6241 79.9119 98.1692C79.7914 97.6935 79.5973 97.253 79.3296 96.8477C79.0722 96.4397 78.7607 96.1005 78.3951 95.83C78.0398 95.5569 77.6356 95.3731 77.1826 95.2788C76.7373 95.1715 76.2665 95.1808 75.7702 95.3065C75.2532 95.4374 74.8205 95.6625 74.4723 95.9818C74.1214 96.2908 73.856 96.6551 73.6762 97.0747C73.4938 97.4841 73.3866 97.9294 73.3544 98.4107C73.33 98.879 73.3754 99.3406 73.4906 99.7956ZM94.0847 100.439L92.2383 93.1489L90.7749 99.2964L89.6117 99.591L85.3983 94.8814L87.2447 102.171L85.1043 102.713L82.315 91.7011L84.6105 91.1197L89.4548 96.5608L91.1558 89.4618L93.4358 88.8843L96.2251 99.8965L94.0847 100.439ZM98.868 87.5084L100.76 87.0291L107.737 96.9806L105.535 97.5385L103.816 95.0525L99.9693 96.0267L99.6565 99.0274L97.4541 99.5853L98.868 87.5084ZM103.047 93.6462L100.431 89.7038L99.945 94.4319L103.047 93.6462ZM108.945 96.6747L106.16 85.6779L108.3 85.1358L109.624 90.3627L112.918 83.9496L115.276 83.3524L112.295 89.3067L118.329 94.2979L115.925 94.9068L111.291 91.0134L110.253 92.8444L111.086 96.1325L108.945 96.6747ZM122.865 93.1489L120.076 82.1367L122.216 81.5945L125.005 92.6068L122.865 93.1489ZM126.212 90.5846L130.526 81.4868L124.477 83.019L124.002 81.1422L132.517 78.9854L132.926 80.5985L128.813 89.6452L134.877 88.1092L135.353 89.9859L126.621 92.1977L126.212 90.5846ZM73.4466 129.392L70.6612 118.396L72.8016 117.854L74.1256 123.081L77.4197 116.667L79.7773 116.07L76.796 122.024L82.8302 127.016L80.4262 127.625L75.7923 123.731L74.7541 125.562L75.587 128.85L73.4466 129.392ZM84.175 119.165L85.9625 126.222L83.8221 126.764L81.0328 115.752L82.6924 115.332L90.2618 121.106L88.4351 113.894L90.5755 113.352L93.3608 124.348L91.6237 124.788L84.175 119.165ZM94.5236 121.661C94.6945 121.727 94.9664 121.78 95.339 121.817C95.7117 121.855 96.1203 121.817 96.5649 121.705C96.9992 121.595 97.3273 121.435 97.5491 121.224C97.7683 121.004 97.9059 120.721 97.9617 120.377C98.0176 120.033 98.0085 119.628 97.9347 119.163C97.8582 118.687 97.7413 118.139 97.5842 117.518L96.166 111.919L98.3064 111.377L99.7246 116.976C99.9368 117.814 100.084 118.591 100.166 119.307C100.257 120.01 100.218 120.642 100.052 121.201C99.8959 121.758 99.5831 122.239 99.1135 122.644C98.6439 123.049 97.9541 123.366 97.0442 123.597C96.1136 123.833 95.2598 123.807 94.4828 123.52L94.5236 121.661ZM103.27 121.838L100.481 110.826L102.622 110.284L105.411 121.296L103.27 121.838ZM115.041 117.537C114.384 118.638 113.472 119.337 112.304 119.633C111.58 119.816 110.861 119.844 110.146 119.717C109.442 119.587 108.788 119.329 108.184 118.943C107.59 118.554 107.068 118.054 106.616 117.442C106.171 116.818 105.848 116.107 105.647 115.311C105.455 114.556 105.41 113.814 105.512 113.084C105.621 112.341 105.85 111.661 106.2 111.045C106.558 110.415 107.025 109.873 107.604 109.418C108.179 108.953 108.849 108.624 109.615 108.43C110.649 108.168 111.588 108.162 112.432 108.41C113.286 108.656 113.993 109.098 114.551 109.738L113.252 111.322C112.834 110.844 112.335 110.525 111.755 110.364C111.185 110.2 110.606 110.193 110.016 110.342C109.551 110.46 109.147 110.667 108.804 110.963C108.471 111.256 108.208 111.609 108.015 112.021C107.833 112.43 107.72 112.877 107.678 113.361C107.646 113.842 107.692 114.331 107.818 114.827C107.949 115.344 108.155 115.809 108.436 116.222C108.714 116.625 109.039 116.955 109.413 117.213C109.786 117.47 110.194 117.647 110.637 117.744C111.087 117.828 111.545 117.811 112.01 117.694C113.075 117.424 113.91 116.679 114.514 115.458L114.318 114.683L112.1 115.245L111.703 113.678L115.689 112.668L117.123 118.33L115.355 118.777L115.041 117.537ZM126.118 114.054L126.594 115.931L118.947 117.868L116.158 106.855L123.665 104.954L124.14 106.831L118.774 108.19L119.445 110.842L124.083 109.668L124.523 111.405L119.885 112.579L120.612 115.449L126.118 114.054Z" fill="#F5F5F5"/>
</svg>
