<svg id="Layer_1" data-name="Layer 1" xmlns="http://www.w3.org/2000/svg" viewBox="0 0 52.89 52.89"><defs><style>.cls-1{fill:#8e6240;}.cls-2{fill:#fff;}</style></defs><title>camera1</title><circle class="cls-1" cx="26.45" cy="26.45" r="26.45"/><path class="cls-2" d="M44.5,17.16A3.74,3.74,0,0,0,41.77,16H36.32v-.07a2.93,2.93,0,0,0-.89-2.13,3,3,0,0,0-2.14-.89H23.43a3,3,0,0,0-3.05,3V16H15a3.72,3.72,0,0,0-2.73,1.15,3.92,3.92,0,0,0-1.15,2.73V36.25A3.72,3.72,0,0,0,12.23,39,3.9,3.9,0,0,0,15,40.13H41.77A3.74,3.74,0,0,0,44.5,39a3.92,3.92,0,0,0,1.15-2.73V19.89A3.72,3.72,0,0,0,44.5,17.16Zm-.56,19.09h0a2.15,2.15,0,0,1-2.14,2.14H15a2.13,2.13,0,0,1-2.14-2.14V19.89A2.13,2.13,0,0,1,15,17.75H21.3a.89.89,0,0,0,.89-.89v-.95a1.23,1.23,0,0,1,1.28-1.28h9.82a1.23,1.23,0,0,1,1.28,1.28v.95a.89.89,0,0,0,.89.89H41.8a2.15,2.15,0,0,1,2.14,2.14Z" transform="translate(-1.73 -0.89)"/><path class="cls-2" d="M28.36,20a8.08,8.08,0,0,0-5.71,13.8,8,8,0,0,0,5.71,2.36,8.12,8.12,0,0,0,5.72-2.36,8.09,8.09,0,0,0,0-11.44A8.12,8.12,0,0,0,28.36,20Zm4.47,12.58a6.35,6.35,0,0,1-8.94,0,6.29,6.29,0,0,1-1.84-4.47,6.46,6.46,0,0,1,1.84-4.47,6.29,6.29,0,0,1,4.47-1.84,6.46,6.46,0,0,1,4.47,1.84,6.29,6.29,0,0,1,1.84,4.47A6.13,6.13,0,0,1,32.83,32.57Z" transform="translate(-1.73 -0.89)"/><circle class="cls-2" cx="38.33" cy="20.67" r="1.61"/></svg>