<svg width="24" height="22" viewBox="0 0 24 22" fill="none" xmlns="http://www.w3.org/2000/svg">
<path d="M19.9375 17.875H4.8125C4.60625 17.875 4.4 17.7375 4.2625 17.6C4.125 17.4625 4.125 17.1875 4.19375 16.9813L5.5 13.6812L4.19375 1.375H0V0H4.8125C5.15625 0 5.43125 0.275 5.5 0.61875L6.875 13.6812C6.875 13.8187 6.875 13.8875 6.80625 14.025L5.84375 16.5H20.625L19.9375 17.875Z" fill="#F5F5F5"/>
<path d="M6.325 14.4375L6.05 13.0625L22 9.7625V4.125H5.5V2.75H22.6875C23.1 2.75 23.375 3.025 23.375 3.4375V10.3125C23.375 10.6562 23.1688 10.9312 22.825 11L6.325 14.4375Z" fill="#F5F5F5"/>
<path d="M20.625 22C19.1125 22 17.875 20.7625 17.875 19.25C17.875 17.7375 19.1125 16.5 20.625 16.5C22.1375 16.5 23.375 17.7375 23.375 19.25C23.375 20.7625 22.1375 22 20.625 22ZM20.625 17.875C19.8687 17.875 19.25 18.4937 19.25 19.25C19.25 20.0062 19.8687 20.625 20.625 20.625C21.3812 20.625 22 20.0062 22 19.25C22 18.4937 21.3812 17.875 20.625 17.875Z" fill="#F5F5F5"/>
<path d="M4.125 22C2.6125 22 1.375 20.7625 1.375 19.25C1.375 17.7375 2.6125 16.5 4.125 16.5C5.6375 16.5 6.875 17.7375 6.875 19.25C6.875 20.7625 5.6375 22 4.125 22ZM4.125 17.875C3.36875 17.875 2.75 18.4937 2.75 19.25C2.75 20.0062 3.36875 20.625 4.125 20.625C4.88125 20.625 5.5 20.0062 5.5 19.25C5.5 18.4937 4.88125 17.875 4.125 17.875Z" fill="#F5F5F5"/>
</svg>
