<svg width="20" height="18" viewBox="0 0 20 18" fill="none" xmlns="http://www.w3.org/2000/svg">
<path d="M16.5932 14.2449H4.46458C4.29919 14.2449 4.1338 14.1408 4.02353 14.0367C3.91327 13.9327 3.91328 13.7245 3.96841 13.5684L5.01588 11.0704L3.96841 1.75511H0.605469V0.714294H4.46458C4.74023 0.714294 4.96075 0.922458 5.01588 1.18266L6.11848 11.0704C6.11848 11.1745 6.11848 11.2265 6.06335 11.3306L5.29153 13.2041H17.1445L16.5932 14.2449Z" fill="#292929"/>
<path d="M5.67523 11.6429L5.45471 10.6021L18.2449 8.10409V3.83675H5.01367V2.79593H18.7962C19.127 2.79593 19.3475 3.00409 19.3475 3.31634V8.52042C19.3475 8.78062 19.1821 8.98879 18.9065 9.04083L5.67523 11.6429Z" fill="#292929"/>
<path d="M17.1427 17.3673C15.9298 17.3673 14.9375 16.4306 14.9375 15.2857C14.9375 14.1408 15.9298 13.2041 17.1427 13.2041C18.3556 13.2041 19.3479 14.1408 19.3479 15.2857C19.3479 16.4306 18.3556 17.3673 17.1427 17.3673ZM17.1427 14.2449C16.5363 14.2449 16.0401 14.7133 16.0401 15.2857C16.0401 15.8582 16.5363 16.3265 17.1427 16.3265C17.7491 16.3265 18.2453 15.8582 18.2453 15.2857C18.2453 14.7133 17.7491 14.2449 17.1427 14.2449Z" fill="#292929"/>
<path d="M3.91419 17.3673C2.70133 17.3673 1.70898 16.4306 1.70898 15.2857C1.70898 14.1408 2.70133 13.2041 3.91419 13.2041C5.12705 13.2041 6.11939 14.1408 6.11939 15.2857C6.11939 16.4306 5.12705 17.3673 3.91419 17.3673ZM3.91419 14.2449C3.30776 14.2449 2.81159 14.7133 2.81159 15.2857C2.81159 15.8582 3.30776 16.3265 3.91419 16.3265C4.52062 16.3265 5.01679 15.8582 5.01679 15.2857C5.01679 14.7133 4.52062 14.2449 3.91419 14.2449Z" fill="#292929"/>
</svg>
