<svg width="233" height="91" viewBox="0 0 233 91" fill="none" xmlns="http://www.w3.org/2000/svg">
<path d="M84.5066 42.9404C89.977 42.6872 95.1383 42.0744 100.176 39.9874C107.324 37.0269 114.681 34.4401 122.227 32.3857C122.737 32.2465 123.381 31.942 123.745 32.5455C124.121 33.1677 123.428 33.4732 123.063 33.8216C119.109 37.5939 114.035 40.1677 110.102 43.9577C108.527 45.4758 107.044 47.0752 105.526 48.6418C105.445 48.7259 105.418 48.8548 105.366 48.9632C105.503 49.008 105.636 49.08 105.777 49.094C106.264 49.1426 106.753 49.1734 107.241 49.207C107.533 49.2276 107.825 49.2397 108.117 49.2556C107.973 49.0575 107.82 48.8651 107.695 48.6577C107.671 48.6175 107.737 48.4858 107.796 48.4559C114.874 44.991 121.932 41.4868 129.652 39.3082C134.132 38.0442 138.558 36.5131 143.348 36.6242C144.835 36.6588 146.188 36.9372 147.475 37.9545C148.578 38.8271 150.039 37.749 151.315 37.4501C157.614 35.9712 163.837 34.2186 170.246 33.149C171.423 32.9528 172.608 32.7417 173.799 32.6763C174.361 32.6454 175.328 32.3689 175.446 33.1593C175.564 33.9468 174.651 34.3457 174.002 34.6857C170.238 36.6588 166.52 38.7234 162.64 40.4881C159.395 41.9651 156.291 43.8204 152.706 44.5631C149.865 45.1526 148.463 43.4673 147.748 41.2971C147.265 39.8295 146.599 39.4408 144.953 39.9519C141.903 40.8973 138.766 41.6045 135.682 42.4611C130.751 43.8297 125.845 45.2684 120.909 46.6211C115.395 48.1317 109.919 49.8189 104.317 50.9895C98.1837 52.2712 92.9438 55.0981 87.6295 57.9287C83.3099 60.2297 78.8658 62.3345 74.4778 64.527C67.9208 67.8052 61.3781 71.1085 54.7997 74.3502C50.1995 76.6166 45.5208 78.7494 40.9318 81.0335C37.0999 82.9411 33.424 85.1225 29.5339 86.918C26.56 88.2913 23.634 89.8673 20.3131 90.51C18.4767 90.866 16.5108 90.7716 15.4661 89.2386C14.4265 87.713 15.8691 86.322 16.7424 85.1047C20.4315 79.9601 25.1857 75.6627 30.0155 71.4345C31.0408 70.5368 32.0794 69.6502 33.1057 68.7534C33.1669 68.7001 33.1782 68.6002 33.2128 68.5226C33.0006 68.5189 32.7752 68.4703 32.5772 68.5179C28.7453 69.44 24.9062 70.3406 21.0895 71.314C16.5444 72.4734 12.0228 73.7075 7.48384 74.8873C5.38932 75.432 3.2795 75.9243 1.17478 76.4381C0.786079 76.5334 0.402476 76.5437 0.249442 76.114C0.108652 75.7207 0.436143 75.5581 0.747311 75.4133C5.22609 73.3272 9.67222 71.1795 14.1928 69.1728C18.8542 67.1036 23.5779 65.1511 28.2933 63.1874C32.1916 61.5647 36.1195 60.0008 40.033 58.408C40.08 58.3893 40.1044 58.3248 40.1402 58.2819C40.0351 58.2445 39.9208 58.2211 39.8259 58.1679C39.4097 57.9372 38.6486 58.2165 38.5506 57.5551C38.4466 56.86 39.1658 56.7507 39.6474 56.4966C45.4361 53.4306 51.8176 51.5621 57.8155 48.9361C60.0365 47.9636 61.8025 46.1456 63.8522 44.8116C67.3587 42.5312 70.8856 40.2723 74.4778 38.1068C79.2096 35.2547 83.9608 32.424 88.7997 29.7289C93.7518 26.9711 98.7917 24.3422 103.848 21.7461C107.443 19.9001 111.148 18.2307 114.767 16.423C116.306 15.6551 117.743 14.7171 119.254 13.8988C119.66 13.6783 120.2 13.3784 120.612 13.9184C121.058 14.5032 120.412 14.7022 120.066 14.9058C118.031 16.1063 115.821 16.963 113.576 17.7935C111.662 18.5016 109.904 19.5591 108.073 20.455C105.919 21.5079 103.727 22.4991 101.613 23.6164C99.0937 24.9476 96.6462 26.3928 94.1569 27.7736C91.893 29.0282 89.5954 30.2315 87.3499 31.5123C83.8077 33.532 80.2645 35.5536 76.7825 37.6575C73.2188 39.8108 69.7093 42.0407 66.216 44.2894C64.7224 45.2507 63.3288 46.3399 61.8974 47.3797C61.8076 47.4442 61.7842 47.5843 61.7291 47.6899C61.8944 47.6824 62.0719 47.7076 62.2229 47.6618C68.6666 45.7075 75.348 44.4398 81.6489 42.0781C85.2085 40.7441 88.8742 39.6538 92.4837 38.4702C95.2465 37.564 98.1612 36.8774 100.98 36.0254C106.047 34.4952 111.065 32.8351 116.117 31.2647C121.173 29.6924 126.244 28.1603 131.31 26.6152C136.054 25.1681 140.787 23.6911 145.549 22.2935C153.683 19.9057 161.835 17.5665 169.981 15.2123C178.241 12.8244 186.593 10.7374 194.933 8.60184C205.96 5.77961 217.103 3.4114 228.21 0.897458C229.126 0.690065 229.994 0.307041 230.899 0.0501348C231.384 -0.0871932 231.911 0.0548058 232.032 0.510697C232.156 0.985273 231.619 1.14596 231.217 1.24124C225.145 2.67618 219.071 4.10084 212.997 5.52364C206.558 7.03144 200.109 8.50281 193.683 10.0508C188.851 11.2148 184.019 12.3919 179.237 13.7138C172.465 15.5859 165.739 17.5982 158.992 19.5488C153.583 21.1127 148.158 22.6326 142.766 24.246C135.865 26.3115 128.985 28.4387 122.105 30.5631C114.725 32.8426 107.36 35.1659 99.9772 37.4388C94.7608 39.0466 89.6475 40.8879 84.5066 42.9404ZM62.5228 61.3264C61.6903 61.4965 61.4924 61.5301 61.2975 61.5768C54.4926 63.2266 47.6776 64.84 40.8921 66.5533C38.9689 67.0391 36.7244 67.0372 35.2268 68.3134C31.1183 71.8157 27.116 75.4283 23.2106 79.1212C20.7192 81.4772 18.5022 84.0752 16.8423 87.0133C16.5424 87.5439 15.7364 88.2521 16.4363 88.7593C17.6544 89.6422 18.8808 90.1205 20.7376 89.5123C24.0818 88.4174 27.2282 86.9741 30.3205 85.4728C35.0248 83.1887 39.5474 80.5972 44.2782 78.3364C52.4145 74.4473 60.4946 70.4564 68.5564 66.4384C76.3091 62.5745 84.0107 58.6229 91.7298 54.702C91.8236 54.6544 91.8522 54.4983 91.9114 54.3928C91.7869 54.3479 91.5716 54.2414 91.5502 54.2676C91.0227 54.9169 90.1555 54.7805 89.4689 54.943C81.9703 56.7161 74.4482 58.4071 66.9404 60.1484C65.2417 60.5417 63.5757 61.0434 62.5228 61.3264ZM88.5671 43.5327C85.2064 43.9204 81.2276 43.7055 78.5158 46.85C78.1567 47.2667 77.8496 47.7198 77.5191 48.157C77.9588 48.2233 78.4169 48.241 78.8301 48.3746C79.0984 48.4615 79.3004 48.7175 79.532 48.8987C79.1657 49.0361 78.8076 49.2649 78.4322 49.2902C77.6354 49.3434 76.7192 49.4994 76.2101 48.7465C76.0438 48.5008 76.1448 47.9356 76.357 47.6768C76.9743 46.9248 77.7129 46.2568 78.3975 45.5505C78.5434 45.4001 78.6607 45.2264 78.7913 45.0638C78.5699 45.0535 78.321 44.9769 78.1322 45.0442C73.0944 46.8463 68.0463 48.6241 63.037 50.4906C59.4795 51.8162 55.9607 53.2306 52.4573 54.673C50.3097 55.5577 48.8518 57.3066 46.9981 58.5509C43.9201 60.6174 41.3746 63.1949 38.5619 65.5117C38.3813 65.6602 38.3058 65.9171 38.1823 66.1236C38.4741 66.1367 38.7843 66.2179 39.0546 66.1535C43.6844 65.0577 48.3009 63.9151 52.9368 62.8399C58.6317 61.5189 64.3531 60.2895 70.0419 58.947C75.7561 57.598 81.4214 56.0743 87.151 54.7861C91.9001 53.7183 96.4942 52.5262 100.323 49.4807C102.762 47.5413 103.098 45.4693 100.378 44.0455C98.9958 43.3215 97.2114 42.9095 95.3107 43.1842C91.9501 43.6691 89.2792 45.5524 86.1726 46.5146C84.1209 47.1499 82.4029 48.6484 80.0502 48.5017C79.8921 48.4914 79.7411 48.3662 79.5871 48.2943C79.7095 48.1551 79.8044 47.9328 79.9594 47.8898C83.1242 47.0014 85.941 45.3964 88.9711 44.2333C89.4822 44.0371 89.9607 43.7681 90.4535 43.5327C89.9576 43.5327 89.4628 43.5327 88.5671 43.5327ZM6.41567 73.9214C6.4473 73.9933 6.4779 74.0653 6.50953 74.1372C9.19782 73.4188 11.8759 72.6667 14.5754 71.9885C19.9826 70.6292 25.4081 69.3316 30.8123 67.9621C32.5109 67.5314 34.4371 67.5268 35.8185 66.4188C39.6606 63.3397 43.411 60.1652 47.195 57.0263C47.3735 56.8787 47.5347 56.7133 47.7041 56.5564C47.3817 56.6181 47.0358 56.6302 46.741 56.7488C40.7962 59.1404 34.834 61.4955 28.9248 63.959C23.5605 66.1955 18.2462 68.532 12.9308 70.8637C10.7322 71.8306 8.5867 72.8994 6.41567 73.9214ZM121.205 33.6796C120.502 33.9262 119.837 34.1944 119.148 34.3961C111.698 36.5775 104.51 39.3904 97.2645 42.0622C97.1349 42.1099 97.0319 42.2173 96.9155 42.2967C97.0482 42.378 97.1788 42.5284 97.3134 42.5312C98.7091 42.5602 99.8854 43.1898 101.086 43.7092C103.325 44.678 104.209 46.8566 102.875 48.199C101.697 49.3826 100.357 50.4308 99.0927 51.5435C98.9693 51.6528 98.8734 51.7882 98.7642 51.9115C98.9539 51.9022 99.1733 51.948 99.3284 51.876C100.593 51.2894 101.914 50.8223 103.322 50.6924C104.004 50.6298 104.188 50.3935 103.988 49.8834C103.764 49.3126 103.993 48.8716 104.352 48.4671C105.519 47.1518 106.647 45.8205 107.924 44.5724C111.724 40.8571 116.155 37.8835 120.654 34.9641C121.027 34.7222 121.239 34.2682 121.51 33.9038C121.516 33.8963 121.339 33.7768 121.205 33.6796ZM152.022 43.528C153.841 43.2795 155.746 42.5658 157.648 41.6932C162.924 39.2746 168.098 36.6952 173.135 33.8861C173.297 33.7964 173.601 33.631 173.548 33.5096C173.513 33.3022 173.054 33.4059 172.782 33.4423C172.062 33.5955 171.893 33.6095 170.977 33.8104C169.892 34.0103 169.156 34.1458 168.21 34.3662C162.608 35.6676 156.978 36.8914 151.444 38.4048C150.451 38.6767 147.049 37.791 148.799 40.8543C149.454 42.0034 149.748 43.5588 152.022 43.528ZM143.138 37.6332C137.442 37.8116 132.137 39.5959 126.842 41.2924C120.654 43.2748 114.903 46.1877 108.987 48.7455C108.889 48.7876 108.836 48.9174 108.761 49.0071C108.948 49.0136 109.151 49.0669 109.32 49.0192C112.962 47.9897 116.595 46.936 120.239 45.9149C125.113 44.5481 129.994 43.1973 134.877 41.8558C137.7 41.0794 140.546 40.3713 143.355 39.5548C144.34 39.268 146.221 39.2176 146.105 38.5618C145.914 37.4799 144.241 37.82 143.138 37.6332ZM54.0193 51.9975C53.4408 51.9452 53.2776 51.8826 53.1653 51.9265C50.2883 53.0625 47.4154 54.2087 44.5465 55.3615C44.4424 55.4036 44.3822 55.539 44.3016 55.6306C44.4322 55.6231 44.5761 55.6455 44.6914 55.6044C46.9614 54.787 49.2344 53.9743 51.4932 53.1297C52.2298 52.8541 52.9266 52.4907 54.0193 51.9975ZM57.1126 50.868C59.0418 50.13 60.3446 49.6311 61.6475 49.1323C60.2059 49.321 58.7959 49.5788 57.1126 50.868ZM41.5185 57.7157C41.9439 57.5158 42.3612 57.3206 42.7785 57.1244C42.6907 57.059 42.5744 56.9217 42.5203 56.9404C42.0021 57.1151 41.343 56.9123 40.9492 57.4187C41.1104 57.5018 41.2706 57.5859 41.5185 57.7157Z" fill="white"/>
</svg>
