<svg width="159" height="159" viewBox="0 0 159 159" fill="none" xmlns="http://www.w3.org/2000/svg">
<path d="M159 79.5C159 123.407 123.407 159 79.5 159C35.5934 159 0 123.407 0 79.5C0 35.5934 35.5934 0 79.5 0C123.407 0 159 35.5934 159 79.5Z" fill="#FFF500"/>
<path d="M111.929 55.78C110.535 55.78 109.234 55.56 108.024 55.12C106.85 54.6433 105.824 54.02 104.944 53.25C104.064 52.48 103.367 51.5633 102.854 50.5C102.377 49.4366 102.139 48.3 102.139 47.09C102.139 45.88 102.377 44.7433 102.854 43.68C103.367 42.6166 104.064 41.7 104.944 40.93C105.824 40.16 106.85 39.555 108.024 39.115C109.234 38.6383 110.535 38.4 111.929 38.4C113.285 38.4 114.55 38.6383 115.724 39.115C116.934 39.555 117.979 40.16 118.859 40.93C119.739 41.7 120.435 42.6166 120.949 43.68C121.462 44.7433 121.719 45.88 121.719 47.09C121.719 48.3 121.462 49.4366 120.949 50.5C120.435 51.5633 119.739 52.48 118.859 53.25C117.979 54.02 116.934 54.6433 115.724 55.12C114.55 55.56 113.285 55.78 111.929 55.78ZM111.929 50.83C112.662 50.83 113.285 50.4633 113.799 49.73C114.312 48.9966 114.569 48.1166 114.569 47.09C114.569 46.0633 114.312 45.1833 113.799 44.45C113.285 43.7166 112.662 43.35 111.929 43.35C111.195 43.35 110.572 43.7166 110.059 44.45C109.545 45.1833 109.289 46.0633 109.289 47.09C109.289 48.1166 109.545 48.9966 110.059 49.73C110.572 50.4633 111.195 50.83 111.929 50.83ZM135.524 78.55C134.13 78.55 132.829 78.33 131.619 77.89C130.445 77.4133 129.419 76.79 128.539 76.02C127.659 75.25 126.962 74.3333 126.449 73.27C125.972 72.2066 125.734 71.07 125.734 69.86C125.734 68.65 125.972 67.5133 126.449 66.45C126.962 65.3866 127.659 64.47 128.539 63.7C129.419 62.93 130.445 62.325 131.619 61.885C132.829 61.4083 134.13 61.17 135.524 61.17C136.88 61.17 138.145 61.4083 139.319 61.885C140.529 62.325 141.574 62.93 142.454 63.7C143.334 64.47 144.03 65.3866 144.544 66.45C145.057 67.5133 145.314 68.65 145.314 69.86C145.314 71.07 145.057 72.2066 144.544 73.27C144.03 74.3333 143.334 75.25 142.454 76.02C141.574 76.79 140.529 77.4133 139.319 77.89C138.145 78.33 136.88 78.55 135.524 78.55ZM135.524 73.6C136.257 73.6 136.88 73.2333 137.394 72.5C137.907 71.7666 138.164 70.8866 138.164 69.86C138.164 68.8333 137.907 67.9533 137.394 67.22C136.88 66.4866 136.257 66.12 135.524 66.12C134.79 66.12 134.167 66.4866 133.654 67.22C133.14 67.9533 132.884 68.8333 132.884 69.86C132.884 70.8866 133.14 71.7666 133.654 72.5C134.167 73.2333 134.79 73.6 135.524 73.6ZM106.759 74.425L122.324 56.88L136.129 38.345L140.694 42.47L125.789 59.465L111.324 78.55L106.759 74.425Z" fill="#2F271D"/>
<path d="M97.9996 61.8849C97.9996 64.3049 97.6329 66.5416 96.8996 68.5949C96.1663 70.6116 95.1396 72.3716 93.8196 73.8749C92.5363 75.3416 90.9963 76.4966 89.1996 77.3399C87.4396 78.1466 85.5146 78.5499 83.4246 78.5499C81.3346 78.5499 79.3913 78.1466 77.5946 77.3399C75.8346 76.4966 74.2946 75.3416 72.9746 73.8749C71.6913 72.3716 70.6829 70.6116 69.9496 68.5949C69.2163 66.5416 68.8496 64.3049 68.8496 61.8849C68.8496 59.4649 69.2163 57.2466 69.9496 55.2299C70.6829 53.1766 71.6913 51.4166 72.9746 49.9499C74.2946 48.4466 75.8346 47.2733 77.5946 46.4299C79.3913 45.5866 81.3346 45.1649 83.4246 45.1649C85.5146 45.1649 87.4396 45.5866 89.1996 46.4299C90.9963 47.2733 92.5363 48.4466 93.8196 49.9499C95.1396 51.4166 96.1663 53.1766 96.8996 55.2299C97.6329 57.2466 97.9996 59.4649 97.9996 61.8849ZM87.4396 61.8849C87.4396 59.7582 87.0546 58.0349 86.2846 56.7149C85.5513 55.3949 84.5979 54.7349 83.4246 54.7349C82.1779 54.7349 81.1696 55.3949 80.3996 56.7149C79.6663 58.0349 79.2996 59.7582 79.2996 61.8849C79.2996 64.0116 79.6663 65.7349 80.3996 67.0549C81.1696 68.3383 82.1779 68.9799 83.4246 68.9799C84.5979 68.9799 85.5513 68.3383 86.2846 67.0549C87.0546 65.7349 87.4396 64.0116 87.4396 61.8849Z" fill="#2F271D"/>
<path d="M35.3184 77.9999C35.3184 76.1666 35.465 74.5533 35.7584 73.1599C36.0517 71.7666 36.5284 70.5199 37.1884 69.4199C37.8484 68.2833 38.6917 67.2749 39.7184 66.3949C40.7817 65.5149 42.0834 64.6533 43.6234 63.8099C45.6034 62.7466 47.1617 61.9033 48.2984 61.2799C49.4717 60.6199 50.3517 60.0883 50.9384 59.6849C51.525 59.2816 51.8917 58.9516 52.0384 58.6949C52.2217 58.4016 52.3134 58.0899 52.3134 57.7599C52.3134 56.8433 52.02 56.1649 51.4334 55.7249C50.8467 55.2849 50.04 55.0649 49.0134 55.0649C47.8034 55.0649 46.6484 55.3766 45.5484 55.9999C44.485 56.6233 43.3667 57.6316 42.1934 59.0249L35.5934 51.2699C36.29 50.4999 37.1884 49.8033 38.2884 49.1799C39.3884 48.5199 40.5984 47.9699 41.9184 47.5299C43.275 47.0533 44.705 46.6866 46.2084 46.4299C47.7117 46.1733 49.2517 46.0449 50.8284 46.0449C55.045 46.0449 58.235 46.9249 60.3984 48.6849C62.5984 50.4083 63.6984 52.8283 63.6984 55.9449C63.6984 57.0816 63.5517 58.0899 63.2584 58.9699C62.965 59.8499 62.5617 60.6566 62.0484 61.3899C61.5717 62.0866 60.985 62.7283 60.2884 63.3149C59.5917 63.9016 58.8584 64.4516 58.0884 64.9649C57.1717 65.5883 56.2 66.1933 55.1734 66.7799C54.1834 67.3299 53.1934 67.9533 52.2034 68.6499H64.3034V77.9999H35.3184Z" fill="#2F271D"/>
<path d="M13.6445 67.495V58.145H30.8595V67.495H13.6445Z" fill="#2F271D"/>
<path d="M108.817 125.057V128.802H97.6699V113.161H108.618V116.906H101.966V119.109H107.649V122.59H101.966V125.057H108.817Z" fill="#2F271D"/>
<path d="M84.7832 128.802V113.161H89.0789V125.057H96.1722V128.802H84.7832Z" fill="#2F271D"/>
<path d="M74.1423 113.161H78.0635L83.4826 128.802H79.1209L78.1736 125.74H74.0102L73.0849 128.802H68.7012L74.1423 113.161ZM77.4907 122.876L76.1029 118.03L74.649 122.876H77.4907Z" fill="#2F271D"/>
<path d="M66.3541 118.272C65.9135 118.007 65.4582 117.773 64.9883 117.567C64.5918 117.391 64.1438 117.229 63.6445 117.082C63.1599 116.921 62.6826 116.84 62.2126 116.84C61.8308 116.84 61.5224 116.899 61.2874 117.016C61.0671 117.134 60.957 117.332 60.957 117.611C60.957 117.817 61.0231 117.985 61.1552 118.118C61.2874 118.25 61.4783 118.375 61.728 118.492C61.9776 118.595 62.2787 118.698 62.6312 118.801C62.9983 118.903 63.4095 119.028 63.8648 119.175C64.5844 119.395 65.2306 119.638 65.8033 119.902C66.3908 120.166 66.8901 120.482 67.3013 120.849C67.7125 121.202 68.0283 121.635 68.2486 122.149C68.4689 122.663 68.579 123.287 68.579 124.021C68.579 124.961 68.4028 125.754 68.0503 126.401C67.7125 127.032 67.2573 127.539 66.6845 127.921C66.1264 128.302 65.4876 128.581 64.768 128.758C64.0631 128.919 63.3508 129 62.6312 129C62.0584 129 61.471 128.956 60.8689 128.868C60.2667 128.78 59.6646 128.655 59.0625 128.493C58.475 128.332 57.9023 128.141 57.3442 127.921C56.8008 127.7 56.2942 127.451 55.8242 127.172L57.6747 123.405C58.1887 123.728 58.7247 124.014 59.2828 124.264C59.7527 124.484 60.2814 124.682 60.8689 124.858C61.471 125.035 62.0805 125.123 62.6973 125.123C63.1672 125.123 63.4903 125.064 63.6665 124.947C63.8575 124.814 63.9529 124.646 63.9529 124.44C63.9529 124.22 63.8575 124.036 63.6665 123.889C63.4903 123.728 63.2406 123.588 62.9175 123.471C62.5945 123.353 62.22 123.236 61.7941 123.118C61.3829 123.001 60.9423 122.861 60.4723 122.7C59.7821 122.465 59.1873 122.215 58.688 121.951C58.1887 121.672 57.7775 121.363 57.4544 121.025C57.1313 120.673 56.889 120.276 56.7274 119.836C56.5805 119.395 56.5071 118.889 56.5071 118.316C56.5071 117.449 56.6613 116.686 56.9697 116.025C57.2928 115.364 57.7261 114.813 58.2694 114.373C58.8128 113.932 59.4296 113.602 60.1199 113.381C60.8248 113.146 61.5664 113.029 62.3448 113.029C62.9176 113.029 63.4756 113.088 64.019 113.205C64.5624 113.308 65.0837 113.447 65.5831 113.624C66.0971 113.785 66.5744 113.969 67.0149 114.174C67.4555 114.365 67.852 114.549 68.2045 114.725L66.3541 118.272Z" fill="#2F271D"/>
<path d="M116.773 106.773V91.1322H123.955C124.719 91.1322 125.423 91.2937 126.07 91.6168C126.716 91.9252 127.267 92.3365 127.722 92.8505C128.192 93.3498 128.559 93.9299 128.823 94.5908C129.088 95.2369 129.22 95.8905 129.22 96.5513C129.22 97.4619 129.022 98.3137 128.625 99.1067C128.229 99.8851 127.678 100.524 126.973 101.023L130.277 106.773H125.431L122.677 101.97H121.069V106.773H116.773ZM121.069 98.2255H123.779C124.043 98.2255 124.285 98.0787 124.506 97.785C124.741 97.4912 124.858 97.08 124.858 96.5513C124.858 96.008 124.726 95.5967 124.462 95.3177C124.197 95.024 123.933 94.8771 123.669 94.8771H121.069V98.2255Z" fill="#2F271D"/>
<path d="M114.776 103.028V106.773H103.629V91.1322H114.577V94.8771H107.925V97.08H113.608V100.561H107.925V103.028H114.776Z" fill="#2F271D"/>
<path d="M96.6557 106.773V98.5339L94.0343 104.328H91.7433L89.1218 98.5339V106.773H84.8262V91.1322H89.5183L92.8888 98.4899L96.2812 91.1322H100.951V106.773H96.6557Z" fill="#2F271D"/>
<path d="M77.855 106.773V98.5339L75.2335 104.328H72.9425L70.321 98.5339V106.773H66.0254V91.1322H70.7176L74.088 98.4899L77.4805 91.1322H82.1506V106.773H77.855Z" fill="#2F271D"/>
<path d="M56.4829 103.094C56.9822 103.094 57.4081 102.984 57.7605 102.764C58.113 102.543 58.3994 102.257 58.6197 101.904C58.84 101.537 59.0015 101.119 59.1043 100.649C59.2071 100.179 59.2585 99.6868 59.2585 99.1728V91.1322H63.5542V99.1728C63.5542 100.26 63.4147 101.28 63.1356 102.235C62.8566 103.175 62.4234 103.99 61.8359 104.68C61.2485 105.37 60.5068 105.914 59.611 106.31C58.7298 106.707 57.6871 106.905 56.4829 106.905C55.2346 106.905 54.1625 106.699 53.2666 106.288C52.3855 105.862 51.6585 105.297 51.0858 104.592C50.513 103.887 50.0945 103.072 49.8301 102.147C49.5658 101.207 49.4336 100.215 49.4336 99.1728V91.1322H53.7292V99.1728C53.7292 99.6868 53.7806 100.186 53.8834 100.671C53.9862 101.141 54.1478 101.559 54.3681 101.926C54.5884 102.279 54.8674 102.565 55.2052 102.786C55.5577 102.991 55.9835 103.094 56.4829 103.094Z" fill="#2F271D"/>
<path d="M45.5299 96.2429C45.0893 95.9786 44.634 95.7436 44.1641 95.538C43.7675 95.3617 43.3196 95.2002 42.8203 95.0533C42.3357 94.8918 41.8584 94.811 41.3884 94.811C41.0066 94.811 40.6982 94.8698 40.4632 94.9872C40.2429 95.1047 40.1328 95.303 40.1328 95.582C40.1328 95.7876 40.1988 95.9565 40.331 96.0887C40.4632 96.2209 40.6541 96.3457 40.9038 96.4632C41.1534 96.566 41.4545 96.6688 41.807 96.7716C42.1741 96.8744 42.5853 96.9992 43.0406 97.1461C43.7602 97.3664 44.4064 97.6087 44.9791 97.873C45.5666 98.1374 46.0659 98.4531 46.4771 98.8203C46.8883 99.1728 47.2041 99.606 47.4243 100.12C47.6446 100.634 47.7548 101.258 47.7548 101.992C47.7548 102.932 47.5785 103.725 47.2261 104.372C46.8883 105.003 46.433 105.51 45.8603 105.892C45.3022 106.273 44.6634 106.552 43.9438 106.729C43.2388 106.89 42.5266 106.971 41.807 106.971C41.2342 106.971 40.6468 106.927 40.0446 106.839C39.4425 106.751 38.8404 106.626 38.2383 106.464C37.6508 106.303 37.0781 106.112 36.52 105.892C35.9766 105.671 35.47 105.422 35 105.143L36.8504 101.376C37.3644 101.699 37.9005 101.985 38.4586 102.235C38.9285 102.455 39.4572 102.653 40.0446 102.83C40.6468 103.006 41.2562 103.094 41.873 103.094C42.343 103.094 42.6661 103.035 42.8423 102.918C43.0332 102.786 43.1287 102.617 43.1287 102.411C43.1287 102.191 43.0332 102.007 42.8423 101.86C42.6661 101.699 42.4164 101.559 42.0933 101.442C41.7702 101.324 41.3957 101.207 40.9699 101.089C40.5586 100.972 40.1181 100.832 39.6481 100.671C38.9579 100.436 38.3631 100.186 37.8638 99.9217C37.3644 99.6427 36.9532 99.3343 36.6301 98.9965C36.3071 98.6441 36.0647 98.2475 35.9032 97.807C35.7563 97.3664 35.6829 96.8597 35.6829 96.287C35.6829 95.4205 35.8371 94.6568 36.1455 93.9959C36.4686 93.3351 36.9018 92.7843 37.4452 92.3438C37.9886 91.9032 38.6054 91.5728 39.2957 91.3525C40.0006 91.1175 40.7422 91 41.5206 91C42.0933 91 42.6514 91.0587 43.1948 91.1762C43.7382 91.279 44.2595 91.4186 44.7588 91.5948C45.2729 91.7563 45.7501 91.9399 46.1907 92.1455C46.6313 92.3364 47.0278 92.52 47.3803 92.6962L45.5299 96.2429Z" fill="#2F271D"/>
</svg>
