<svg width="124" height="199" viewBox="0 0 124 199" fill="none" xmlns="http://www.w3.org/2000/svg">
<path d="M123.317 166.85L61.6583 198.929L0 166.85V0H123.317V166.85Z" fill="url(#paint0_radial_2901_2302)"/>
<g opacity="0.24">
<path opacity="0.24" d="M14.7989 40.364L12.3962 45.8117H5.94629L17.036 23.696H24.9008L28.0617 45.8117H21.7453L21.3502 40.364H14.7989ZM21.0138 35.9015L20.6187 31.9981C20.4852 30.752 20.325 29.1437 20.1595 27.8657H20.0955C19.5028 29.1437 18.9101 30.752 18.2854 32.0353L16.5395 35.9068H21.0138V35.9015Z" fill="black"/>
<path opacity="0.24" d="M34.4693 23.696H40.2571L38.5111 32.9832H38.5752C39.1999 32.1951 39.8887 31.4389 40.5187 30.72L46.6055 23.696H54.1713L44.5659 33.1483L50.3537 45.8117H43.9038L39.9207 36.6257L37.4219 38.825L36.0711 45.8117H30.2939L34.4693 23.696Z" fill="black"/>
<path opacity="0.24" d="M69.5749 45.1194C68.2934 45.7105 65.9548 46.2004 62.7619 46.2004C56.7765 46.2004 51.4746 43.2129 51.4746 36.0612C51.4746 30.8744 54.1389 27.1361 58.0206 25.1019C60.4553 23.8558 63.1517 23.2966 66.4407 23.2966C69.2385 23.2966 71.2461 23.8877 72.0683 24.2818L70.5573 28.9414C69.9326 28.7124 68.224 28.2171 66.0509 28.2171C64.0433 28.2171 62.3348 28.6112 61.0159 29.4632C59.1098 30.6774 57.8925 32.7755 57.8925 35.5659C57.8925 39.2084 60.4233 41.2746 64.3744 41.2746C66.1524 41.2746 67.7328 41.0136 68.9448 40.5184L69.5749 45.1194Z" fill="black"/>
<path opacity="0.24" d="M81.8182 23.696L77.6375 45.8117H71.7803L75.9609 23.696H81.8182Z" fill="black"/>
<path opacity="0.24" d="M91.028 23.696H96.8853L94.1889 37.7706C93.0677 43.6443 90.4407 46.2058 84.6155 46.2058C83.0351 46.2058 81.161 45.9768 80.2373 45.5827L81.3906 40.6622C82.1488 40.8912 83.1686 41.1202 84.3165 41.1202C86.5857 41.1202 87.9045 40.135 88.5613 36.7535L91.028 23.696Z" fill="black"/>
<path opacity="0.24" d="M103.661 40.364L101.258 45.8117H94.8086L105.898 23.696H113.763L116.924 45.8117H110.608L110.212 40.364H103.661ZM109.881 35.9015L109.486 31.9981C109.353 30.752 109.193 29.1437 109.027 27.8657H108.963C108.37 29.1437 107.778 30.752 107.153 32.0353L105.407 35.9068H109.881V35.9015Z" fill="black"/>
</g>
<path d="M13.9385 40.364L11.5358 45.8117H5.08594L16.1757 23.696H24.0405L27.2014 45.8117H20.8849L20.4898 40.364H13.9385ZM20.1535 35.9015L19.7584 31.9981C19.6249 30.752 19.4647 29.1437 19.2992 27.8657H19.2351C18.6424 29.1437 18.0498 30.752 17.4251 32.0353L15.6791 35.9068H20.1535V35.9015Z" fill="white"/>
<path d="M33.6089 23.696H39.3967L37.6508 32.9832H37.7149C38.3396 32.1951 39.0283 31.4389 39.6584 30.72L45.7452 23.696H53.311L43.7056 33.1483L49.4934 45.8117H43.0542L39.071 36.6257L36.5723 38.825L35.2214 45.8117H29.4336L33.6089 23.696Z" fill="white"/>
<path d="M68.7145 45.1194C67.4331 45.7105 65.0945 46.2004 61.9016 46.2004C55.9162 46.2004 50.6143 43.2129 50.6143 36.0612C50.6143 30.8744 53.2786 27.1361 57.1603 25.1019C59.595 23.8558 62.2913 23.2966 65.5803 23.2966C68.3781 23.2966 70.3857 23.8877 71.208 24.2818L69.697 28.9414C69.0723 28.7124 67.3637 28.2171 65.1906 28.2171C63.183 28.2171 61.4744 28.6112 60.1556 29.4632C58.2495 30.6774 57.0321 32.7755 57.0321 35.5659C57.0321 39.2084 59.5629 41.2746 63.514 41.2746C65.292 41.2746 66.8725 41.0136 68.0845 40.5184L68.7145 45.1194Z" fill="white"/>
<path d="M80.9578 23.696L76.7771 45.8117H70.9199L75.1006 23.696H80.9578Z" fill="white"/>
<path d="M90.1677 23.696H96.0249L93.3286 37.7706C92.2073 43.6443 89.5804 46.2058 83.7552 46.2058C82.1748 46.2058 80.3007 45.9768 79.377 45.5827L80.5302 40.6622C81.2884 40.8912 82.3082 41.1202 83.4562 41.1202C85.7254 41.1202 87.0442 40.135 87.7009 36.7535L90.1677 23.696Z" fill="white"/>
<path d="M102.801 40.364L100.398 45.8117H93.9482L105.038 23.696H112.903L116.064 45.8117H109.742L109.347 40.364H102.801ZM109.021 35.9015L108.626 31.9981C108.493 30.752 108.332 29.1437 108.167 27.8657H108.103C107.51 29.1437 106.917 30.752 106.293 32.0353L104.547 35.9068H109.021V35.9015Z" fill="white"/>
<path d="M23.2825 127.377L19.9466 147.297H15.4486L17.9915 132.668L13.3568 133.98L13.9857 130.33L22.7767 127.39L23.2825 127.377ZM30.7753 138.396L27.1249 137.508L29.8729 127.39H41.2206L40.6464 130.972H33.0448L31.828 134.951C32.229 134.696 32.6711 134.513 33.1542 134.404C33.6373 134.286 34.1112 134.222 34.5761 134.213C35.5331 134.213 36.358 134.39 37.0507 134.746C37.7434 135.092 38.3039 135.571 38.7323 136.181C39.1607 136.792 39.4615 137.494 39.6346 138.287C39.8078 139.08 39.858 139.914 39.785 140.789C39.703 141.791 39.4569 142.712 39.0468 143.551C38.6366 144.389 38.0943 145.114 37.4198 145.724C36.7453 146.335 35.9706 146.804 35.0956 147.133C34.2206 147.452 33.2818 147.602 32.2792 147.584C31.4133 147.566 30.6021 147.415 29.8456 147.133C29.0982 146.841 28.4374 146.435 27.8632 145.916C27.2889 145.387 26.8423 144.763 26.5233 144.043C26.2043 143.314 26.0494 142.507 26.0585 141.623H30.5565C30.5748 142.033 30.6477 142.416 30.7753 142.771C30.9029 143.127 31.1034 143.418 31.3768 143.646C31.6594 143.865 32.0331 143.983 32.4979 144.002C32.9901 144.011 33.4048 143.911 33.7421 143.701C34.0793 143.491 34.3573 143.213 34.5761 142.867C34.7948 142.511 34.9589 142.124 35.0682 141.705C35.1867 141.286 35.2642 140.875 35.3007 140.474C35.3462 140.073 35.3462 139.691 35.3007 139.326C35.2551 138.952 35.1548 138.624 34.9999 138.342C34.8449 138.05 34.6171 137.822 34.3163 137.658C34.0246 137.485 33.6509 137.394 33.1952 137.385C32.7304 137.385 32.2883 137.467 31.869 137.631C31.4498 137.795 31.0852 138.05 30.7753 138.396ZM46.4848 135.416L48.4809 135.443C49.0278 135.425 49.5108 135.311 49.9301 135.101C50.3585 134.892 50.7003 134.591 50.9555 134.199C51.2198 133.798 51.3839 133.324 51.4477 132.777C51.5024 132.367 51.4614 132.002 51.3246 131.683C51.197 131.364 50.9874 131.114 50.6957 130.931C50.4132 130.74 50.0623 130.64 49.643 130.631C49.242 130.622 48.8728 130.694 48.5356 130.849C48.1983 131.004 47.9112 131.223 47.6743 131.506C47.4464 131.788 47.2914 132.121 47.2094 132.504L42.684 132.531C42.7478 131.328 43.1306 130.321 43.8325 129.51C44.5434 128.698 45.423 128.092 46.4711 127.691C47.5193 127.281 48.5948 127.08 49.6977 127.09C50.8461 127.108 51.9125 127.322 52.8969 127.732C53.8813 128.133 54.6651 128.748 55.2485 129.578C55.8318 130.398 56.087 131.437 56.0141 132.695C55.9685 133.543 55.7361 134.286 55.3168 134.924C54.8976 135.562 54.3552 136.09 53.6899 136.51C53.0336 136.929 52.3181 137.248 51.5434 137.467C50.7778 137.676 50.0167 137.781 49.2602 137.781L46.102 137.767L46.4848 135.416ZM45.9379 138.847L46.3071 136.551L49.0004 136.564C49.7752 136.582 50.5226 136.692 51.2426 136.892C51.9627 137.093 52.6052 137.394 53.1703 137.795C53.7446 138.196 54.1866 138.711 54.4965 139.34C54.8064 139.969 54.9431 140.72 54.9067 141.595C54.852 142.616 54.5877 143.51 54.1137 144.275C53.6398 145.032 53.0245 145.656 52.268 146.148C51.5206 146.64 50.6912 147.005 49.7797 147.242C48.8774 147.479 47.9659 147.593 47.0453 147.584C46.1612 147.566 45.3409 147.424 44.5844 147.16C43.8279 146.886 43.1625 146.504 42.5883 146.011C42.0232 145.51 41.5812 144.904 41.2621 144.193C40.9523 143.473 40.7973 142.657 40.7973 141.746H45.268C45.2771 142.174 45.3683 142.557 45.5414 142.894C45.7146 143.232 45.9607 143.5 46.2797 143.701C46.5987 143.892 46.977 143.993 47.4145 144.002C47.9158 144.011 48.3852 143.915 48.8227 143.715C49.2602 143.505 49.6248 143.213 49.9164 142.84C50.2081 142.457 50.3904 142.01 50.4633 141.5C50.5362 140.962 50.5043 140.502 50.3676 140.119C50.24 139.727 50.0076 139.426 49.6703 139.217C49.3331 138.998 48.8911 138.879 48.3442 138.861L45.9379 138.847ZM76.1949 143.605L75.5523 147.297H65.23L65.8726 143.605H76.1949ZM70.3707 127.39L66.9117 147.297H62.2359L65.6812 127.39H70.3707ZM76.3043 135.293L75.689 138.861H66.6929L67.3218 135.293H76.3043ZM79.0386 127.39L78.3961 131.095H68.0328L68.689 127.39H79.0386ZM90.8107 127.39H95.4864L93.2716 140.379C93.0528 141.901 92.5561 143.204 91.7814 144.289C91.0157 145.373 90.0268 146.198 88.8146 146.763C87.6023 147.329 86.2306 147.602 84.6993 147.584C83.2775 147.556 82.0333 147.251 80.9669 146.668C79.9096 146.084 79.1167 145.26 78.588 144.193C78.0594 143.127 77.8816 141.86 78.0548 140.392L80.2696 127.39H84.9591L82.7579 140.406C82.685 141.008 82.6896 141.568 82.7716 142.088C82.8627 142.607 83.0815 143.031 83.4278 143.359C83.7742 143.687 84.2937 143.86 84.9864 143.879C85.7247 143.906 86.34 143.769 86.8321 143.469C87.3334 143.168 87.7254 142.748 88.0079 142.211C88.2996 141.673 88.4956 141.067 88.5958 140.392L90.8107 127.39ZM97.8112 127.39L105.18 127.404C106.393 127.422 107.509 127.641 108.53 128.06C109.551 128.48 110.353 129.122 110.936 129.988C111.52 130.845 111.766 131.943 111.674 133.283C111.592 134.386 111.346 135.316 110.936 136.072C110.526 136.819 109.97 137.457 109.268 137.986C108.566 138.515 107.742 138.984 106.794 139.394L105.098 140.269H98.4811L99.11 136.564L103.608 136.592C104.21 136.582 104.743 136.464 105.208 136.236C105.682 136.008 106.069 135.685 106.37 135.265C106.671 134.846 106.862 134.336 106.944 133.734C107.017 133.242 106.999 132.804 106.889 132.422C106.78 132.03 106.57 131.72 106.26 131.492C105.951 131.264 105.54 131.136 105.03 131.109L101.858 131.095L99.0417 147.297H94.3659L97.8112 127.39ZM105.044 147.297L102.296 138.492L107.04 138.465L110.034 147.064V147.297H105.044Z" fill="white"/>
<path opacity="0.6" d="M34.1033 98.7715L31.7205 113H28.5076L30.324 102.551L27.0135 103.488L27.4627 100.881L33.742 98.7812L34.1033 98.7715ZM37.9123 110.559H38.0588C38.6968 110.572 39.2893 110.503 39.8361 110.354C40.383 110.197 40.868 109.96 41.2912 109.641C41.7209 109.322 42.0725 108.921 42.3459 108.439C42.6258 107.951 42.8147 107.382 42.9123 106.73L43.3127 103.781C43.3387 103.547 43.3518 103.28 43.3518 102.98C43.3583 102.674 43.3257 102.382 43.2541 102.102C43.189 101.815 43.0686 101.581 42.8928 101.398C42.717 101.21 42.4598 101.112 42.1213 101.105C41.8088 101.099 41.5354 101.184 41.301 101.359C41.0731 101.535 40.8778 101.76 40.715 102.033C40.5588 102.307 40.4351 102.596 40.3439 102.902C40.2593 103.202 40.204 103.479 40.1779 103.732C40.1519 103.973 40.1486 104.23 40.1682 104.504C40.1877 104.771 40.243 105.025 40.3342 105.266C40.4253 105.507 40.562 105.705 40.7443 105.861C40.9331 106.018 41.1805 106.099 41.4865 106.105C41.7535 106.105 41.9943 106.06 42.2092 105.969C42.4305 105.878 42.6226 105.747 42.7854 105.578C42.9546 105.409 43.0913 105.214 43.1955 104.992C43.3062 104.771 43.3778 104.536 43.4104 104.289L44.2697 105.041C44.2242 105.51 44.0907 105.952 43.8693 106.369C43.648 106.779 43.3648 107.144 43.0197 107.463C42.6747 107.782 42.2841 108.033 41.8479 108.215C41.4182 108.391 40.9657 108.475 40.4904 108.469C39.8329 108.462 39.2665 108.326 38.7912 108.059C38.3225 107.785 37.9449 107.424 37.6584 106.975C37.3719 106.519 37.1701 106.011 37.0529 105.451C36.9357 104.891 36.8999 104.315 36.9455 103.723C37.0041 103.02 37.1831 102.355 37.4826 101.73C37.7821 101.105 38.1727 100.555 38.6545 100.08C39.1428 99.5983 39.7027 99.224 40.3342 98.957C40.9657 98.6836 41.6395 98.5566 42.3557 98.5762C43.1499 98.5892 43.8205 98.7682 44.3674 99.1133C44.9208 99.4518 45.3635 99.9043 45.6955 100.471C46.0275 101.031 46.2554 101.652 46.3791 102.336C46.5028 103.013 46.5288 103.7 46.4572 104.396L46.3107 105.529C46.2001 106.421 45.9852 107.258 45.6662 108.039C45.3472 108.82 44.9403 109.527 44.4455 110.158C43.9507 110.79 43.3745 111.333 42.717 111.789C42.066 112.238 41.34 112.587 40.5393 112.834C39.745 113.075 38.8856 113.199 37.9611 113.205H37.6486L37.9123 110.559ZM55.8033 98.7715L53.4205 113H50.2076L52.024 102.551L48.7135 103.488L49.1627 100.881L55.442 98.7812L55.8033 98.7715ZM71.8979 110.363L71.4389 113H64.0658L64.5248 110.363H71.8979ZM67.7377 98.7812L65.267 113H61.9272L64.3881 98.7812H67.7377ZM71.976 104.426L71.5365 106.975H65.1107L65.56 104.426H71.976ZM73.9291 98.7812L73.4701 101.428H66.0678L66.5365 98.7812H73.9291ZM82.3377 98.7812H85.6775L84.0955 108.059C83.9393 109.146 83.5844 110.077 83.0311 110.852C82.4842 111.626 81.7778 112.215 80.9119 112.619C80.046 113.023 79.0662 113.218 77.9725 113.205C76.9568 113.186 76.0682 112.967 75.3064 112.551C74.5512 112.134 73.9848 111.545 73.6072 110.783C73.2296 110.021 73.1027 109.117 73.2264 108.068L74.8084 98.7812H78.158L76.5857 108.078C76.5337 108.508 76.5369 108.908 76.5955 109.279C76.6606 109.65 76.8169 109.953 77.0643 110.188C77.3117 110.422 77.6827 110.546 78.1775 110.559C78.7049 110.578 79.1443 110.48 79.4959 110.266C79.854 110.051 80.1339 109.751 80.3357 109.367C80.5441 108.983 80.684 108.55 80.7557 108.068L82.3377 98.7812ZM87.3381 98.7812L92.6018 98.791C93.4676 98.804 94.2652 98.9603 94.9943 99.2598C95.7235 99.5592 96.2964 100.018 96.7131 100.637C97.1298 101.249 97.3055 102.033 97.2404 102.99C97.1818 103.778 97.0061 104.442 96.7131 104.982C96.4201 105.516 96.023 105.972 95.5217 106.35C95.0204 106.727 94.4312 107.062 93.7541 107.355L92.5432 107.98H87.8166L88.2658 105.334L91.4787 105.354C91.9084 105.347 92.2893 105.262 92.6213 105.1C92.9598 104.937 93.2365 104.706 93.4514 104.406C93.6662 104.107 93.8029 103.742 93.8615 103.312C93.9136 102.961 93.9006 102.648 93.8225 102.375C93.7443 102.095 93.5946 101.874 93.3732 101.711C93.1519 101.548 92.8589 101.457 92.4943 101.438L90.2287 101.428L88.217 113H84.8772L87.3381 98.7812ZM92.5041 113L90.5412 106.711L93.9299 106.691L96.0686 112.834V113H92.5041Z" fill="white"/>
<path d="M105.484 99.3213L18 111.03L18.213 112.613L105.697 100.905L105.484 99.3213Z" fill="#FF8080"/>
<path d="M48.8799 76.2721L48.1592 80.8424H30.8096L31.4424 76.7643L40.5479 68.3092C41.04 67.8287 41.5674 67.2897 42.1299 66.692C42.6924 66.0944 43.1904 65.4557 43.624 64.776C44.0693 64.0846 44.3447 63.3815 44.4502 62.6666C44.5205 62.1276 44.5088 61.6119 44.415 61.1198C44.333 60.6276 44.1279 60.2233 43.7998 59.9069C43.4834 59.5787 43.0088 59.4088 42.376 59.3971C41.6494 59.3737 41.04 59.5729 40.5479 59.9948C40.0674 60.4166 39.6924 60.944 39.4229 61.5768C39.165 62.2096 38.9951 62.8365 38.9131 63.4576L33.165 63.4928C33.2471 61.7936 33.7451 60.2936 34.6592 58.9928C35.585 57.692 36.7627 56.6725 38.1924 55.9342C39.6338 55.1959 41.1865 54.8385 42.8506 54.8619C44.3623 54.8854 45.71 55.1725 46.8936 55.7233C48.0889 56.274 49.0088 57.0885 49.6533 58.1666C50.2979 59.2448 50.5557 60.5865 50.4268 62.192C50.333 63.3053 50.04 64.3365 49.5479 65.2858C49.0674 66.235 48.4639 67.1256 47.7373 67.9576C47.0225 68.778 46.2549 69.5631 45.4346 70.3131C44.626 71.0514 43.8467 71.7721 43.0967 72.4752L39.2119 76.2369L48.8799 76.2721ZM70.7119 65.7076L69.9912 70.3658C69.792 71.7721 69.4463 73.1315 68.9541 74.444C68.4619 75.7448 67.8057 76.9108 66.9854 77.942C66.1768 78.9733 65.1807 79.7819 63.9971 80.3678C62.8252 80.9537 61.4365 81.2291 59.8311 81.194C58.6123 81.1705 57.5635 80.9537 56.6846 80.5436C55.8057 80.1217 55.0732 79.5592 54.4873 78.8561C53.9131 78.153 53.4678 77.3444 53.1514 76.4303C52.8467 75.5162 52.6592 74.5436 52.5889 73.5123C52.5186 72.4811 52.5479 71.4381 52.6768 70.3834L53.3799 65.7076C53.5908 64.3014 53.9424 62.9479 54.4346 61.6471C54.9268 60.3346 55.583 59.1627 56.4033 58.1315C57.2236 57.1002 58.2256 56.2975 59.4092 55.7233C60.5928 55.1373 61.9814 54.8619 63.5752 54.8971C64.7939 54.9205 65.8428 55.1432 66.7217 55.5651C67.6006 55.9752 68.3271 56.5319 68.9014 57.235C69.4756 57.9381 69.915 58.7467 70.2197 59.6608C70.5361 60.5748 70.7295 61.5475 70.7998 62.5787C70.8701 63.61 70.8408 64.653 70.7119 65.7076ZM64.1377 71.1217L65.0518 64.9166C65.0869 64.5651 65.1279 64.1608 65.1748 63.7037C65.2217 63.2467 65.2334 62.778 65.21 62.2975C65.1982 61.8053 65.1279 61.3483 64.999 60.9264C64.8818 60.5045 64.6768 60.1588 64.3838 59.8893C64.1025 59.608 63.7041 59.4557 63.1885 59.4323C62.4619 59.3971 61.8584 59.5553 61.3779 59.9069C60.9092 60.2584 60.5342 60.7272 60.2529 61.3131C59.9717 61.8873 59.7549 62.5026 59.6025 63.1588C59.4619 63.8033 59.3506 64.3951 59.2686 64.9342L58.3545 71.1217C58.3193 71.4733 58.2783 71.8834 58.2314 72.3522C58.1846 72.8092 58.167 73.2838 58.1787 73.776C58.1904 74.2682 58.2549 74.7252 58.3721 75.1471C58.501 75.569 58.7119 75.9205 59.0049 76.2018C59.2979 76.4713 59.7021 76.6237 60.2178 76.6588C60.9443 76.694 61.542 76.5358 62.0107 76.1842C62.4912 75.8209 62.8721 75.3522 63.1533 74.778C63.4346 74.192 63.6455 73.5709 63.7861 72.9147C63.9385 72.2584 64.0557 71.6608 64.1377 71.1217ZM74.5615 61.524L74.6494 60.1705C74.7549 59.0807 75.0771 58.1373 75.6162 57.3405C76.1553 56.5319 76.8584 55.9166 77.7256 55.4948C78.6045 55.0612 79.5889 54.8561 80.6787 54.8795C81.7334 54.8912 82.6475 55.1198 83.4209 55.5651C84.2061 56.0104 84.8037 56.6256 85.2139 57.4108C85.6357 58.1959 85.8115 59.1158 85.7412 60.1705L85.6357 61.524C85.5303 62.6139 85.208 63.5573 84.6689 64.3541C84.1299 65.151 83.4268 65.7604 82.5596 66.1823C81.6924 66.6041 80.7197 66.8033 79.6416 66.7799C78.5986 66.7682 77.6846 66.5455 76.8994 66.1119C76.1143 65.6666 75.5107 65.0514 75.0889 64.2662C74.6787 63.4811 74.5029 62.567 74.5615 61.524ZM78.4463 60.1705L78.2705 61.5944C78.2471 61.9225 78.2705 62.2389 78.3408 62.5436C78.4229 62.8483 78.5693 63.1002 78.7803 63.2994C78.9912 63.4869 79.29 63.5865 79.6768 63.5983C80.0869 63.61 80.4385 63.5221 80.7314 63.3346C81.0361 63.1354 81.2822 62.8776 81.4697 62.5612C81.6572 62.233 81.7861 61.8873 81.8564 61.524L82.0498 60.153C82.085 59.8131 82.0674 59.485 81.9971 59.1686C81.9268 58.8522 81.7803 58.5944 81.5576 58.3951C81.3467 58.1842 81.042 58.0729 80.6436 58.0612C80.2334 58.0494 79.876 58.1432 79.5713 58.3424C79.2666 58.5416 79.0205 58.8053 78.833 59.1334C78.6455 59.4615 78.5166 59.8073 78.4463 60.1705ZM83.8428 75.9205L83.9482 74.567C84.042 73.4772 84.3643 72.5338 84.915 71.7369C85.4658 70.9401 86.1748 70.3307 87.042 69.9088C87.9209 69.4752 88.9053 69.2643 89.9951 69.276C91.0498 69.2994 91.9639 69.5338 92.7373 69.9791C93.5225 70.4127 94.1201 71.0221 94.5303 71.8073C94.9404 72.5924 95.1162 73.5123 95.0576 74.567L94.9521 75.9205C94.8467 77.0104 94.5244 77.9596 93.9854 78.7682C93.458 79.5651 92.7549 80.1803 91.876 80.6139C91.0088 81.0358 90.0361 81.235 88.958 81.2115C87.9033 81.1881 86.9834 80.9596 86.1982 80.526C85.4131 80.0807 84.8096 79.4655 84.3877 78.6803C83.9658 77.8834 83.7842 76.9635 83.8428 75.9205ZM87.7451 74.567L87.5869 75.9908C87.5635 76.3073 87.5928 76.6178 87.6748 76.9225C87.7686 77.2272 87.9209 77.485 88.1318 77.6959C88.3545 77.8951 88.6416 78.0006 88.9932 78.0123C89.4502 78.0358 89.8252 77.9596 90.1182 77.7838C90.4229 77.5963 90.6631 77.3385 90.8389 77.0104C91.0146 76.6823 91.1318 76.319 91.1904 75.9205L91.3838 74.5494C91.4072 74.2096 91.3838 73.8873 91.3135 73.5826C91.2432 73.2662 91.0967 73.0084 90.874 72.8092C90.6631 72.5983 90.3643 72.4869 89.9775 72.4752C89.5674 72.4635 89.2041 72.5573 88.8877 72.7565C88.583 72.944 88.3311 73.2018 88.1318 73.5299C87.9443 73.8463 87.8154 74.192 87.7451 74.567ZM93.7568 59.0983L78.3408 78.8912L75.6338 77.3619L91.0674 57.5865L93.7568 59.0983Z" fill="white"/>
<defs>
<radialGradient id="paint0_radial_2901_2302" cx="0" cy="0" r="1" gradientUnits="userSpaceOnUse" gradientTransform="translate(61.6579 99.4644) scale(82.9064 82.6877)">
<stop stop-color="#E52D16"/>
<stop offset="0.6097" stop-color="#E4262B"/>
<stop offset="1" stop-color="#E42328"/>
</radialGradient>
</defs>
</svg>
