<svg width="124" height="199" viewBox="0 0 124 199" fill="none" xmlns="http://www.w3.org/2000/svg">
<path d="M123.317 166.85L61.6583 198.929L0 166.85V0H123.317V166.85Z" fill="url(#paint0_radial_2902_2332)"/>
<path d="M23.2825 131.377L19.9466 151.297H15.4486L17.9915 136.668L13.3568 137.98L13.9857 134.33L22.7767 131.39L23.2825 131.377ZM30.7753 142.396L27.1249 141.508L29.8729 131.39H41.2206L40.6464 134.972H33.0448L31.828 138.951C32.229 138.696 32.6711 138.513 33.1542 138.404C33.6373 138.286 34.1112 138.222 34.5761 138.213C35.5331 138.213 36.358 138.39 37.0507 138.746C37.7434 139.092 38.3039 139.571 38.7323 140.181C39.1607 140.792 39.4615 141.494 39.6346 142.287C39.8078 143.08 39.858 143.914 39.785 144.789C39.703 145.791 39.4569 146.712 39.0468 147.551C38.6366 148.389 38.0943 149.114 37.4198 149.724C36.7453 150.335 35.9706 150.804 35.0956 151.133C34.2206 151.452 33.2818 151.602 32.2792 151.584C31.4133 151.566 30.6021 151.415 29.8456 151.133C29.0982 150.841 28.4374 150.435 27.8632 149.916C27.2889 149.387 26.8423 148.763 26.5233 148.043C26.2043 147.314 26.0494 146.507 26.0585 145.623H30.5565C30.5748 146.033 30.6477 146.416 30.7753 146.771C30.9029 147.127 31.1034 147.418 31.3768 147.646C31.6594 147.865 32.0331 147.983 32.4979 148.002C32.9901 148.011 33.4048 147.911 33.7421 147.701C34.0793 147.491 34.3573 147.213 34.5761 146.867C34.7948 146.511 34.9589 146.124 35.0682 145.705C35.1867 145.286 35.2642 144.875 35.3007 144.474C35.3462 144.073 35.3462 143.691 35.3007 143.326C35.2551 142.952 35.1548 142.624 34.9999 142.342C34.8449 142.05 34.6171 141.822 34.3163 141.658C34.0246 141.485 33.6509 141.394 33.1952 141.385C32.7304 141.385 32.2883 141.467 31.869 141.631C31.4498 141.795 31.0852 142.05 30.7753 142.396ZM46.4848 139.416L48.4809 139.443C49.0278 139.425 49.5108 139.311 49.9301 139.101C50.3585 138.892 50.7003 138.591 50.9555 138.199C51.2198 137.798 51.3839 137.324 51.4477 136.777C51.5024 136.367 51.4614 136.002 51.3246 135.683C51.197 135.364 50.9874 135.114 50.6957 134.931C50.4132 134.74 50.0623 134.64 49.643 134.631C49.242 134.622 48.8728 134.694 48.5356 134.849C48.1983 135.004 47.9112 135.223 47.6743 135.506C47.4464 135.788 47.2914 136.121 47.2094 136.504L42.684 136.531C42.7478 135.328 43.1306 134.321 43.8325 133.51C44.5434 132.698 45.423 132.092 46.4711 131.691C47.5193 131.281 48.5948 131.08 49.6977 131.09C50.8461 131.108 51.9125 131.322 52.8969 131.732C53.8813 132.133 54.6651 132.748 55.2485 133.578C55.8318 134.398 56.087 135.437 56.0141 136.695C55.9685 137.543 55.7361 138.286 55.3168 138.924C54.8976 139.562 54.3552 140.09 53.6899 140.51C53.0336 140.929 52.3181 141.248 51.5434 141.467C50.7778 141.676 50.0167 141.781 49.2602 141.781L46.102 141.767L46.4848 139.416ZM45.9379 142.847L46.3071 140.551L49.0004 140.564C49.7752 140.582 50.5226 140.692 51.2426 140.892C51.9627 141.093 52.6052 141.394 53.1703 141.795C53.7446 142.196 54.1866 142.711 54.4965 143.34C54.8064 143.969 54.9431 144.72 54.9067 145.595C54.852 146.616 54.5877 147.51 54.1137 148.275C53.6398 149.032 53.0245 149.656 52.268 150.148C51.5206 150.64 50.6912 151.005 49.7797 151.242C48.8774 151.479 47.9659 151.593 47.0453 151.584C46.1612 151.566 45.3409 151.424 44.5844 151.16C43.8279 150.886 43.1625 150.504 42.5883 150.011C42.0232 149.51 41.5812 148.904 41.2621 148.193C40.9523 147.473 40.7973 146.657 40.7973 145.746H45.268C45.2771 146.174 45.3683 146.557 45.5414 146.894C45.7146 147.232 45.9607 147.5 46.2797 147.701C46.5987 147.892 46.977 147.993 47.4145 148.002C47.9158 148.011 48.3852 147.915 48.8227 147.715C49.2602 147.505 49.6248 147.213 49.9164 146.84C50.2081 146.457 50.3904 146.01 50.4633 145.5C50.5362 144.962 50.5043 144.502 50.3676 144.119C50.24 143.727 50.0076 143.426 49.6703 143.217C49.3331 142.998 48.8911 142.879 48.3442 142.861L45.9379 142.847ZM76.1949 147.605L75.5523 151.297H65.23L65.8726 147.605H76.1949ZM70.3707 131.39L66.9117 151.297H62.2359L65.6812 131.39H70.3707ZM76.3043 139.293L75.689 142.861H66.6929L67.3218 139.293H76.3043ZM79.0386 131.39L78.3961 135.095H68.0328L68.689 131.39H79.0386ZM90.8107 131.39H95.4864L93.2716 144.379C93.0528 145.901 92.5561 147.204 91.7814 148.289C91.0157 149.373 90.0268 150.198 88.8146 150.763C87.6023 151.329 86.2306 151.602 84.6993 151.584C83.2775 151.556 82.0333 151.251 80.9669 150.668C79.9096 150.084 79.1167 149.26 78.588 148.193C78.0594 147.127 77.8816 145.86 78.0548 144.392L80.2696 131.39H84.9591L82.7579 144.406C82.685 145.008 82.6896 145.568 82.7716 146.088C82.8627 146.607 83.0815 147.031 83.4278 147.359C83.7742 147.687 84.2937 147.86 84.9864 147.879C85.7247 147.906 86.34 147.769 86.8321 147.469C87.3334 147.168 87.7254 146.748 88.0079 146.211C88.2996 145.673 88.4956 145.067 88.5958 144.392L90.8107 131.39ZM97.8112 131.39L105.18 131.404C106.393 131.422 107.509 131.641 108.53 132.06C109.551 132.48 110.353 133.122 110.936 133.988C111.52 134.845 111.766 135.943 111.674 137.283C111.592 138.386 111.346 139.316 110.936 140.072C110.526 140.819 109.97 141.457 109.268 141.986C108.566 142.515 107.742 142.984 106.794 143.394L105.098 144.269H98.4811L99.11 140.564L103.608 140.592C104.21 140.582 104.743 140.464 105.208 140.236C105.682 140.008 106.069 139.685 106.37 139.265C106.671 138.846 106.862 138.336 106.944 137.734C107.017 137.242 106.999 136.804 106.889 136.422C106.78 136.03 106.57 135.72 106.26 135.492C105.951 135.264 105.54 135.136 105.03 135.109L101.858 135.095L99.0417 151.297H94.3659L97.8112 131.39ZM105.044 151.297L102.296 142.492L107.04 142.465L110.034 151.064V151.297H105.044Z" fill="white"/>
<path d="M31.2029 40.3047C31.3201 39.6927 31.2745 39.1719 31.0662 38.7422C30.8709 38.3125 30.5714 37.9479 30.1678 37.6484C29.7771 37.349 29.3279 37.0951 28.8201 36.8867C28.3253 36.6654 27.8436 36.4635 27.3748 36.2812C26.3592 35.8776 25.3566 35.4219 24.367 34.9141C23.3774 34.3932 22.479 33.7812 21.6717 33.0781C20.8644 32.375 20.2329 31.5547 19.7771 30.6172C19.3344 29.6797 19.1456 28.5794 19.2107 27.3164C19.3019 25.8711 19.712 24.6276 20.4412 23.5859C21.1704 22.5443 22.1014 21.6979 23.2342 21.0469C24.38 20.3828 25.6105 19.901 26.9256 19.6016C28.2537 19.2891 29.5493 19.1458 30.8123 19.1719C32.6092 19.1979 34.2107 19.5625 35.617 20.2656C37.0363 20.9688 38.1495 21.9779 38.9568 23.293C39.7641 24.5951 40.1548 26.1706 40.1287 28.0195H33.5076C33.5337 27.2904 33.436 26.6589 33.2146 26.125C33.0063 25.5781 32.6613 25.1549 32.1795 24.8555C31.6977 24.543 31.0727 24.3802 30.3045 24.3672C29.6665 24.3542 29.0285 24.4583 28.3904 24.6797C27.7524 24.888 27.199 25.2135 26.7303 25.6562C26.2615 26.099 25.962 26.6719 25.8318 27.375C25.7407 27.9089 25.8253 28.3776 26.0857 28.7812C26.3462 29.1719 26.7042 29.5104 27.16 29.7969C27.6157 30.0703 28.091 30.3047 28.5857 30.5C29.0936 30.6953 29.5363 30.8646 29.9139 31.0078C30.9816 31.4115 32.0037 31.8867 32.9803 32.4336C33.9699 32.9674 34.8423 33.599 35.5975 34.3281C36.3657 35.0573 36.9516 35.9102 37.3553 36.8867C37.7719 37.8503 37.9412 38.9701 37.8631 40.2461C37.7589 41.7174 37.3683 42.974 36.6912 44.0156C36.0141 45.0573 35.1417 45.9036 34.074 46.5547C33.0063 47.2057 31.8344 47.681 30.5584 47.9805C29.2824 48.2799 27.9868 48.4232 26.6717 48.4102C25.2003 48.3841 23.8266 48.1628 22.5506 47.7461C21.2745 47.3164 20.1613 46.6979 19.2107 45.8906C18.2602 45.0703 17.5245 44.0677 17.0037 42.8828C16.4829 41.6849 16.2355 40.3112 16.2615 38.7617L22.9607 38.7812C22.9217 39.5104 22.9673 40.1549 23.0975 40.7148C23.2407 41.2617 23.4751 41.724 23.8006 42.1016C24.1391 42.4661 24.5753 42.7461 25.1092 42.9414C25.643 43.1237 26.2876 43.2148 27.0428 43.2148C27.6808 43.2148 28.2928 43.1172 28.8787 42.9219C29.4777 42.7135 29.9855 42.3945 30.4021 41.9648C30.8188 41.5352 31.0857 40.9818 31.2029 40.3047ZM54.7193 25.8711L44.2506 48H36.8482L51.9264 19.5625H56.6529L54.7193 25.8711ZM56.5162 48L53.6256 25.1875L53.7818 19.5625H58.235L63.4889 48H56.5162ZM58.0396 37.3945L57.1021 42.6875H42.9029L43.8404 37.3945H58.0396ZM83.9779 42.7266L83.06 48H69.0756L69.9936 42.7266H83.9779ZM76.4193 19.5625L71.4779 48H64.7982L69.7201 19.5625H76.4193ZM104.994 42.7266L104.076 48H89.3303L90.2482 42.7266H104.994ZM96.674 19.5625L91.7326 48H85.0529L89.9748 19.5625H96.674ZM105.151 30.8516L104.272 35.9492H91.4201L92.3186 30.8516H105.151ZM109.057 19.5625L108.139 24.8555H93.3342L94.2717 19.5625H109.057Z" fill="white"/>
<path opacity="0.6" d="M34.1033 102.771L31.7205 117H28.5076L30.324 106.551L27.0135 107.488L27.4627 104.881L33.742 102.781L34.1033 102.771ZM37.9123 114.559H38.0588C38.6968 114.572 39.2893 114.503 39.8361 114.354C40.383 114.197 40.868 113.96 41.2912 113.641C41.7209 113.322 42.0725 112.921 42.3459 112.439C42.6258 111.951 42.8147 111.382 42.9123 110.73L43.3127 107.781C43.3387 107.547 43.3518 107.28 43.3518 106.98C43.3583 106.674 43.3257 106.382 43.2541 106.102C43.189 105.815 43.0686 105.581 42.8928 105.398C42.717 105.21 42.4598 105.112 42.1213 105.105C41.8088 105.099 41.5354 105.184 41.301 105.359C41.0731 105.535 40.8778 105.76 40.715 106.033C40.5588 106.307 40.4351 106.596 40.3439 106.902C40.2593 107.202 40.204 107.479 40.1779 107.732C40.1519 107.973 40.1486 108.23 40.1682 108.504C40.1877 108.771 40.243 109.025 40.3342 109.266C40.4253 109.507 40.562 109.705 40.7443 109.861C40.9331 110.018 41.1805 110.099 41.4865 110.105C41.7535 110.105 41.9943 110.06 42.2092 109.969C42.4305 109.878 42.6226 109.747 42.7854 109.578C42.9546 109.409 43.0913 109.214 43.1955 108.992C43.3062 108.771 43.3778 108.536 43.4104 108.289L44.2697 109.041C44.2242 109.51 44.0907 109.952 43.8693 110.369C43.648 110.779 43.3648 111.144 43.0197 111.463C42.6747 111.782 42.2841 112.033 41.8479 112.215C41.4182 112.391 40.9657 112.475 40.4904 112.469C39.8329 112.462 39.2665 112.326 38.7912 112.059C38.3225 111.785 37.9449 111.424 37.6584 110.975C37.3719 110.519 37.1701 110.011 37.0529 109.451C36.9357 108.891 36.8999 108.315 36.9455 107.723C37.0041 107.02 37.1831 106.355 37.4826 105.73C37.7821 105.105 38.1727 104.555 38.6545 104.08C39.1428 103.598 39.7027 103.224 40.3342 102.957C40.9657 102.684 41.6395 102.557 42.3557 102.576C43.1499 102.589 43.8205 102.768 44.3674 103.113C44.9208 103.452 45.3635 103.904 45.6955 104.471C46.0275 105.031 46.2554 105.652 46.3791 106.336C46.5028 107.013 46.5288 107.7 46.4572 108.396L46.3107 109.529C46.2001 110.421 45.9852 111.258 45.6662 112.039C45.3472 112.82 44.9403 113.527 44.4455 114.158C43.9507 114.79 43.3745 115.333 42.717 115.789C42.066 116.238 41.34 116.587 40.5393 116.834C39.745 117.075 38.8856 117.199 37.9611 117.205H37.6486L37.9123 114.559ZM55.8033 102.771L53.4205 117H50.2076L52.024 106.551L48.7135 107.488L49.1627 104.881L55.442 102.781L55.8033 102.771ZM71.8979 114.363L71.4389 117H64.0658L64.5248 114.363H71.8979ZM67.7377 102.781L65.267 117H61.9272L64.3881 102.781H67.7377ZM71.976 108.426L71.5365 110.975H65.1107L65.56 108.426H71.976ZM73.9291 102.781L73.4701 105.428H66.0678L66.5365 102.781H73.9291ZM82.3377 102.781H85.6775L84.0955 112.059C83.9393 113.146 83.5844 114.077 83.0311 114.852C82.4842 115.626 81.7778 116.215 80.9119 116.619C80.046 117.023 79.0662 117.218 77.9725 117.205C76.9568 117.186 76.0682 116.967 75.3064 116.551C74.5512 116.134 73.9848 115.545 73.6072 114.783C73.2296 114.021 73.1027 113.117 73.2264 112.068L74.8084 102.781H78.158L76.5857 112.078C76.5337 112.508 76.5369 112.908 76.5955 113.279C76.6606 113.65 76.8169 113.953 77.0643 114.188C77.3117 114.422 77.6827 114.546 78.1775 114.559C78.7049 114.578 79.1443 114.48 79.4959 114.266C79.854 114.051 80.1339 113.751 80.3357 113.367C80.5441 112.983 80.684 112.55 80.7557 112.068L82.3377 102.781ZM87.3381 102.781L92.6018 102.791C93.4676 102.804 94.2652 102.96 94.9943 103.26C95.7235 103.559 96.2964 104.018 96.7131 104.637C97.1298 105.249 97.3055 106.033 97.2404 106.99C97.1818 107.778 97.0061 108.442 96.7131 108.982C96.4201 109.516 96.023 109.972 95.5217 110.35C95.0204 110.727 94.4312 111.062 93.7541 111.355L92.5432 111.98H87.8166L88.2658 109.334L91.4787 109.354C91.9084 109.347 92.2893 109.262 92.6213 109.1C92.9598 108.937 93.2365 108.706 93.4514 108.406C93.6662 108.107 93.8029 107.742 93.8615 107.312C93.9136 106.961 93.9006 106.648 93.8225 106.375C93.7443 106.095 93.5946 105.874 93.3732 105.711C93.1519 105.548 92.8589 105.457 92.4943 105.438L90.2287 105.428L88.217 117H84.8772L87.3381 102.781ZM92.5041 117L90.5412 110.711L93.9299 110.691L96.0686 116.834V117H92.5041Z" fill="white"/>
<path d="M105.484 103.321L18 115.03L18.213 116.613L105.697 104.905L105.484 103.321Z" fill="#FF8080"/>
<path d="M21.4336 73.4453L20.873 77H7.37891L7.87109 73.8281L14.9531 67.252C15.3359 66.8783 15.7461 66.459 16.1836 65.9941C16.6211 65.5293 17.0085 65.0326 17.3457 64.5039C17.6921 63.9661 17.9062 63.4193 17.9883 62.8633C18.043 62.444 18.0339 62.043 17.9609 61.6602C17.8971 61.2773 17.7376 60.9629 17.4824 60.7168C17.2363 60.4616 16.8672 60.3294 16.375 60.3203C15.8099 60.3021 15.3359 60.457 14.9531 60.7852C14.5794 61.1133 14.2878 61.5234 14.0781 62.0156C13.8776 62.5078 13.7454 62.9954 13.6816 63.4785L9.21094 63.5059C9.27474 62.1842 9.66211 61.0176 10.373 60.0059C11.0931 58.9941 12.0091 58.2012 13.1211 57.627C14.2422 57.0527 15.4499 56.7747 16.7441 56.793C17.9199 56.8112 18.9681 57.0345 19.8887 57.4629C20.8184 57.8913 21.5339 58.5247 22.0352 59.3633C22.5365 60.2018 22.737 61.2454 22.6367 62.4941C22.5638 63.36 22.3359 64.1621 21.9531 64.9004C21.5794 65.6387 21.11 66.3314 20.5449 66.9785C19.9889 67.6165 19.3919 68.2272 18.7539 68.8105C18.125 69.3848 17.5189 69.9453 16.9355 70.4922L13.9141 73.418L21.4336 73.4453ZM38.4141 65.2285L37.8535 68.8516C37.6986 69.9453 37.4297 71.0026 37.0469 72.0234C36.6641 73.0352 36.1536 73.9421 35.5156 74.7441C34.8867 75.5462 34.112 76.1751 33.1914 76.6309C32.2799 77.0866 31.1999 77.3008 29.9512 77.2734C29.0033 77.2552 28.1875 77.0866 27.5039 76.7676C26.8203 76.4395 26.2507 76.002 25.7949 75.4551C25.3483 74.9082 25.002 74.2793 24.7559 73.5684C24.5189 72.8574 24.373 72.1009 24.3184 71.2988C24.2637 70.4967 24.2865 69.6855 24.3867 68.8652L24.9336 65.2285C25.0977 64.1348 25.3711 63.082 25.7539 62.0703C26.1367 61.0495 26.6471 60.138 27.2852 59.3359C27.9232 58.5339 28.7025 57.9095 29.623 57.4629C30.5436 57.0072 31.6237 56.793 32.8633 56.8203C33.8112 56.8385 34.627 57.0117 35.3105 57.3398C35.9941 57.6589 36.5592 58.0918 37.0059 58.6387C37.4525 59.1855 37.7943 59.8145 38.0312 60.5254C38.2773 61.2363 38.4277 61.9928 38.4824 62.7949C38.5371 63.597 38.5143 64.4082 38.4141 65.2285ZM33.3008 69.4395L34.0117 64.6133C34.0391 64.3398 34.071 64.0254 34.1074 63.6699C34.1439 63.3145 34.153 62.9499 34.1348 62.5762C34.1257 62.1934 34.071 61.8379 33.9707 61.5098C33.8796 61.1816 33.7201 60.9128 33.4922 60.7031C33.2734 60.4844 32.9635 60.3659 32.5625 60.3477C31.9974 60.3203 31.528 60.4434 31.1543 60.7168C30.7897 60.9902 30.498 61.3548 30.2793 61.8105C30.0605 62.2572 29.8919 62.7357 29.7734 63.2461C29.6641 63.7474 29.5775 64.2077 29.5137 64.627L28.8027 69.4395C28.7754 69.7129 28.7435 70.0319 28.707 70.3965C28.6706 70.752 28.6569 71.1211 28.666 71.5039C28.6751 71.8867 28.7253 72.2422 28.8164 72.5703C28.9167 72.8984 29.0807 73.1719 29.3086 73.3906C29.5365 73.6003 29.8509 73.7188 30.252 73.7461C30.8171 73.7734 31.2819 73.6504 31.6465 73.377C32.0202 73.0944 32.3164 72.7298 32.5352 72.2832C32.7539 71.8275 32.918 71.3444 33.0273 70.834C33.1458 70.3236 33.237 69.8587 33.3008 69.4395ZM41.4082 61.9746L41.4766 60.9219C41.5586 60.0742 41.8092 59.3405 42.2285 58.7207C42.6478 58.0918 43.1947 57.6133 43.8691 57.2852C44.5527 56.9479 45.3184 56.7884 46.166 56.8066C46.9863 56.8158 47.6973 56.9935 48.2988 57.3398C48.9095 57.6862 49.3743 58.1647 49.6934 58.7754C50.0215 59.3861 50.1582 60.1016 50.1035 60.9219L50.0215 61.9746C49.9395 62.8223 49.6888 63.556 49.2695 64.1758C48.8503 64.7956 48.3034 65.2695 47.6289 65.5977C46.9544 65.9258 46.1979 66.0807 45.3594 66.0625C44.5482 66.0534 43.8372 65.8802 43.2266 65.543C42.6159 65.1966 42.1465 64.7181 41.8184 64.1074C41.4993 63.4967 41.3626 62.7858 41.4082 61.9746ZM44.4297 60.9219L44.293 62.0293C44.2747 62.2845 44.293 62.5306 44.3477 62.7676C44.4115 63.0046 44.5254 63.2005 44.6895 63.3555C44.8535 63.5013 45.0859 63.5788 45.3867 63.5879C45.7057 63.597 45.9792 63.5286 46.207 63.3828C46.444 63.2279 46.6354 63.0273 46.7812 62.7812C46.9271 62.526 47.0273 62.2572 47.082 61.9746L47.2324 60.9082C47.2598 60.6439 47.2461 60.3887 47.1914 60.1426C47.1367 59.8965 47.0228 59.696 46.8496 59.541C46.6855 59.377 46.4486 59.2904 46.1387 59.2812C45.8197 59.2721 45.5417 59.3451 45.3047 59.5C45.0677 59.6549 44.8763 59.86 44.7305 60.1152C44.5846 60.3704 44.4844 60.6393 44.4297 60.9219ZM48.627 73.1719L48.709 72.1191C48.7819 71.2715 49.0326 70.5378 49.4609 69.918C49.8893 69.2982 50.4408 68.8242 51.1152 68.4961C51.7988 68.1589 52.5645 67.9948 53.4121 68.0039C54.2324 68.0221 54.9434 68.2044 55.5449 68.5508C56.1556 68.888 56.6204 69.362 56.9395 69.9727C57.2585 70.5833 57.3952 71.2988 57.3496 72.1191L57.2676 73.1719C57.1855 74.0195 56.9349 74.7578 56.5156 75.3867C56.1055 76.0065 55.5586 76.485 54.875 76.8223C54.2005 77.1504 53.444 77.3053 52.6055 77.2871C51.7852 77.2689 51.0697 77.0911 50.459 76.7539C49.8483 76.4076 49.3789 75.929 49.0508 75.3184C48.7227 74.6986 48.5814 73.9831 48.627 73.1719ZM51.6621 72.1191L51.5391 73.2266C51.5208 73.4727 51.5436 73.7142 51.6074 73.9512C51.6803 74.1882 51.7988 74.3887 51.9629 74.5527C52.1361 74.7077 52.3594 74.7897 52.6328 74.7988C52.9883 74.8171 53.2799 74.7578 53.5078 74.6211C53.7448 74.4753 53.9316 74.2747 54.0684 74.0195C54.2051 73.7643 54.2962 73.4818 54.3418 73.1719L54.4922 72.1055C54.5104 71.8411 54.4922 71.5905 54.4375 71.3535C54.3828 71.1074 54.2689 70.9069 54.0957 70.752C53.9316 70.5879 53.6992 70.5013 53.3984 70.4922C53.0794 70.4831 52.7969 70.556 52.5508 70.7109C52.3138 70.8568 52.1178 71.0573 51.9629 71.3125C51.8171 71.5586 51.7168 71.8275 51.6621 72.1191ZM56.3379 60.0879L44.3477 75.4824L42.2422 74.293L54.2461 58.9121L56.3379 60.0879ZM84.2422 66.5684L84.1465 67.375C83.9642 68.6784 83.6133 69.9316 83.0938 71.1348C82.5833 72.3288 81.9089 73.3906 81.0703 74.3203C80.2409 75.25 79.2565 75.9837 78.1172 76.5215C76.9779 77.0501 75.6973 77.3008 74.2754 77.2734C72.9082 77.2461 71.7415 76.9544 70.7754 76.3984C69.8184 75.8424 69.0527 75.0996 68.4785 74.1699C67.9134 73.2402 67.5306 72.1966 67.3301 71.0391C67.1296 69.8815 67.1022 68.6875 67.248 67.457L67.3438 66.6504C67.526 65.3561 67.877 64.1165 68.3965 62.9316C68.916 61.7376 69.5951 60.6758 70.4336 59.7461C71.2721 58.8164 72.2611 58.0918 73.4004 57.5723C74.5397 57.0436 75.8158 56.793 77.2285 56.8203C78.5866 56.8385 79.7441 57.1257 80.7012 57.6816C81.6582 58.2376 82.4193 58.9805 82.9844 59.9102C83.5586 60.8307 83.946 61.8698 84.1465 63.0273C84.3561 64.1758 84.388 65.3561 84.2422 66.5684ZM79.3887 67.457L79.498 66.6094C79.5618 66.0716 79.6029 65.4655 79.6211 64.791C79.6393 64.1165 79.5801 63.4648 79.4434 62.8359C79.3066 62.1979 79.0423 61.6693 78.6504 61.25C78.2676 60.8307 77.7025 60.6029 76.9551 60.5664C76.1257 60.5299 75.4238 60.6986 74.8496 61.0723C74.2754 61.4368 73.8014 61.929 73.4277 62.5488C73.0632 63.1595 72.776 63.8249 72.5664 64.5449C72.3568 65.265 72.2064 65.9577 72.1152 66.623L72.0059 67.4707C71.9421 68.0085 71.8965 68.6191 71.8691 69.3027C71.8509 69.9772 71.9056 70.6335 72.0332 71.2715C72.1699 71.9095 72.4342 72.4427 72.8262 72.8711C73.2181 73.2904 73.7923 73.5137 74.5488 73.541C75.36 73.5775 76.0527 73.4089 76.627 73.0352C77.2012 72.6523 77.6751 72.151 78.0488 71.5312C78.4316 70.9115 78.7279 70.2415 78.9375 69.5215C79.1562 68.8014 79.3066 68.1133 79.3887 67.457ZM93.0059 57.0938L89.5469 77H84.8711L88.3164 57.0938H93.0059ZM99.0762 65.3789L98.4336 69.0703H89.5742L90.2168 65.3789H99.0762ZM101.264 57.0938L100.621 60.7988H90.9961L91.6523 57.0938H101.264ZM107.854 57.0938L104.395 77H99.7188L103.164 57.0938H107.854ZM113.924 65.3789L113.281 69.0703H104.422L105.064 65.3789H113.924ZM116.111 57.0938L115.469 60.7988H105.844L106.5 57.0938H116.111Z" fill="white"/>
<defs>
<radialGradient id="paint0_radial_2902_2332" cx="0" cy="0" r="1" gradientUnits="userSpaceOnUse" gradientTransform="translate(61.6579 99.4644) scale(82.9064 82.6877)">
<stop stop-color="#E52D16"/>
<stop offset="0.6097" stop-color="#E4262B"/>
<stop offset="1" stop-color="#E42328"/>
</radialGradient>
</defs>
</svg>
