<svg width="124" height="199" viewBox="0 0 124 199" fill="none" xmlns="http://www.w3.org/2000/svg">
<path d="M123.317 166.85L61.6583 198.929L0 166.85V0H123.317V166.85Z" fill="url(#paint0_radial_3355_1939)"/>
<g opacity="0.24">
<path opacity="0.24" d="M14.7989 40.364L12.3962 45.8117H5.94629L17.036 23.696H24.9008L28.0617 45.8117H21.7453L21.3502 40.364H14.7989ZM21.0138 35.9015L20.6187 31.9981C20.4852 30.752 20.325 29.1437 20.1595 27.8657H20.0955C19.5028 29.1437 18.9101 30.752 18.2854 32.0353L16.5395 35.9068H21.0138V35.9015Z" fill="black"/>
<path opacity="0.24" d="M34.4693 23.696H40.2571L38.5111 32.9832H38.5752C39.1999 32.1951 39.8887 31.4389 40.5187 30.72L46.6055 23.696H54.1713L44.5659 33.1483L50.3537 45.8117H43.9038L39.9207 36.6257L37.4219 38.825L36.0711 45.8117H30.2939L34.4693 23.696Z" fill="black"/>
<path opacity="0.24" d="M69.5749 45.1194C68.2934 45.7105 65.9548 46.2004 62.7619 46.2004C56.7765 46.2004 51.4746 43.2129 51.4746 36.0612C51.4746 30.8744 54.1389 27.1361 58.0206 25.1019C60.4553 23.8558 63.1517 23.2966 66.4407 23.2966C69.2385 23.2966 71.2461 23.8877 72.0683 24.2818L70.5573 28.9414C69.9326 28.7124 68.224 28.2171 66.0509 28.2171C64.0433 28.2171 62.3348 28.6112 61.0159 29.4632C59.1098 30.6774 57.8925 32.7755 57.8925 35.5659C57.8925 39.2084 60.4233 41.2746 64.3744 41.2746C66.1524 41.2746 67.7328 41.0136 68.9448 40.5184L69.5749 45.1194Z" fill="black"/>
<path opacity="0.24" d="M81.8182 23.696L77.6375 45.8117H71.7803L75.9609 23.696H81.8182Z" fill="black"/>
<path opacity="0.24" d="M91.028 23.696H96.8853L94.1889 37.7706C93.0677 43.6443 90.4407 46.2058 84.6155 46.2058C83.0351 46.2058 81.161 45.9768 80.2373 45.5827L81.3906 40.6622C82.1488 40.8912 83.1686 41.1202 84.3165 41.1202C86.5857 41.1202 87.9045 40.135 88.5613 36.7535L91.028 23.696Z" fill="black"/>
<path opacity="0.24" d="M103.661 40.364L101.258 45.8117H94.8086L105.898 23.696H113.763L116.924 45.8117H110.608L110.212 40.364H103.661ZM109.881 35.9015L109.486 31.9981C109.353 30.752 109.193 29.1437 109.027 27.8657H108.963C108.37 29.1437 107.778 30.752 107.153 32.0353L105.407 35.9068H109.881V35.9015Z" fill="black"/>
</g>
<path d="M13.9385 40.364L11.5358 45.8117H5.08594L16.1757 23.696H24.0405L27.2014 45.8117H20.8849L20.4898 40.364H13.9385ZM20.1535 35.9015L19.7584 31.9981C19.6249 30.752 19.4647 29.1437 19.2992 27.8657H19.2351C18.6424 29.1437 18.0498 30.752 17.4251 32.0353L15.6791 35.9068H20.1535V35.9015Z" fill="white"/>
<path d="M33.6089 23.696H39.3967L37.6508 32.9832H37.7149C38.3396 32.1951 39.0283 31.4389 39.6584 30.72L45.7452 23.696H53.311L43.7056 33.1483L49.4934 45.8117H43.0542L39.071 36.6257L36.5723 38.825L35.2214 45.8117H29.4336L33.6089 23.696Z" fill="white"/>
<path d="M68.7145 45.1194C67.4331 45.7105 65.0945 46.2004 61.9016 46.2004C55.9162 46.2004 50.6143 43.2129 50.6143 36.0612C50.6143 30.8744 53.2786 27.1361 57.1603 25.1019C59.595 23.8558 62.2913 23.2966 65.5803 23.2966C68.3781 23.2966 70.3857 23.8877 71.208 24.2818L69.697 28.9414C69.0723 28.7124 67.3637 28.2171 65.1906 28.2171C63.183 28.2171 61.4744 28.6112 60.1556 29.4632C58.2495 30.6774 57.0321 32.7755 57.0321 35.5659C57.0321 39.2084 59.5629 41.2746 63.514 41.2746C65.292 41.2746 66.8725 41.0136 68.0845 40.5184L68.7145 45.1194Z" fill="white"/>
<path d="M80.9578 23.696L76.7771 45.8117H70.9199L75.1006 23.696H80.9578Z" fill="white"/>
<path d="M90.1677 23.696H96.0249L93.3286 37.7706C92.2073 43.6443 89.5804 46.2058 83.7552 46.2058C82.1748 46.2058 80.3007 45.9768 79.377 45.5827L80.5302 40.6622C81.2884 40.8912 82.3082 41.1202 83.4562 41.1202C85.7254 41.1202 87.0442 40.135 87.7009 36.7535L90.1677 23.696Z" fill="white"/>
<path d="M102.801 40.364L100.398 45.8117H93.9482L105.038 23.696H112.903L116.064 45.8117H109.742L109.347 40.364H102.801ZM109.021 35.9015L108.626 31.9981C108.493 30.752 108.332 29.1437 108.167 27.8657H108.103C107.51 29.1437 106.917 30.752 106.293 32.0353L104.547 35.9068H109.021V35.9015Z" fill="white"/>
<path d="M23.2825 127.377L19.9466 147.297H15.4486L17.9915 132.668L13.3568 133.98L13.9857 130.33L22.7767 127.39L23.2825 127.377ZM38.4042 127.09H39.2108L38.8554 130.726H38.6776C37.7388 130.708 36.8593 130.836 36.0389 131.109C35.2277 131.383 34.4986 131.784 33.8514 132.312C33.2043 132.841 32.6665 133.479 32.2382 134.226C31.8189 134.974 31.5409 135.817 31.4042 136.756L30.9257 140.256C30.8892 140.629 30.871 141.03 30.871 141.459C30.871 141.887 30.9257 142.297 31.035 142.689C31.1444 143.072 31.3358 143.386 31.6093 143.633C31.8827 143.879 32.2701 144.006 32.7714 144.015C33.218 144.024 33.6099 143.929 33.9471 143.728C34.2935 143.519 34.5852 143.241 34.8221 142.894C35.0682 142.548 35.2596 142.174 35.3964 141.773C35.5422 141.372 35.6379 140.98 35.6835 140.597C35.7199 140.251 35.7154 139.891 35.6698 139.517C35.6333 139.144 35.5422 138.797 35.3964 138.478C35.2505 138.15 35.0409 137.886 34.7675 137.685C34.494 137.485 34.1431 137.38 33.7147 137.371C33.1952 137.362 32.7258 137.476 32.3065 137.713C31.8873 137.941 31.5409 138.255 31.2675 138.656C30.994 139.057 30.8117 139.508 30.7206 140.01L29.7499 138.888C29.8046 138.15 29.996 137.476 30.3241 136.865C30.6522 136.245 31.0806 135.707 31.6093 135.252C32.1379 134.796 32.7304 134.45 33.3866 134.213C34.052 133.967 34.7492 133.848 35.4784 133.857C36.3899 133.875 37.16 134.085 37.7889 134.486C38.427 134.887 38.9328 135.416 39.3065 136.072C39.6893 136.719 39.9491 137.439 40.0858 138.232C40.2317 139.025 40.2727 139.818 40.2089 140.611C40.1268 141.595 39.8716 142.516 39.4432 143.373C39.024 144.22 38.4725 144.963 37.7889 145.601C37.1054 146.239 36.3215 146.736 35.4374 147.092C34.5624 147.438 33.6281 147.602 32.6346 147.584C31.5136 147.556 30.5429 147.319 29.7225 146.873C28.9113 146.426 28.2505 145.829 27.7401 145.082C27.2297 144.325 26.8697 143.473 26.66 142.525C26.4595 141.577 26.4139 140.588 26.5233 139.558L26.7284 137.877C26.9289 136.364 27.3527 134.955 27.9999 133.652C28.6561 132.349 29.4947 131.209 30.5155 130.234C31.5455 129.25 32.7258 128.484 34.0565 127.937C35.3873 127.39 36.8365 127.108 38.4042 127.09ZM55.8364 135.525L55.2758 139.148C55.1209 140.242 54.852 141.299 54.4692 142.32C54.0864 143.332 53.5759 144.239 52.9379 145.041C52.309 145.843 51.5343 146.472 50.6137 146.927C49.7023 147.383 48.6222 147.597 47.3735 147.57C46.4256 147.552 45.6098 147.383 44.9262 147.064C44.2426 146.736 43.673 146.299 43.2172 145.752C42.7706 145.205 42.4243 144.576 42.1782 143.865C41.9412 143.154 41.7953 142.398 41.7407 141.595C41.686 140.793 41.7088 139.982 41.809 139.162L42.3559 135.525C42.52 134.431 42.7934 133.379 43.1762 132.367C43.559 131.346 44.0694 130.435 44.7075 129.633C45.3455 128.83 46.1248 128.206 47.0453 127.76C47.9659 127.304 49.046 127.09 50.2856 127.117C51.2335 127.135 52.0493 127.308 52.7328 127.636C53.4164 127.955 53.9815 128.388 54.4282 128.935C54.8748 129.482 55.2166 130.111 55.4536 130.822C55.6996 131.533 55.85 132.289 55.9047 133.092C55.9594 133.894 55.9366 134.705 55.8364 135.525ZM50.7231 139.736L51.434 134.91C51.4614 134.636 51.4933 134.322 51.5297 133.967C51.5662 133.611 51.5753 133.247 51.5571 132.873C51.548 132.49 51.4933 132.135 51.393 131.806C51.3019 131.478 51.1424 131.209 50.9145 131C50.6957 130.781 50.3858 130.663 49.9848 130.644C49.4197 130.617 48.9503 130.74 48.5766 131.013C48.212 131.287 47.9203 131.651 47.7016 132.107C47.4828 132.554 47.3142 133.032 47.1957 133.543C47.0864 134.044 46.9998 134.504 46.936 134.924L46.225 139.736C46.1977 140.01 46.1658 140.329 46.1293 140.693C46.0929 141.049 46.0792 141.418 46.0883 141.801C46.0974 142.183 46.1476 142.539 46.2387 142.867C46.339 143.195 46.503 143.469 46.7309 143.687C46.9588 143.897 47.2732 144.015 47.6743 144.043C48.2394 144.07 48.7042 143.947 49.0688 143.674C49.4425 143.391 49.7387 143.026 49.9575 142.58C50.1762 142.124 50.3403 141.641 50.4496 141.131C50.5681 140.62 50.6593 140.155 50.7231 139.736ZM76.1949 143.605L75.5523 147.297H65.23L65.8726 143.605H76.1949ZM70.3707 127.39L66.9117 147.297H62.2359L65.6812 127.39H70.3707ZM76.3043 135.293L75.689 138.861H66.6929L67.3218 135.293H76.3043ZM79.0386 127.39L78.3961 131.095H68.0328L68.689 127.39H79.0386ZM90.8107 127.39H95.4864L93.2716 140.379C93.0528 141.901 92.5561 143.204 91.7814 144.289C91.0157 145.373 90.0268 146.198 88.8146 146.763C87.6023 147.329 86.2306 147.602 84.6993 147.584C83.2775 147.556 82.0333 147.251 80.9669 146.668C79.9096 146.084 79.1167 145.26 78.588 144.193C78.0594 143.127 77.8816 141.86 78.0548 140.392L80.2696 127.39H84.9591L82.7579 140.406C82.685 141.008 82.6896 141.568 82.7716 142.088C82.8627 142.607 83.0815 143.031 83.4278 143.359C83.7742 143.687 84.2937 143.86 84.9864 143.879C85.7247 143.906 86.34 143.769 86.8321 143.469C87.3334 143.168 87.7254 142.748 88.0079 142.211C88.2996 141.673 88.4956 141.067 88.5958 140.392L90.8107 127.39ZM97.8112 127.39L105.18 127.404C106.393 127.422 107.509 127.641 108.53 128.06C109.551 128.48 110.353 129.122 110.936 129.988C111.52 130.845 111.766 131.943 111.674 133.283C111.592 134.386 111.346 135.316 110.936 136.072C110.526 136.819 109.97 137.457 109.268 137.986C108.566 138.515 107.742 138.984 106.794 139.394L105.098 140.269H98.4811L99.11 136.564L103.608 136.592C104.21 136.582 104.743 136.464 105.208 136.236C105.682 136.008 106.069 135.685 106.37 135.265C106.671 134.846 106.862 134.336 106.944 133.734C107.017 133.242 106.999 132.804 106.889 132.422C106.78 132.03 106.57 131.72 106.26 131.492C105.951 131.264 105.54 131.136 105.03 131.109L101.858 131.095L99.0417 147.297H94.3659L97.8112 127.39ZM105.044 147.297L102.296 138.492L107.04 138.465L110.034 147.064V147.297H105.044Z" fill="white"/>
<path opacity="0.6" d="M34.7771 110.461L34.3768 113H24.7381L25.0896 110.734L30.1482 106.037C30.4217 105.77 30.7146 105.471 31.0271 105.139C31.3396 104.807 31.6163 104.452 31.8572 104.074C32.1046 103.69 32.2576 103.299 32.3162 102.902C32.3553 102.603 32.3488 102.316 32.2967 102.043C32.2511 101.77 32.1372 101.545 31.9549 101.369C31.7791 101.187 31.5154 101.092 31.1639 101.086C30.7602 101.073 30.4217 101.184 30.1482 101.418C29.8813 101.652 29.673 101.945 29.5232 102.297C29.38 102.648 29.2856 102.997 29.24 103.342L26.0467 103.361C26.0923 102.417 26.3689 101.584 26.8768 100.861C27.3911 100.139 28.0454 99.5723 28.8396 99.1621C29.6404 98.752 30.5031 98.5534 31.4275 98.5664C32.2674 98.5794 33.0161 98.7389 33.6736 99.0449C34.3377 99.3509 34.8488 99.8034 35.2068 100.402C35.5649 101.001 35.7081 101.747 35.6365 102.639C35.5844 103.257 35.4217 103.83 35.1482 104.357C34.8813 104.885 34.546 105.38 34.1424 105.842C33.7452 106.298 33.3188 106.734 32.8631 107.15C32.4139 107.561 31.9809 107.961 31.5643 108.352L29.4061 110.441L34.7771 110.461ZM46.5061 104.592L46.1057 107.18C45.995 107.961 45.8029 108.716 45.5295 109.445C45.2561 110.168 44.8915 110.816 44.4357 111.389C43.9865 111.962 43.4331 112.411 42.7756 112.736C42.1245 113.062 41.3531 113.215 40.4611 113.195C39.7841 113.182 39.2014 113.062 38.7131 112.834C38.2248 112.6 37.8179 112.287 37.4924 111.896C37.1734 111.506 36.926 111.057 36.7502 110.549C36.5809 110.041 36.4768 109.501 36.4377 108.928C36.3986 108.355 36.4149 107.775 36.4865 107.189L36.8772 104.592C36.9943 103.811 37.1897 103.059 37.4631 102.336C37.7365 101.607 38.1011 100.956 38.5568 100.383C39.0126 99.8099 39.5692 99.3639 40.2268 99.0449C40.8843 98.7194 41.6558 98.5664 42.5412 98.5859C43.2183 98.599 43.801 98.7227 44.2893 98.957C44.7775 99.1849 45.1812 99.4941 45.5002 99.8848C45.8192 100.275 46.0633 100.725 46.2326 101.232C46.4084 101.74 46.5158 102.281 46.5549 102.854C46.5939 103.426 46.5777 104.006 46.5061 104.592ZM42.8537 107.6L43.3615 104.152C43.3811 103.957 43.4038 103.732 43.4299 103.479C43.4559 103.225 43.4624 102.964 43.4494 102.697C43.4429 102.424 43.4038 102.17 43.3322 101.936C43.2671 101.701 43.1532 101.509 42.9904 101.359C42.8342 101.203 42.6128 101.118 42.3264 101.105C41.9227 101.086 41.5874 101.174 41.3205 101.369C41.0601 101.564 40.8518 101.825 40.6955 102.15C40.5393 102.469 40.4188 102.811 40.3342 103.176C40.2561 103.534 40.1942 103.863 40.1486 104.162L39.6408 107.6C39.6213 107.795 39.5985 108.023 39.5725 108.283C39.5464 108.537 39.5367 108.801 39.5432 109.074C39.5497 109.348 39.5855 109.602 39.6506 109.836C39.7222 110.07 39.8394 110.266 40.0022 110.422C40.1649 110.572 40.3895 110.656 40.676 110.676C41.0796 110.695 41.4117 110.607 41.6721 110.412C41.939 110.21 42.1506 109.95 42.3068 109.631C42.4631 109.305 42.5803 108.96 42.6584 108.596C42.743 108.231 42.8081 107.899 42.8537 107.6ZM57.3561 104.592L56.9557 107.18C56.845 107.961 56.6529 108.716 56.3795 109.445C56.1061 110.168 55.7415 110.816 55.2857 111.389C54.8365 111.962 54.2831 112.411 53.6256 112.736C52.9745 113.062 52.2031 113.215 51.3111 113.195C50.6341 113.182 50.0514 113.062 49.5631 112.834C49.0748 112.6 48.6679 112.287 48.3424 111.896C48.0234 111.506 47.776 111.057 47.6002 110.549C47.4309 110.041 47.3268 109.501 47.2877 108.928C47.2486 108.355 47.2649 107.775 47.3365 107.189L47.7271 104.592C47.8443 103.811 48.0396 103.059 48.3131 102.336C48.5865 101.607 48.9511 100.956 49.4068 100.383C49.8626 99.8099 50.4192 99.3639 51.0768 99.0449C51.7343 98.7194 52.5058 98.5664 53.3912 98.5859C54.0683 98.599 54.651 98.7227 55.1393 98.957C55.6275 99.1849 56.0312 99.4941 56.3502 99.8848C56.6692 100.275 56.9133 100.725 57.0826 101.232C57.2584 101.74 57.3658 102.281 57.4049 102.854C57.4439 103.426 57.4277 104.006 57.3561 104.592ZM53.7037 107.6L54.2115 104.152C54.2311 103.957 54.2538 103.732 54.2799 103.479C54.3059 103.225 54.3124 102.964 54.2994 102.697C54.2929 102.424 54.2538 102.17 54.1822 101.936C54.1171 101.701 54.0032 101.509 53.8404 101.359C53.6842 101.203 53.4628 101.118 53.1764 101.105C52.7727 101.086 52.4374 101.174 52.1705 101.369C51.9101 101.564 51.7018 101.825 51.5455 102.15C51.3893 102.469 51.2688 102.811 51.1842 103.176C51.1061 103.534 51.0442 103.863 50.9986 104.162L50.4908 107.6C50.4713 107.795 50.4485 108.023 50.4225 108.283C50.3964 108.537 50.3867 108.801 50.3932 109.074C50.3997 109.348 50.4355 109.602 50.5006 109.836C50.5722 110.07 50.6894 110.266 50.8521 110.422C51.0149 110.572 51.2395 110.656 51.526 110.676C51.9296 110.695 52.2617 110.607 52.5221 110.412C52.789 110.21 53.0006 109.95 53.1568 109.631C53.3131 109.305 53.4303 108.96 53.5084 108.596C53.593 108.231 53.6581 107.899 53.7037 107.6ZM71.8979 110.363L71.4389 113H64.0658L64.5248 110.363H71.8979ZM67.7377 98.7812L65.267 113H61.9272L64.3881 98.7812H67.7377ZM71.976 104.426L71.5365 106.975H65.1107L65.56 104.426H71.976ZM73.9291 98.7812L73.4701 101.428H66.0678L66.5365 98.7812H73.9291ZM82.3377 98.7812H85.6775L84.0955 108.059C83.9393 109.146 83.5844 110.077 83.0311 110.852C82.4842 111.626 81.7778 112.215 80.9119 112.619C80.046 113.023 79.0662 113.218 77.9725 113.205C76.9568 113.186 76.0682 112.967 75.3064 112.551C74.5512 112.134 73.9848 111.545 73.6072 110.783C73.2296 110.021 73.1027 109.117 73.2264 108.068L74.8084 98.7812H78.158L76.5857 108.078C76.5337 108.508 76.5369 108.908 76.5955 109.279C76.6606 109.65 76.8169 109.953 77.0643 110.188C77.3117 110.422 77.6827 110.546 78.1775 110.559C78.7049 110.578 79.1443 110.48 79.4959 110.266C79.854 110.051 80.1339 109.751 80.3357 109.367C80.5441 108.983 80.684 108.55 80.7557 108.068L82.3377 98.7812ZM87.3381 98.7812L92.6018 98.791C93.4676 98.804 94.2652 98.9603 94.9943 99.2598C95.7235 99.5592 96.2964 100.018 96.7131 100.637C97.1298 101.249 97.3055 102.033 97.2404 102.99C97.1818 103.778 97.0061 104.442 96.7131 104.982C96.4201 105.516 96.023 105.972 95.5217 106.35C95.0204 106.727 94.4312 107.062 93.7541 107.355L92.5432 107.98H87.8166L88.2658 105.334L91.4787 105.354C91.9084 105.347 92.2893 105.262 92.6213 105.1C92.9598 104.937 93.2365 104.706 93.4514 104.406C93.6662 104.107 93.8029 103.742 93.8615 103.312C93.9136 102.961 93.9006 102.648 93.8225 102.375C93.7443 102.095 93.5946 101.874 93.3732 101.711C93.1519 101.548 92.8589 101.457 92.4943 101.438L90.2287 101.428L88.217 113H84.8772L87.3381 98.7812ZM92.5041 113L90.5412 106.711L93.9299 106.691L96.0686 112.834V113H92.5041Z" fill="white"/>
<path d="M105.484 99.3213L18 111.03L18.213 112.613L105.697 100.905L105.484 99.3213Z" fill="#FF8080"/>
<path d="M48.8799 76.2721L48.1592 80.8424H30.8096L31.4424 76.7643L40.5479 68.3092C41.04 67.8287 41.5674 67.2897 42.1299 66.692C42.6924 66.0944 43.1904 65.4557 43.624 64.776C44.0693 64.0846 44.3447 63.3815 44.4502 62.6666C44.5205 62.1276 44.5088 61.6119 44.415 61.1198C44.333 60.6276 44.1279 60.2233 43.7998 59.9069C43.4834 59.5787 43.0088 59.4088 42.376 59.3971C41.6494 59.3737 41.04 59.5729 40.5479 59.9948C40.0674 60.4166 39.6924 60.944 39.4229 61.5768C39.165 62.2096 38.9951 62.8365 38.9131 63.4576L33.165 63.4928C33.2471 61.7936 33.7451 60.2936 34.6592 58.9928C35.585 57.692 36.7627 56.6725 38.1924 55.9342C39.6338 55.1959 41.1865 54.8385 42.8506 54.8619C44.3623 54.8854 45.71 55.1725 46.8936 55.7233C48.0889 56.274 49.0088 57.0885 49.6533 58.1666C50.2979 59.2448 50.5557 60.5865 50.4268 62.192C50.333 63.3053 50.04 64.3365 49.5479 65.2858C49.0674 66.235 48.4639 67.1256 47.7373 67.9576C47.0225 68.778 46.2549 69.5631 45.4346 70.3131C44.626 71.0514 43.8467 71.7721 43.0967 72.4752L39.2119 76.2369L48.8799 76.2721ZM70.7119 65.7076L69.9912 70.3658C69.792 71.7721 69.4463 73.1315 68.9541 74.444C68.4619 75.7448 67.8057 76.9108 66.9854 77.942C66.1768 78.9733 65.1807 79.7819 63.9971 80.3678C62.8252 80.9537 61.4365 81.2291 59.8311 81.194C58.6123 81.1705 57.5635 80.9537 56.6846 80.5436C55.8057 80.1217 55.0732 79.5592 54.4873 78.8561C53.9131 78.153 53.4678 77.3444 53.1514 76.4303C52.8467 75.5162 52.6592 74.5436 52.5889 73.5123C52.5186 72.4811 52.5479 71.4381 52.6768 70.3834L53.3799 65.7076C53.5908 64.3014 53.9424 62.9479 54.4346 61.6471C54.9268 60.3346 55.583 59.1627 56.4033 58.1315C57.2236 57.1002 58.2256 56.2975 59.4092 55.7233C60.5928 55.1373 61.9814 54.8619 63.5752 54.8971C64.7939 54.9205 65.8428 55.1432 66.7217 55.5651C67.6006 55.9752 68.3271 56.5319 68.9014 57.235C69.4756 57.9381 69.915 58.7467 70.2197 59.6608C70.5361 60.5748 70.7295 61.5475 70.7998 62.5787C70.8701 63.61 70.8408 64.653 70.7119 65.7076ZM64.1377 71.1217L65.0518 64.9166C65.0869 64.5651 65.1279 64.1608 65.1748 63.7037C65.2217 63.2467 65.2334 62.778 65.21 62.2975C65.1982 61.8053 65.1279 61.3483 64.999 60.9264C64.8818 60.5045 64.6768 60.1588 64.3838 59.8893C64.1025 59.608 63.7041 59.4557 63.1885 59.4323C62.4619 59.3971 61.8584 59.5553 61.3779 59.9069C60.9092 60.2584 60.5342 60.7272 60.2529 61.3131C59.9717 61.8873 59.7549 62.5026 59.6025 63.1588C59.4619 63.8033 59.3506 64.3951 59.2686 64.9342L58.3545 71.1217C58.3193 71.4733 58.2783 71.8834 58.2314 72.3522C58.1846 72.8092 58.167 73.2838 58.1787 73.776C58.1904 74.2682 58.2549 74.7252 58.3721 75.1471C58.501 75.569 58.7119 75.9205 59.0049 76.2018C59.2979 76.4713 59.7021 76.6237 60.2178 76.6588C60.9443 76.694 61.542 76.5358 62.0107 76.1842C62.4912 75.8209 62.8721 75.3522 63.1533 74.778C63.4346 74.192 63.6455 73.5709 63.7861 72.9147C63.9385 72.2584 64.0557 71.6608 64.1377 71.1217ZM74.5615 61.524L74.6494 60.1705C74.7549 59.0807 75.0771 58.1373 75.6162 57.3405C76.1553 56.5319 76.8584 55.9166 77.7256 55.4948C78.6045 55.0612 79.5889 54.8561 80.6787 54.8795C81.7334 54.8912 82.6475 55.1198 83.4209 55.5651C84.2061 56.0104 84.8037 56.6256 85.2139 57.4108C85.6357 58.1959 85.8115 59.1158 85.7412 60.1705L85.6357 61.524C85.5303 62.6139 85.208 63.5573 84.6689 64.3541C84.1299 65.151 83.4268 65.7604 82.5596 66.1823C81.6924 66.6041 80.7197 66.8033 79.6416 66.7799C78.5986 66.7682 77.6846 66.5455 76.8994 66.1119C76.1143 65.6666 75.5107 65.0514 75.0889 64.2662C74.6787 63.4811 74.5029 62.567 74.5615 61.524ZM78.4463 60.1705L78.2705 61.5944C78.2471 61.9225 78.2705 62.2389 78.3408 62.5436C78.4229 62.8483 78.5693 63.1002 78.7803 63.2994C78.9912 63.4869 79.29 63.5865 79.6768 63.5983C80.0869 63.61 80.4385 63.5221 80.7314 63.3346C81.0361 63.1354 81.2822 62.8776 81.4697 62.5612C81.6572 62.233 81.7861 61.8873 81.8564 61.524L82.0498 60.153C82.085 59.8131 82.0674 59.485 81.9971 59.1686C81.9268 58.8522 81.7803 58.5944 81.5576 58.3951C81.3467 58.1842 81.042 58.0729 80.6436 58.0612C80.2334 58.0494 79.876 58.1432 79.5713 58.3424C79.2666 58.5416 79.0205 58.8053 78.833 59.1334C78.6455 59.4615 78.5166 59.8073 78.4463 60.1705ZM83.8428 75.9205L83.9482 74.567C84.042 73.4772 84.3643 72.5338 84.915 71.7369C85.4658 70.9401 86.1748 70.3307 87.042 69.9088C87.9209 69.4752 88.9053 69.2643 89.9951 69.276C91.0498 69.2994 91.9639 69.5338 92.7373 69.9791C93.5225 70.4127 94.1201 71.0221 94.5303 71.8073C94.9404 72.5924 95.1162 73.5123 95.0576 74.567L94.9521 75.9205C94.8467 77.0104 94.5244 77.9596 93.9854 78.7682C93.458 79.5651 92.7549 80.1803 91.876 80.6139C91.0088 81.0358 90.0361 81.235 88.958 81.2115C87.9033 81.1881 86.9834 80.9596 86.1982 80.526C85.4131 80.0807 84.8096 79.4655 84.3877 78.6803C83.9658 77.8834 83.7842 76.9635 83.8428 75.9205ZM87.7451 74.567L87.5869 75.9908C87.5635 76.3073 87.5928 76.6178 87.6748 76.9225C87.7686 77.2272 87.9209 77.485 88.1318 77.6959C88.3545 77.8951 88.6416 78.0006 88.9932 78.0123C89.4502 78.0358 89.8252 77.9596 90.1182 77.7838C90.4229 77.5963 90.6631 77.3385 90.8389 77.0104C91.0146 76.6823 91.1318 76.319 91.1904 75.9205L91.3838 74.5494C91.4072 74.2096 91.3838 73.8873 91.3135 73.5826C91.2432 73.2662 91.0967 73.0084 90.874 72.8092C90.6631 72.5983 90.3643 72.4869 89.9775 72.4752C89.5674 72.4635 89.2041 72.5573 88.8877 72.7565C88.583 72.944 88.3311 73.2018 88.1318 73.5299C87.9443 73.8463 87.8154 74.192 87.7451 74.567ZM93.7568 59.0983L78.3408 78.8912L75.6338 77.3619L91.0674 57.5865L93.7568 59.0983Z" fill="white"/>
<defs>
<radialGradient id="paint0_radial_3355_1939" cx="0" cy="0" r="1" gradientUnits="userSpaceOnUse" gradientTransform="translate(61.6579 99.4644) scale(82.9064 82.6877)">
<stop stop-color="#E52D16"/>
<stop offset="0.6097" stop-color="#E4262B"/>
<stop offset="1" stop-color="#E42328"/>
</radialGradient>
</defs>
</svg>
