<svg width="327" height="125" viewBox="0 0 327 125" fill="none" xmlns="http://www.w3.org/2000/svg">
<rect width="300" height="88" transform="translate(0 37)" fill="#E4262B"/>
<path d="M21.583 70.296H34.831C40.411 70.296 43.003 72.42 43.003 77.028C43.003 80.772 40.699 83.508 36.991 84.12V84.192C38.719 84.696 39.655 85.92 39.655 89.088C39.655 90.06 39.583 91.716 39.583 93.012C39.583 94.02 39.619 95.028 40.015 96H32.455C32.203 95.352 32.131 94.92 32.131 93.552C32.131 92.544 32.527 90.384 32.527 89.376C32.527 87.9 31.267 87.036 29.467 87.036H25.903L24.031 96H16.255L21.583 70.296ZM32.491 76.416H28.135L27.055 81.528H31.339C33.499 81.528 35.083 80.412 35.083 78.648C35.083 77.28 34.039 76.416 32.491 76.416ZM55.3946 70.296H63.1706L67.1666 96H59.3906L58.9586 92.328H50.5706L48.5906 96H40.5266L55.3946 70.296ZM57.4466 79.116L53.4506 86.82H58.3826L57.5186 79.116H57.4466ZM82.6711 69.684C89.1511 69.684 92.8951 72.456 92.8951 77.892V78.072H85.5871C85.5871 76.2 84.4711 75.372 82.3831 75.372C80.4751 75.372 79.3231 76.164 79.3231 77.424C79.3231 78.612 80.4391 79.152 83.8591 79.908C86.0911 80.376 87.9631 81.204 89.4391 82.464C90.9511 83.724 91.6711 85.38 91.6711 87.504C91.6711 93.48 85.9471 96.612 80.0791 96.612C74.5351 96.612 69.1711 94.2 69.1711 87.864V87.36H76.8391C76.9831 89.556 77.3071 90.924 80.4751 90.924C82.6711 90.924 84.1831 89.952 84.1831 88.44C84.1831 87.216 83.1391 86.568 79.3591 85.56C73.7431 84.048 71.8351 81.6 71.8351 78.144C71.8351 72.528 77.2351 69.684 82.6711 69.684ZM98.2948 70.296H111.147C115.863 70.296 118.815 73.068 118.815 78.576C118.815 84.552 113.415 88.224 107.943 88.224H102.363L100.743 96H92.9308L98.2948 70.296ZM107.619 76.884H104.775L103.659 82.104H106.863C109.419 82.104 110.895 81.204 110.895 79.188C110.895 77.64 109.779 76.884 107.619 76.884ZM123.606 70.296H136.854C142.434 70.296 145.026 72.42 145.026 77.028C145.026 80.772 142.722 83.508 139.014 84.12V84.192C140.742 84.696 141.678 85.92 141.678 89.088C141.678 90.06 141.606 91.716 141.606 93.012C141.606 94.02 141.642 95.028 142.038 96H134.478C134.226 95.352 134.154 94.92 134.154 93.552C134.154 92.544 134.55 90.384 134.55 89.376C134.55 87.9 133.29 87.036 131.49 87.036H127.926L126.054 96H118.278L123.606 70.296ZM134.514 76.416H130.158L129.078 81.528H133.362C135.522 81.528 137.106 80.412 137.106 78.648C137.106 77.28 136.062 76.416 134.514 76.416ZM161.162 69.684C168.866 69.684 172.826 73.608 172.826 80.952C172.826 89.7 167.03 96.612 158.39 96.612C150.974 96.612 146.69 92.544 146.69 85.344C146.69 77.172 151.982 69.684 161.162 69.684ZM154.61 85.488C154.61 88.512 156.014 90.204 158.606 90.204C163.25 90.204 164.906 84.804 164.906 80.808C164.906 77.892 163.538 76.092 160.874 76.092C156.302 76.092 154.61 81.528 154.61 85.488ZM178.834 70.296H190.534C196.33 70.296 200.938 73.968 200.938 80.808C200.938 90.24 194.746 96 186.358 96H173.47L178.834 70.296ZM188.482 76.884H185.422L182.794 89.412H186.754C190.894 89.412 192.982 85.416 192.982 81.672C192.982 78.36 191.578 76.884 188.482 76.884ZM214.09 70.296H221.866L225.862 96H218.086L217.654 92.328H209.266L207.286 96H199.222L214.09 70.296ZM216.142 79.116L212.146 86.82H217.078L216.214 79.116H216.142ZM232.87 70.296H240.718L245.542 84.336H245.614L248.494 70.296H256.018L250.618 96H242.842L238.126 81.6H238.054L235.066 96H227.542L232.87 70.296ZM271.131 69.684C278.835 69.684 282.795 73.608 282.795 80.952C282.795 89.7 276.999 96.612 268.359 96.612C260.943 96.612 256.659 92.544 256.659 85.344C256.659 77.172 261.951 69.684 271.131 69.684ZM264.579 85.488C264.579 88.512 265.983 90.204 268.575 90.204C273.219 90.204 274.875 84.804 274.875 80.808C274.875 77.892 273.507 76.092 270.843 76.092C266.271 76.092 264.579 81.528 264.579 85.488Z" fill="white"/>
<g clip-path="url(#clip0_4402_1975)">
<path d="M253.97 57.384C253.97 57.384 248.988 61.9065 247.742 62.3859C246.496 62.862 258.21 64.2935 261.205 62.3859C264.189 60.4783 265.441 60.73 267.181 60.3661C268.93 60.0057 268.678 58.0981 267.181 58.3361C265.69 58.5741 264.945 56.908 264.189 57.384C263.447 57.8601 266.187 54.2863 275.161 52.6202C284.128 50.954 290.117 51.4301 297.09 52.6202C304.074 53.8137 324.261 51.4301 327.004 47.3837C327.004 47.3837 311.799 48.5704 304.567 45.7141C297.342 42.8578 280.737 43.7521 273.479 46.9212C266.811 49.8285 263.195 52.3924 261.943 53.8171C261.943 53.8171 258.227 44.7654 251.479 41.1917C242.119 36.234 239.527 32.6195 226.759 32.7725C219.279 32.8643 207.388 27.2538 204.87 22.6157C203.836 20.7115 201.466 28.7975 214.26 36.064C214.26 36.064 223.083 42.8442 239.02 45.9521C254.01 48.8832 255.37 56.1429 253.97 57.384V57.384Z" fill="#1D3456"/>
<path d="M277.45 25.1556C277.45 25.1556 281.029 28.3995 281.922 28.7395C282.818 29.0864 274.408 30.1065 272.263 28.7395C270.121 27.3726 269.225 27.5528 267.972 27.2944C266.72 27.036 266.901 25.6656 267.972 25.8391C269.04 26.0091 269.58 24.8156 270.121 25.1556C270.655 25.4956 268.687 22.9352 262.248 21.7349C255.812 20.5414 251.512 20.878 246.513 21.7349C241.5 22.5918 227.014 20.878 225.043 17.9775C225.043 17.9775 235.954 18.831 241.141 16.7806C246.328 14.7302 258.246 15.3763 263.453 17.6443C268.241 19.7321 270.833 21.5717 271.729 22.5952C271.729 22.5952 274.398 16.0971 279.239 13.5333C285.957 9.97655 287.817 7.3821 296.979 7.49091C302.347 7.55892 310.878 3.52614 312.688 0.204019C313.43 -1.16291 315.132 4.63804 305.95 9.85414C305.95 9.85414 299.618 14.7166 288.183 16.9506C277.426 19.0554 276.449 24.2647 277.453 25.1556H277.45Z" fill="#1D3456"/>
</g>
<rect y="120" width="300" height="5" fill="#1D3456"/>
<defs>
<clipPath id="clip0_4402_1975">
<rect width="123" height="67" fill="white" transform="translate(204)"/>
</clipPath>
</defs>
</svg>
