<svg width="327" height="125" viewBox="0 0 327 125" fill="none" xmlns="http://www.w3.org/2000/svg">
<rect width="300" height="88" transform="translate(0 37)" fill="#E4262B"/>
<path d="M66.6574 69.684C73.1374 69.684 76.8814 72.456 76.8814 77.892V78.072H69.5734C69.5734 76.2 68.4574 75.372 66.3694 75.372C64.4614 75.372 63.3094 76.164 63.3094 77.424C63.3094 78.612 64.4254 79.152 67.8454 79.908C70.0774 80.376 71.9494 81.204 73.4254 82.464C74.9374 83.724 75.6574 85.38 75.6574 87.504C75.6574 93.48 69.9334 96.612 64.0654 96.612C58.5214 96.612 53.1574 94.2 53.1574 87.864V87.36H60.8254C60.9694 89.556 61.2934 90.924 64.4614 90.924C66.6574 90.924 68.1694 89.952 68.1694 88.44C68.1694 87.216 67.1254 86.568 63.3454 85.56C57.7294 84.048 55.8214 81.6 55.8214 78.144C55.8214 72.528 61.2214 69.684 66.6574 69.684ZM93.1171 69.684C100.821 69.684 104.781 73.608 104.781 80.952C104.781 89.7 98.9851 96.612 90.3451 96.612C82.9291 96.612 78.6451 92.544 78.6451 85.344C78.6451 77.172 83.9371 69.684 93.1171 69.684ZM86.5651 85.488C86.5651 88.512 87.9691 90.204 90.5611 90.204C95.2051 90.204 96.8611 84.804 96.8611 80.808C96.8611 77.892 95.4931 76.092 92.8291 76.092C88.2571 76.092 86.5651 81.528 86.5651 85.488ZM110.969 70.296H118.889L114.929 89.412H126.305L124.937 96H105.641L110.969 70.296ZM132.797 70.296H144.497C150.293 70.296 154.901 73.968 154.901 80.808C154.901 90.24 148.709 96 140.321 96H127.433L132.797 70.296ZM142.445 76.884H139.385L136.757 89.412H140.717C144.857 89.412 146.945 85.416 146.945 81.672C146.945 78.36 145.541 76.884 142.445 76.884ZM183.82 69.684C191.524 69.684 195.484 73.608 195.484 80.952C195.484 89.7 189.688 96.612 181.048 96.612C173.632 96.612 169.348 92.544 169.348 85.344C169.348 77.172 174.64 69.684 183.82 69.684ZM177.268 85.488C177.268 88.512 178.672 90.204 181.264 90.204C185.908 90.204 187.564 84.804 187.564 80.808C187.564 77.892 186.196 76.092 183.532 76.092C178.96 76.092 177.268 81.528 177.268 85.488ZM201.493 70.296H209.413L206.821 82.824C206.677 83.544 206.065 86.352 206.065 87.216C206.065 89.052 207.001 90.204 209.089 90.204C211.609 90.204 213.049 88.692 213.949 84.408L216.901 70.296H224.821L221.293 87.324C220.033 93.372 215.533 96.612 208.693 96.612C201.601 96.612 197.821 93.372 197.821 88.8C197.821 88.548 197.965 87.252 198.073 86.676L201.493 70.296ZM227.189 70.296H249.365L247.997 76.884H240.869L236.909 96H228.989L232.949 76.884H225.821L227.189 70.296Z" fill="white"/>
<g clip-path="url(#clip0_4402_1986)">
<path d="M253.97 57.384C253.97 57.384 248.988 61.9065 247.742 62.3859C246.496 62.8619 258.21 64.2935 261.205 62.3859C264.189 60.4783 265.441 60.7299 267.181 60.3661C268.93 60.0057 268.678 58.0981 267.181 58.3361C265.69 58.5741 264.945 56.908 264.189 57.384C263.447 57.8601 266.187 54.2863 275.161 52.6202C284.128 50.954 290.117 51.4301 297.09 52.6202C304.074 53.8137 324.261 51.4301 327.004 47.3837C327.004 47.3837 311.799 48.5704 304.567 45.7141C297.342 42.8578 280.737 43.7521 273.479 46.9212C266.811 49.8285 263.195 52.3923 261.943 53.8171C261.943 53.8171 258.227 44.7654 251.479 41.1917C242.119 36.234 239.527 32.6195 226.759 32.7725C219.279 32.8643 207.388 27.2537 204.87 22.6157C203.836 20.7115 201.466 28.7975 214.26 36.064C214.26 36.064 223.083 42.8442 239.02 45.9521C254.01 48.8832 255.37 56.1429 253.97 57.384V57.384Z" fill="#1D3456"/>
<path d="M277.45 25.1556C277.45 25.1556 281.029 28.3995 281.922 28.7395C282.818 29.0864 274.408 30.1065 272.263 28.7395C270.121 27.3726 269.225 27.5528 267.972 27.2944C266.72 27.036 266.901 25.6656 267.972 25.8391C269.04 26.0091 269.58 24.8156 270.121 25.1556C270.655 25.4956 268.687 22.9352 262.248 21.7349C255.812 20.5414 251.512 20.878 246.513 21.7349C241.5 22.5918 227.014 20.878 225.043 17.9775C225.043 17.9775 235.954 18.831 241.141 16.7806C246.328 14.7302 258.246 15.3763 263.453 17.6443C268.241 19.7321 270.833 21.5717 271.729 22.5952C271.729 22.5952 274.398 16.0971 279.239 13.5333C285.957 9.97655 287.817 7.3821 296.979 7.49091C302.347 7.55892 310.878 3.52613 312.688 0.204015C313.43 -1.16292 315.132 4.63804 305.95 9.85414C305.95 9.85414 299.618 14.7166 288.183 16.9506C277.426 19.0554 276.449 24.2647 277.453 25.1556H277.45Z" fill="#1D3456"/>
</g>
<rect y="120" width="300" height="5" fill="#1D3456"/>
<defs>
<clipPath id="clip0_4402_1986">
<rect width="123" height="67" fill="white" transform="translate(204)"/>
</clipPath>
</defs>
</svg>
