<svg width="182" height="182" viewBox="0 0 182 182" fill="none" xmlns="http://www.w3.org/2000/svg">
<circle cx="90.5118" cy="90.5119" r="73.5" transform="rotate(-14.2135 90.5118 90.5119)" fill="#B0C7CE" stroke="white" stroke-width="2"/>
<path d="M65.8228 75.8636L62.6849 63.4748L68.1639 62.087C68.7339 61.9426 69.2883 61.9322 69.8271 62.0557C70.3746 62.1646 70.8729 62.3726 71.3221 62.6797C71.7683 62.9752 72.1536 63.348 72.4781 63.7981C72.7996 64.2366 73.0237 64.7059 73.1504 65.2061C73.3537 66.0088 73.3357 66.7932 73.0965 67.5594C72.866 68.311 72.4444 68.9191 71.8318 69.3838L75.8386 73.3267L73.134 74.0117L69.552 70.4997L67.1789 71.1008L68.2308 75.2536L65.8228 75.8636ZM66.6441 68.9895L69.6628 68.2249C69.8838 68.1689 70.0742 68.065 70.2338 67.9131C70.405 67.7583 70.5383 67.576 70.6337 67.3662C70.7262 67.1447 70.7822 66.9015 70.8017 66.6366C70.8213 66.3717 70.7957 66.0996 70.725 65.8205C70.6513 65.5296 70.537 65.2739 70.3821 65.0532C70.2271 64.8324 70.0461 64.6555 69.8391 64.5222C69.6407 64.3744 69.4251 64.2805 69.1921 64.2405C68.9678 64.1859 68.751 64.1851 68.5416 64.2381L65.6276 64.9762L66.6441 68.9895ZM85.4947 68.6341L86.0294 70.7454L77.4271 72.9243L74.2891 60.5355L82.7344 58.3964L83.2692 60.5077L77.2319 62.037L77.9876 65.0207L83.2049 63.6992L83.6999 65.6535L78.4826 66.975L79.3003 70.2031L85.4947 68.6341ZM88.2934 56.9884L90.4222 56.4492L98.2714 67.6446L95.7936 68.2722L93.8597 65.4755L89.5324 66.5715L89.1805 69.9473L86.7027 70.5749L88.2934 56.9884ZM92.9948 63.8934L90.0517 59.4583L89.505 64.7773L92.9948 63.8934ZM99.6302 67.3005L96.4923 54.9117L100.994 53.7714C102.006 53.5151 102.931 53.454 103.77 53.5882C104.62 53.7195 105.372 53.9994 106.025 54.4282C106.679 54.8569 107.229 55.4169 107.676 56.1082C108.121 56.7879 108.451 57.5523 108.666 58.4015C108.904 59.3437 108.976 60.2356 108.879 61.077C108.792 61.9038 108.549 62.6584 108.153 63.3406C107.753 64.0113 107.214 64.5936 106.534 65.0875C105.863 65.5669 105.063 65.9245 104.132 66.1602L99.6302 67.3005ZM106.24 59.0158C106.09 58.4226 105.87 57.8964 105.581 57.4375C105.291 56.9785 104.944 56.6085 104.538 56.3275C104.133 56.0464 103.672 55.8659 103.157 55.786C102.653 55.7032 102.111 55.7354 101.529 55.8828L99.435 56.4131L101.503 64.5792L103.597 64.0489C104.191 63.8986 104.688 63.6613 105.088 63.337C105.5 63.0098 105.812 62.6275 106.023 62.1903C106.243 61.7385 106.371 61.2419 106.407 60.7004C106.443 60.159 106.388 59.5974 106.24 59.0158ZM57.9268 93.7478L53.9659 94.7511L56.5691 105.028L54.1786 105.634L51.5754 95.3565L47.6145 96.3598L47.0797 94.2485L57.3921 91.6365L57.9268 93.7478ZM69.3471 88.6084L72.485 100.997L70.0945 101.603L68.7554 96.3156L63.1368 97.7387L64.4759 103.026L62.068 103.636L58.93 91.2469L61.338 90.637L62.6064 95.6449L68.225 94.2217L66.9566 89.2139L69.3471 88.6084ZM83.1371 96.0523L83.6719 98.1636L75.0695 100.343L71.9316 87.9538L80.3769 85.8146L80.9116 87.926L74.8743 89.4552L75.6301 92.4389L80.8473 91.1175L81.3423 93.0717L76.1251 94.3932L76.9427 97.6213L83.1371 96.0523ZM98.913 90.9052C99.0456 91.4287 99.0573 91.9147 98.9481 92.3632C98.8388 92.8118 98.632 93.2169 98.3275 93.5788C98.0347 93.9377 97.6617 94.2488 97.2084 94.5121C96.7669 94.7725 96.2727 94.972 95.726 95.1104L89.741 96.6264L86.603 84.2376L93.2336 82.5581C93.664 82.4491 94.0773 82.4435 94.4734 82.5412C94.8695 82.6389 95.228 82.8081 95.5489 83.0487C95.8669 83.2776 96.1385 83.5678 96.3636 83.9193C96.5975 84.2562 96.7631 84.6165 96.8603 85.0004C97.0135 85.6053 97.0067 86.2136 96.8398 86.8253C96.6699 87.4254 96.3266 87.9271 95.8098 88.3303C96.5724 88.36 97.2265 88.5966 97.7721 89.0402C98.3264 89.4692 98.7067 90.0909 98.913 90.9052ZM96.3727 91.0658C96.3167 90.8448 96.2229 90.6457 96.0914 90.4686C95.9686 90.2769 95.824 90.1216 95.6578 90.0028C95.4915 89.884 95.3108 89.806 95.1157 89.7688C94.9176 89.7199 94.7139 89.722 94.5045 89.775L90.8053 90.712L91.6318 93.9749L95.2089 93.0689C95.4299 93.0129 95.6231 92.9207 95.7886 92.7921C95.9658 92.6606 96.1065 92.5073 96.2107 92.3324C96.312 92.1458 96.3783 91.9433 96.4096 91.7249C96.441 91.5066 96.4286 91.2869 96.3727 91.0658ZM89.5325 85.6867L90.3236 88.81L93.5342 87.9968C93.9414 87.8937 94.2492 87.6672 94.4576 87.3173C94.6777 86.9645 94.7259 86.5437 94.6022 86.0552C94.4814 85.5782 94.2518 85.2341 93.9136 85.0226C93.5869 84.8083 93.2317 84.7497 92.8478 84.8469L89.5325 85.6867ZM106.91 92.3705C106.003 92.6003 105.132 92.635 104.3 92.4746C103.475 92.2996 102.722 91.9891 102.04 91.543C101.366 91.0823 100.788 90.5107 100.306 89.8283C99.8232 89.1458 99.4819 88.4091 99.2815 87.6181C99.0723 86.7921 99.0232 85.9628 99.1341 85.1301C99.2567 84.2944 99.5119 83.518 99.8996 82.8008C100.299 82.0807 100.828 81.4577 101.487 80.9318C102.143 80.3942 102.908 80.015 103.78 79.794C104.676 79.5671 105.537 79.547 106.364 79.7336C107.2 79.9056 107.955 80.222 108.629 80.6827C109.303 81.1433 109.881 81.7149 110.363 82.3974C110.845 83.0798 111.185 83.8108 111.383 84.5901C111.592 85.4161 111.641 86.2454 111.53 87.0781C111.416 87.8992 111.165 88.6683 110.777 89.3855C110.387 90.091 109.863 90.7126 109.207 91.2501C108.548 91.7761 107.782 92.1495 106.91 92.3705ZM101.724 86.9993C101.86 87.5344 102.072 88.0314 102.362 88.4904C102.652 88.9493 102.996 89.3325 103.396 89.6397C103.807 89.9441 104.263 90.1566 104.764 90.2772C105.277 90.395 105.818 90.3817 106.388 90.2373C106.97 90.09 107.452 89.844 107.835 89.4994C108.227 89.1402 108.524 88.7245 108.726 88.2524C108.94 87.7774 109.061 87.2764 109.088 86.7495C109.125 86.2081 109.078 85.6814 108.948 85.1696C108.813 84.6345 108.594 84.1389 108.293 83.6829C108.004 83.224 107.653 82.8423 107.242 82.538C106.842 82.2307 106.388 82.024 105.878 81.9179C105.377 81.7972 104.847 81.8076 104.289 81.949C103.707 82.0964 103.221 82.3496 102.829 82.7088C102.434 83.0564 102.135 83.4662 101.933 83.9383C101.728 84.3988 101.607 84.8998 101.571 85.4412C101.544 85.9681 101.595 86.4875 101.724 86.9993ZM120.099 89.0299C119.192 89.2597 118.321 89.2944 117.489 89.134C116.664 88.959 115.911 88.6484 115.229 88.2024C114.555 87.7417 113.977 87.1701 113.495 86.4876C113.012 85.8052 112.671 85.0684 112.471 84.2774C112.261 83.4515 112.212 82.6222 112.323 81.7895C112.446 80.9538 112.701 80.1774 113.089 79.4602C113.488 78.7401 114.017 78.1171 114.676 77.5911C115.332 77.0536 116.097 76.6743 116.969 76.4533C117.865 76.2265 118.726 76.2063 119.553 76.3929C120.389 76.565 121.144 76.8813 121.818 77.342C122.491 77.8027 123.07 78.3743 123.552 79.0567C124.034 79.7392 124.374 80.4701 124.571 81.2495C124.781 82.0754 124.83 82.9047 124.719 83.7375C124.605 84.5586 124.354 85.3277 123.966 86.0449C123.576 86.7504 123.052 87.3719 122.396 87.9095C121.737 88.4354 120.971 88.8089 120.099 89.0299ZM114.913 83.6587C115.049 84.1938 115.261 84.6908 115.551 85.1498C115.841 85.6087 116.185 85.9918 116.585 86.2991C116.996 86.6034 117.452 86.8159 117.953 86.9366C118.466 87.0544 119.007 87.041 119.577 86.8967C120.159 86.7493 120.641 86.5034 121.024 86.1587C121.416 85.7996 121.713 85.3839 121.915 84.9118C122.129 84.4367 122.25 83.9357 122.277 83.4089C122.314 82.8674 122.267 82.3408 122.137 81.8289C122.002 81.2938 121.783 80.7983 121.482 80.3423C121.193 79.8833 120.842 79.5017 120.431 79.1974C120.031 78.8901 119.576 78.6834 119.067 78.5773C118.566 78.4566 118.036 78.467 117.478 78.6084C116.896 78.7557 116.409 79.009 116.018 79.3682C115.623 79.7157 115.324 80.1256 115.122 80.5977C114.917 81.0582 114.796 81.5592 114.76 82.1006C114.733 82.6275 114.784 83.1468 114.913 83.6587ZM127.979 86.9411L124.845 74.5698L127.253 73.9599L128.743 79.8402L132.449 72.6254L135.101 71.9536L131.747 78.6522L138.535 84.2672L135.831 84.9523L130.618 80.5722L129.45 82.632L130.387 86.3312L127.979 86.9411ZM59.1753 124.505C58.9837 123.749 58.929 122.97 59.0109 122.17C59.1015 121.354 59.3349 120.59 59.711 119.876C60.0872 119.161 60.6076 118.528 61.2724 117.976C61.9372 117.424 62.7523 117.026 63.7178 116.781C64.8578 116.492 65.9042 116.493 66.8568 116.784C67.821 117.072 68.6084 117.566 69.2188 118.266L67.6919 120.008C67.4406 119.7 67.1692 119.46 66.8776 119.286C66.5831 119.1 66.2844 118.972 65.9815 118.9C65.6785 118.828 65.3743 118.8 65.0688 118.816C64.7603 118.819 64.4664 118.857 64.1873 118.927C63.5824 119.081 63.084 119.337 62.6922 119.696C62.312 120.052 62.0208 120.467 61.8186 120.939C61.625 121.396 61.5159 121.894 61.4914 122.433C61.4639 122.96 61.5121 123.467 61.6358 123.956C61.7743 124.503 61.9956 125.01 62.2997 125.477C62.6009 125.933 62.9572 126.314 63.3685 126.618C63.7914 126.919 64.2534 127.13 64.7543 127.251C65.267 127.369 65.7908 127.36 66.3259 127.224C66.6051 127.154 66.8871 127.045 67.1718 126.899C67.4566 126.752 67.7136 126.57 67.9429 126.351C68.1837 126.129 68.391 125.872 68.5648 125.58C68.7355 125.277 68.848 124.939 68.9022 124.566L71.1612 125.201C71.0813 125.717 70.9009 126.202 70.62 126.657C70.3477 127.097 70.0099 127.498 69.6065 127.86C69.2147 128.219 68.7733 128.529 68.2822 128.79C67.7911 129.05 67.2955 129.244 66.7953 129.371C65.9112 129.595 65.0556 129.613 64.2285 129.427C63.4013 129.24 62.6451 128.918 61.9597 128.46C61.283 127.988 60.6977 127.412 60.2037 126.732C59.7184 126.038 59.3756 125.296 59.1753 124.505ZM80.7578 112.539L83.8958 124.928L81.5053 125.533L80.1661 120.246L74.5475 121.67L75.8867 126.957L73.4787 127.567L70.3408 115.178L72.7487 114.568L74.0172 119.576L79.6358 118.153L78.3673 113.145L80.7578 112.539ZM86.867 110.992L88.9958 110.453L96.845 121.648L94.3672 122.276L92.4333 119.479L88.1059 120.575L87.754 123.951L85.2763 124.578L86.867 110.992ZM91.5684 117.897L88.6253 113.462L88.0786 118.781L91.5684 117.897ZM98.2038 121.304L95.0658 108.915L100.318 107.585C100.888 107.44 101.442 107.43 101.981 107.553C102.529 107.662 103.027 107.87 103.476 108.177C103.922 108.473 104.308 108.846 104.632 109.296C104.954 109.734 105.178 110.204 105.304 110.704C105.437 111.227 105.474 111.763 105.414 112.31C105.352 112.846 105.201 113.348 104.961 113.818C104.72 114.287 104.391 114.698 103.973 115.052C103.555 115.405 103.061 115.654 102.491 115.799L99.5599 116.541L100.612 120.694L98.2038 121.304ZM99.0251 114.43L101.817 113.723C102.259 113.611 102.58 113.338 102.779 112.903C102.99 112.466 103.018 111.939 102.862 111.323C102.782 111.009 102.665 110.741 102.51 110.52C102.352 110.288 102.175 110.104 101.98 109.968C101.785 109.831 101.572 109.749 101.342 109.721C101.12 109.678 100.905 109.683 100.696 109.736L98.0086 110.417L99.0251 114.43ZM115.738 105.926L111.777 106.929L114.38 117.207L111.989 117.812L109.386 107.535L105.425 108.538L104.89 106.427L115.203 103.815L115.738 105.926ZM127.946 111.524L128.481 113.635L119.879 115.814L116.741 103.425L125.186 101.286L125.721 103.397L119.683 104.926L120.439 107.91L125.656 106.589L126.151 108.543L120.934 109.865L121.752 113.093L127.946 111.524ZM130.358 113.159L127.22 100.771L132.699 99.3829C133.269 99.2386 133.824 99.2281 134.363 99.3516C134.91 99.4605 135.408 99.6685 135.858 99.9756C136.304 100.271 136.689 100.644 137.014 101.094C137.335 101.532 137.559 102.002 137.686 102.502C137.889 103.305 137.871 104.089 137.632 104.855C137.401 105.607 136.98 106.215 136.367 106.68L140.374 110.623L137.669 111.308L134.087 107.796L131.714 108.397L132.766 112.55L130.358 113.159ZM131.18 106.285L134.198 105.521C134.419 105.465 134.61 105.361 134.769 105.209C134.94 105.054 135.074 104.872 135.169 104.662C135.262 104.441 135.318 104.197 135.337 103.933C135.357 103.668 135.331 103.396 135.26 103.116C135.187 102.826 135.072 102.57 134.918 102.349C134.763 102.128 134.582 101.951 134.375 101.818C134.176 101.67 133.961 101.576 133.728 101.536C133.503 101.482 133.286 101.481 133.077 101.534L130.163 102.272L131.18 106.285Z" fill="#F5F5F5"/>
</svg>
