<svg width="281" height="341" viewBox="0 0 281 341" fill="none" xmlns="http://www.w3.org/2000/svg">
<path d="M74.0317 38H281M281 340H60V135.496" stroke="black" stroke-width="2"/>
<path d="M74.0317 38H281M281 340H60V135.496" stroke="white" stroke-width="2"/>
<path d="M42.66 74.46C42.12 59.16 47.16 48.72 61.56 48.72C70.02 48.72 76.68 52.5 76.68 64.02C76.68 73.02 66.24 78.24 59.76 82.2C43.56 91.92 25.92 101.46 15.3 116.04C9 124.5 5.58 134.76 6.3 147H114.84V116.4H58.14V116.22C81.9 101.64 113.04 91.74 113.04 59.7C113.04 33.06 92.34 20.28 61.92 20.28C28.08 20.28 6.84 39.9 8.82 74.46H42.66Z" fill="#5E5151"/>
<path d="M42.66 74.46C42.12 59.16 47.16 48.72 61.56 48.72C70.02 48.72 76.68 52.5 76.68 64.02C76.68 73.02 66.24 78.24 59.76 82.2C43.56 91.92 25.92 101.46 15.3 116.04C9 124.5 5.58 134.76 6.3 147H114.84V116.4H58.14V116.22C81.9 101.64 113.04 91.74 113.04 59.7C113.04 33.06 92.34 20.28 61.92 20.28C28.08 20.28 6.84 39.9 8.82 74.46H42.66Z" fill="white"/>
</svg>
