<svg width="282" height="339" viewBox="0 0 282 339" fill="none" xmlns="http://www.w3.org/2000/svg">
<path d="M75.9683 36H282M282 338H62V133.496" stroke="black" stroke-width="2"/>
<path d="M75.9683 36H282M282 338H62V133.496" stroke="white" stroke-width="2"/>
<path d="M43.56 63.48C43.02 53.04 51.3 47.82 60.84 47.82C68.22 47.82 77.22 50.88 77.22 58.8C77.22 68.52 67.68 70.14 60.12 70.14C55.26 70.14 52.38 69.6 49.68 69.42V93.9C52.38 93.36 54.9 93 60.12 93C68.4 93 76.86 94.98 76.86 105.96C76.86 116.22 70.38 120 60.12 120C53.82 120 48.6 118.56 45.18 114.42C41.76 111.18 40.14 106.14 40.32 99.48H6.12C5.4 108.84 5.22 148.44 61.74 148.44C102.78 148.44 114.3 124.14 114.3 109.02C114.3 81.12 93.78 81.12 93.78 79.68V79.32C93.78 78.78 110.34 78.78 110.34 52.5C110.34 41.7 98.46 20.28 61.92 20.28C47.7 20.28 34.92 23.7 25.38 30.72C15.84 37.92 9.9 48.54 9.72 63.48H43.56Z" fill="#5E5151"/>
<path d="M43.56 63.48C43.02 53.04 51.3 47.82 60.84 47.82C68.22 47.82 77.22 50.88 77.22 58.8C77.22 68.52 67.68 70.14 60.12 70.14C55.26 70.14 52.38 69.6 49.68 69.42V93.9C52.38 93.36 54.9 93 60.12 93C68.4 93 76.86 94.98 76.86 105.96C76.86 116.22 70.38 120 60.12 120C53.82 120 48.6 118.56 45.18 114.42C41.76 111.18 40.14 106.14 40.32 99.48H6.12C5.4 108.84 5.22 148.44 61.74 148.44C102.78 148.44 114.3 124.14 114.3 109.02C114.3 81.12 93.78 81.12 93.78 79.68V79.32C93.78 78.78 110.34 78.78 110.34 52.5C110.34 41.7 98.46 20.28 61.92 20.28C47.7 20.28 34.92 23.7 25.38 30.72C15.84 37.92 9.9 48.54 9.72 63.48H43.56Z" fill="white"/>
</svg>
