<svg width="27" height="26" viewBox="0 0 27 26" fill="none" xmlns="http://www.w3.org/2000/svg">
<path d="M25.9574 11.3409C26.9651 11.3409 27.3858 10.0242 26.5673 9.41731L14.113 0.203967C13.9352 0.0714441 13.7204 0 13.4999 0C13.2794 0 13.0647 0.0714441 12.8868 0.203967L0.432574 9.41731C-0.38597 10.0209 0.0347158 11.3409 1.04567 11.3409H3.06431V23.7448H0.716292C0.572802 23.7448 0.455401 23.8641 0.455401 24.0101V25.7347C0.455401 25.8806 0.572802 26 0.716292 26H26.2835C26.427 26 26.5444 25.8806 26.5444 25.7347V24.0101C26.5444 23.8641 26.427 23.7448 26.2835 23.7448H23.9355V11.3409H25.9574ZM13.4999 2.54213L22.3408 9.08234H4.659L13.4999 2.54213ZM5.41232 11.3409H9.22784V23.7448H5.41232V11.3409ZM11.5759 11.3409H15.3914V23.7448H11.5759V11.3409ZM21.5875 23.7448H17.7394V11.3409H21.5875V23.7448Z" fill="white" fill-opacity="0.8"/>
</svg>
