<?xml version="1.0" encoding="utf-8"?>
<!-- Generator: Adobe Illustrator 23.0.1, SVG Export Plug-In . SVG Version: 6.00 Build 0)  -->
<svg version="1.1" xmlns="http://www.w3.org/2000/svg" xmlns:xlink="http://www.w3.org/1999/xlink" x="0px" y="0px"
	 viewBox="0 0 500 500" style="enable-background:new 0 0 500 500;" xml:space="preserve">
<style type="text/css">
	.st0{display:none;}
	.st1{display:inline;fill:#0064A5;}
	.st2{display:inline;opacity:0.4;}
	.st3{fill:none;stroke:#FFFFFF;stroke-width:0.9575;stroke-miterlimit:10;}
	.st4{fill:none;stroke:#FFFFFF;stroke-width:0.9656;stroke-miterlimit:10;}
	.st5{fill:none;stroke:#FFFFFF;stroke-width:0.25;stroke-miterlimit:10;}
	.st6{opacity:0.5;fill:none;stroke:#0C0C0C;stroke-width:0.1545;stroke-linecap:round;stroke-miterlimit:10;}
	.st7{fill:none;stroke:#0C0C0C;stroke-width:0.2575;stroke-linecap:round;stroke-miterlimit:10;}
	.st8{opacity:0.5;}
	.st9{fill:none;stroke:#0C0C0C;stroke-width:0.1545;stroke-linecap:round;stroke-miterlimit:10;}
	.st10{fill:none;stroke:#0C0C0C;stroke-width:0.515;stroke-linecap:round;stroke-miterlimit:10;}
	.st11{fill:none;stroke:#0C0C0C;stroke-width:0.515;stroke-linecap:round;stroke-linejoin:round;stroke-miterlimit:10;}
	.st12{fill:none;stroke:#0C0C0C;stroke-width:1.03;stroke-linecap:round;stroke-miterlimit:10;}
</style>
<g id="Background" class="st0">
	<rect class="st1" width="500" height="500"/>
</g>
<g id="Object">
	<g class="st0">
		<g class="st2">
			<rect x="10.63" y="10.63" class="st3" width="478.75" height="478.75"/>
			<rect x="16.45" y="16.45" class="st4" width="467.11" height="467.11"/>
		</g>
		<g class="st2">
			<line class="st5" x1="25" y1="16.45" x2="25" y2="483.55"/>
			<line class="st5" x1="35" y1="16.45" x2="35" y2="483.55"/>
			<line class="st5" x1="45" y1="16.45" x2="45" y2="483.55"/>
			<line class="st5" x1="55" y1="16.45" x2="55" y2="483.55"/>
			<line class="st5" x1="65" y1="16.45" x2="65" y2="483.55"/>
			<line class="st5" x1="75" y1="16.45" x2="75" y2="483.55"/>
			<line class="st5" x1="85" y1="16.45" x2="85" y2="483.55"/>
			<line class="st5" x1="95" y1="16.45" x2="95" y2="483.55"/>
			<line class="st5" x1="105" y1="16.45" x2="105" y2="483.55"/>
			<line class="st5" x1="115" y1="16.45" x2="115" y2="483.55"/>
			<line class="st5" x1="125" y1="16.45" x2="125" y2="483.55"/>
			<line class="st5" x1="135" y1="16.45" x2="135" y2="483.55"/>
			<line class="st5" x1="145" y1="16.45" x2="145" y2="483.55"/>
			<line class="st5" x1="155" y1="16.45" x2="155" y2="483.55"/>
			<line class="st5" x1="165" y1="16.45" x2="165" y2="483.55"/>
			<line class="st5" x1="175" y1="16.45" x2="175" y2="483.55"/>
			<line class="st5" x1="185" y1="16.45" x2="185" y2="483.55"/>
			<line class="st5" x1="195" y1="16.45" x2="195" y2="483.55"/>
			<line class="st5" x1="205" y1="16.45" x2="205" y2="483.55"/>
			<line class="st5" x1="215" y1="16.45" x2="215" y2="483.55"/>
			<line class="st5" x1="225" y1="16.45" x2="225" y2="483.55"/>
			<line class="st5" x1="235" y1="16.45" x2="235" y2="483.55"/>
			<line class="st5" x1="245" y1="16.45" x2="245" y2="483.55"/>
			<line class="st5" x1="255" y1="16.45" x2="255" y2="483.55"/>
			<line class="st5" x1="265" y1="16.45" x2="265" y2="483.55"/>
			<line class="st5" x1="275" y1="16.45" x2="275" y2="483.55"/>
			<line class="st5" x1="285" y1="16.45" x2="285" y2="483.55"/>
			<line class="st5" x1="295" y1="16.45" x2="295" y2="483.55"/>
			<line class="st5" x1="305" y1="16.45" x2="305" y2="483.55"/>
			<line class="st5" x1="315" y1="16.45" x2="315" y2="483.55"/>
			<line class="st5" x1="325" y1="16.45" x2="325" y2="483.55"/>
			<line class="st5" x1="335" y1="16.45" x2="335" y2="483.55"/>
			<line class="st5" x1="345" y1="16.45" x2="345" y2="483.55"/>
			<line class="st5" x1="355" y1="16.45" x2="355" y2="483.55"/>
			<line class="st5" x1="365" y1="16.45" x2="365" y2="483.55"/>
			<line class="st5" x1="375" y1="16.45" x2="375" y2="483.55"/>
			<line class="st5" x1="385" y1="16.45" x2="385" y2="483.55"/>
			<line class="st5" x1="395" y1="16.45" x2="395" y2="483.55"/>
			<line class="st5" x1="405" y1="16.45" x2="405" y2="483.55"/>
			<line class="st5" x1="415" y1="16.45" x2="415" y2="483.55"/>
			<line class="st5" x1="425" y1="16.45" x2="425" y2="483.55"/>
			<line class="st5" x1="435" y1="16.45" x2="435" y2="483.55"/>
			<line class="st5" x1="445" y1="16.45" x2="445" y2="483.55"/>
			<line class="st5" x1="455" y1="16.45" x2="455" y2="483.55"/>
			<line class="st5" x1="465" y1="16.45" x2="465" y2="483.55"/>
			<line class="st5" x1="475" y1="16.45" x2="475" y2="483.55"/>
		</g>
		<g class="st2">
			<line class="st5" x1="483.55" y1="25" x2="16.45" y2="25"/>
			<line class="st5" x1="483.55" y1="35" x2="16.45" y2="35"/>
			<line class="st5" x1="483.55" y1="45" x2="16.45" y2="45"/>
			<line class="st5" x1="483.55" y1="55" x2="16.45" y2="55"/>
			<line class="st5" x1="483.55" y1="65" x2="16.45" y2="65"/>
			<line class="st5" x1="483.55" y1="75" x2="16.45" y2="75"/>
			<line class="st5" x1="483.55" y1="85" x2="16.45" y2="85"/>
			<line class="st5" x1="483.55" y1="95" x2="16.45" y2="95"/>
			<line class="st5" x1="483.55" y1="105" x2="16.45" y2="105"/>
			<line class="st5" x1="483.55" y1="115" x2="16.45" y2="115"/>
			<line class="st5" x1="483.55" y1="125" x2="16.45" y2="125"/>
			<line class="st5" x1="483.55" y1="135" x2="16.45" y2="135"/>
			<line class="st5" x1="483.55" y1="145" x2="16.45" y2="145"/>
			<line class="st5" x1="483.55" y1="155" x2="16.45" y2="155"/>
			<line class="st5" x1="483.55" y1="165" x2="16.45" y2="165"/>
			<line class="st5" x1="483.55" y1="175" x2="16.45" y2="175"/>
			<line class="st5" x1="483.55" y1="185" x2="16.45" y2="185"/>
			<line class="st5" x1="483.55" y1="195" x2="16.45" y2="195"/>
			<line class="st5" x1="483.55" y1="205" x2="16.45" y2="205"/>
			<line class="st5" x1="483.55" y1="215" x2="16.45" y2="215"/>
			<line class="st5" x1="483.55" y1="225" x2="16.45" y2="225"/>
			<line class="st5" x1="483.55" y1="235" x2="16.45" y2="235"/>
			<line class="st5" x1="483.55" y1="245" x2="16.45" y2="245"/>
			<line class="st5" x1="483.55" y1="255" x2="16.45" y2="255"/>
			<line class="st5" x1="483.55" y1="265" x2="16.45" y2="265"/>
			<line class="st5" x1="483.55" y1="275" x2="16.45" y2="275"/>
			<line class="st5" x1="483.55" y1="285" x2="16.45" y2="285"/>
			<line class="st5" x1="483.55" y1="295" x2="16.45" y2="295"/>
			<line class="st5" x1="483.55" y1="305" x2="16.45" y2="305"/>
			<line class="st5" x1="483.55" y1="315" x2="16.45" y2="315"/>
			<line class="st5" x1="483.55" y1="325" x2="16.45" y2="325"/>
			<line class="st5" x1="483.55" y1="335" x2="16.45" y2="335"/>
			<line class="st5" x1="483.55" y1="345" x2="16.45" y2="345"/>
			<line class="st5" x1="483.55" y1="355" x2="16.45" y2="355"/>
			<line class="st5" x1="483.55" y1="365" x2="16.45" y2="365"/>
			<line class="st5" x1="483.55" y1="375" x2="16.45" y2="375"/>
			<line class="st5" x1="483.55" y1="385" x2="16.45" y2="385"/>
			<line class="st5" x1="483.55" y1="395" x2="16.45" y2="395"/>
			<line class="st5" x1="483.55" y1="405" x2="16.45" y2="405"/>
			<line class="st5" x1="483.55" y1="415" x2="16.45" y2="415"/>
			<line class="st5" x1="483.55" y1="425" x2="16.45" y2="425"/>
			<line class="st5" x1="483.55" y1="435" x2="16.45" y2="435"/>
			<line class="st5" x1="483.55" y1="445" x2="16.45" y2="445"/>
			<line class="st5" x1="483.55" y1="455" x2="16.45" y2="455"/>
			<line class="st5" x1="483.55" y1="465" x2="16.45" y2="465"/>
			<line class="st5" x1="483.55" y1="475" x2="16.45" y2="475"/>
		</g>
	</g>
	<g>
		<line class="st6" x1="184.84" y1="202.38" x2="452.49" y2="129.24"/>
		<g>
			<line class="st7" x1="398.74" y1="61.32" x2="455" y2="161.66"/>
			<line class="st7" x1="455" y1="276.21" x2="285.05" y2="436.01"/>
			<line class="st7" x1="455" y1="269.83" x2="285.05" y2="406.43"/>
			<line class="st7" x1="46.29" y1="187.96" x2="174.66" y2="140.01"/>
			<line class="st7" x1="398.74" y1="206.32" x2="160.35" y2="140.01"/>
			<line class="st7" x1="46.29" y1="279.4" x2="183.72" y2="322.04"/>
			<line class="st7" x1="306.51" y1="406.43" x2="46.29" y2="291.58"/>
			<line class="st7" x1="306.51" y1="436.01" x2="46.29" y2="303.76"/>
			<line class="st7" x1="296.66" y1="189.51" x2="455" y2="222.18"/>
			<line class="st7" x1="313.67" y1="190.66" x2="46.29" y2="226.62"/>
			<line class="st7" x1="46.29" y1="276.89" x2="321.15" y2="351.91"/>
			<line class="st7" x1="300.43" y1="351.91" x2="455" y2="261.04"/>
			<line class="st7" x1="424.84" y1="70.02" x2="46.29" y2="205.85"/>
			<line class="st7" x1="183.72" y1="235.06" x2="46.29" y2="237.84"/>
			<line class="st7" x1="160.35" y1="235.06" x2="455" y2="240.21"/>
			<line class="st7" x1="167.31" y1="322.04" x2="455" y2="249.24"/>
		</g>
		<g class="st8">
			<line class="st9" x1="398.74" y1="58.18" x2="455" y2="158.53"/>
			<line class="st9" x1="455" y1="273.08" x2="285.05" y2="432.87"/>
			<line class="st9" x1="455" y1="266.7" x2="285.05" y2="403.29"/>
			<line class="st9" x1="46.29" y1="184.82" x2="174.66" y2="136.87"/>
			<line class="st9" x1="398.74" y1="203.19" x2="160.35" y2="136.87"/>
			<line class="st9" x1="46.29" y1="276.27" x2="183.72" y2="318.9"/>
			<line class="st9" x1="306.51" y1="403.29" x2="46.29" y2="288.45"/>
			<line class="st9" x1="306.51" y1="432.87" x2="46.29" y2="300.63"/>
			<line class="st9" x1="296.66" y1="186.38" x2="455" y2="219.05"/>
			<line class="st9" x1="313.67" y1="187.53" x2="46.29" y2="223.49"/>
			<line class="st9" x1="46.29" y1="273.76" x2="321.15" y2="348.77"/>
			<line class="st9" x1="300.43" y1="348.77" x2="455" y2="257.9"/>
			<line class="st9" x1="424.84" y1="66.88" x2="46.29" y2="202.71"/>
			<line class="st9" x1="183.72" y1="231.93" x2="46.29" y2="234.7"/>
			<line class="st9" x1="160.35" y1="231.93" x2="455" y2="237.08"/>
			<line class="st9" x1="167.31" y1="318.9" x2="455" y2="246.11"/>
		</g>
		<g class="st8">
			<line class="st9" x1="398.74" y1="63.72" x2="455" y2="164.06"/>
			<line class="st9" x1="455" y1="278.62" x2="285.05" y2="438.41"/>
			<line class="st9" x1="455" y1="272.24" x2="285.05" y2="408.83"/>
			<line class="st9" x1="46.29" y1="190.36" x2="174.66" y2="142.41"/>
			<line class="st9" x1="398.74" y1="208.73" x2="160.35" y2="142.41"/>
			<line class="st9" x1="46.29" y1="281.81" x2="183.72" y2="324.44"/>
			<line class="st9" x1="306.51" y1="408.83" x2="46.29" y2="293.99"/>
			<line class="st9" x1="306.51" y1="438.41" x2="46.29" y2="306.17"/>
			<line class="st9" x1="296.66" y1="191.92" x2="455" y2="224.59"/>
			<line class="st9" x1="313.67" y1="193.07" x2="46.29" y2="229.03"/>
			<line class="st9" x1="46.29" y1="279.29" x2="321.15" y2="354.31"/>
			<line class="st9" x1="300.43" y1="354.31" x2="455" y2="263.44"/>
			<line class="st9" x1="424.84" y1="72.42" x2="46.29" y2="208.25"/>
			<line class="st9" x1="183.72" y1="237.47" x2="46.29" y2="240.24"/>
			<line class="st9" x1="160.35" y1="237.47" x2="455" y2="242.62"/>
			<line class="st9" x1="167.31" y1="324.44" x2="455" y2="251.65"/>
		</g>
		<g>
			<polygon class="st7" points="50.8,186.56 50.8,306.07 54.58,307.97 54.58,185.15 			"/>
			<polyline class="st7" points="54.58,185.15 58.7,186.02 58.7,306.74 54.58,307.97 			"/>
		</g>
		<polygon class="st7" points="176.4,319.74 176.4,144.47 184.84,146.82 184.84,317.6 		"/>
		<polygon class="st7" points="176.4,144.47 168.28,146.97 168.28,317.23 176.4,319.74 		"/>
		<polygon class="st7" points="216.04,204.41 216.04,323.22 222.17,324.89 222.17,203.61 		"/>
		<polyline class="st7" points="222.17,203.61 228.41,204.58 228.41,322.64 222.17,324.89 		"/>
		<polygon class="st7" points="307,348.04 307,191.63 298.31,192.73 298.31,345.67 		"/>
		<polygon class="st7" points="307,191.63 314.89,193.27 314.89,343.4 307,348.04 		"/>
		<polygon class="st10" points="407.17,76.36 407.17,321.18 411.88,316.75 411.88,84.76 		"/>
		<polygon class="st10" points="407.17,76.36 399.81,79 399.81,320.17 407.17,321.18 		"/>
		<polygon class="st7" points="447.8,148.82 447.8,282.98 444.98,285.64 444.98,143.78 		"/>
		<polyline class="st7" points="444.98,143.78 440.55,145.28 440.55,285.64 444.98,285.64 		"/>
		<g>
			<polygon class="st7" points="272.19,124.79 272.19,302.61 278.56,303.76 278.56,122.51 			"/>
			<polygon class="st7" points="278.56,122.51 285.05,125.99 285.05,300.72 278.56,303.76 			"/>
		</g>
		<line class="st7" x1="413.36" y1="322.04" x2="46.29" y2="271.52"/>
		<polyline class="st10" points="440.55,311.59 379.7,305.31 379.7,206.56 		"/>
		<line class="st10" x1="372.08" y1="103.61" x2="303.98" y2="126.22"/>
		<line class="st10" x1="308.28" y1="121.59" x2="308.28" y2="191.63"/>
		<polyline class="st10" points="308.28,124.8 322.2,130.87 368.79,116.37 		"/>
		<line class="st10" x1="322.2" y1="130.87" x2="322.2" y2="193.97"/>
		<polyline class="st10" points="327.13,195.78 327.13,134.35 368.79,121.59 		"/>
		<polyline class="st10" points="327.13,134.35 330.61,136.38 368.79,124.78 		"/>
		<line class="st10" x1="330.61" y1="136.38" x2="330.61" y2="196.52"/>
		<line class="st10" x1="352.57" y1="126.56" x2="352.57" y2="201.04"/>
		<polyline class="st11" points="355.75,201.7 355.75,125.58 358.34,127.95 358.34,202.23 		"/>
		<polygon class="st10" points="418.27,126.86 418.27,191.63 436.34,200.81 436.34,150.64 		"/>
		<polyline class="st10" points="436.34,150.64 431.22,150.64 418.27,137.11 		"/>
		<line class="st10" x1="431.22" y1="150.64" x2="431.22" y2="198.05"/>
		<polyline class="st10" points="429.48,197.32 429.48,151.8 418.27,140.01 		"/>
		<polyline class="st10" points="429.48,151.8 428.08,151.8 418.27,142.38 		"/>
		<line class="st10" x1="428.08" y1="151.8" x2="428.08" y2="196.61"/>
		<path class="st10" d="M379.7,305.31"/>
		<polyline class="st10" points="290.18,343.79 290.18,213.14 233.23,219.08 233.23,327.91 247.83,322.04 247.83,217.56 		"/>
		<line class="st10" x1="247.83" y1="322.04" x2="290.18" y2="332.96"/>
		<polygon class="st10" points="266.88,227.98 252.58,229.14 252.58,255.67 266.88,255.67 		"/>
		<polygon class="st10" points="269.98,227.98 269.98,255.67 287.57,255.67 287.57,226.62 		"/>
		<polygon class="st10" points="252.58,259.1 266.88,259.1 266.88,284.62 252.58,283.66 		"/>
		<polygon class="st10" points="269.98,259.1 269.98,284.62 287.57,285.64 287.57,259.49 		"/>
		<polygon class="st10" points="323.82,213.14 323.82,237.92 373.52,238.79 373.52,219.37 		"/>
		<line class="st10" x1="367.95" y1="238.69" x2="367.95" y2="218.67"/>
		<line class="st10" x1="346.94" y1="216.04" x2="346.94" y2="238.33"/>
		<line class="st10" x1="351.01" y1="216.55" x2="351.01" y2="238.33"/>
		<line class="st10" x1="344.02" y1="216.04" x2="344.02" y2="238.29"/>
		<polygon class="st10" points="418.27,224.88 418.27,239.57 436.34,239.89 436.34,227.44 		"/>
		<line class="st10" x1="433.57" y1="227.04" x2="433.57" y2="239.84"/>
		<line class="st10" x1="427.3" y1="226.16" x2="427.3" y2="239.73"/>
		<line class="st10" x1="424.84" y1="225.96" x2="424.84" y2="239.69"/>
		<line class="st10" x1="423.29" y1="225.59" x2="423.29" y2="239.66"/>
		<polyline class="st12" points="50.8,183.7 50.8,293.58 292.66,400.31 407.17,308.15 379.7,305.31 307,348.04 307,191.63 
			190.35,207.25 190.35,316.21 		"/>
		<line class="st12" x1="407.17" y1="70.02" x2="407.17" y2="212.32"/>
		<polyline class="st12" points="168.55,142.29 168.55,235.38 176.4,235.38 176.4,319.74 190.35,316.21 233.23,327.91 		"/>
		<polyline class="st12" points="88.69,292.55 58.7,296.78 58.7,237.84 88.12,236.99 88.69,292.55 176.4,319.74 		"/>
		<polyline class="st12" points="50.8,293.58 50.8,306.07 292.58,428.93 292.58,400.31 		"/>
		<ellipse class="st10" cx="148.85" cy="410.21" rx="25.81" ry="9.89"/>
		<path class="st10" d="M130.45,379.95c0,2.73-5.78,4.95-12.91,4.95c-7.13,0-12.91-2.21-12.91-4.95s5.78-4.95,12.91-4.95
			C124.67,375,130.45,377.21,130.45,379.95z"/>
		<ellipse class="st10" cx="418.27" cy="356.11" rx="12.91" ry="4.95"/>
		<path class="st10" d="M407.91,379.95c0,2.73-5.78,4.95-12.91,4.95s-12.91-2.21-12.91-4.95S387.87,375,395,375
			S407.91,377.21,407.91,379.95z"/>
		<ellipse class="st10" cx="367.95" cy="410.21" rx="12.91" ry="4.95"/>
		<polyline class="st12" points="292.58,428.93 447.8,282.98 447.8,148.82 407.17,76.36 272.19,124.79 272.19,171.12 168.55,142.29 
			50.8,186.56 		"/>
		<line class="st12" x1="272.19" y1="171.12" x2="272.19" y2="196.26"/>
		<line class="st12" x1="407.17" y1="308.15" x2="407.17" y2="212.32"/>
		<polyline class="st12" points="307,191.63 379.28,206.56 379.7,305.31 		"/>
		<polygon class="st10" points="191.29,164.49 191.29,191.63 263.98,205.85 263.98,183.19 		"/>
		<polyline class="st10" points="263.98,183.19 258.12,184.66 258.42,204.76 		"/>
		<line class="st10" x1="258.12" y1="184.66" x2="191.29" y2="168.04"/>
		<polyline class="st10" points="256.11,204.31 256.11,185.93 191.29,169.98 		"/>
		<polyline class="st10" points="256.11,185.93 254.51,185.93 254.51,204 		"/>
		<line class="st10" x1="241.01" y1="182.21" x2="241.01" y2="201.35"/>
		<line class="st10" x1="238.76" y1="181.66" x2="238.76" y2="200.74"/>
		<line class="st10" x1="237.21" y1="181.66" x2="237.21" y2="200.68"/>
		<line class="st10" x1="216.04" y1="176.35" x2="216.04" y2="196.47"/>
		<line class="st10" x1="212.94" y1="195.86" x2="212.94" y2="175.3"/>
		<line class="st10" x1="211.12" y1="174.85" x2="211.12" y2="195.43"/>
		<line class="st12" x1="168.55" y1="235.38" x2="88.12" y2="236.99"/>
		<line class="st10" x1="147.21" y1="169.64" x2="147.21" y2="213.05"/>
		<line class="st10" x1="115" y1="181.19" x2="115" y2="217.38"/>
		<line class="st10" x1="95.45" y1="188.21" x2="95.45" y2="220.01"/>
		<line class="st10" x1="69.49" y1="197.52" x2="69.49" y2="224.3"/>
		<polyline class="st10" points="69.49,197.52 73.35,198.06 73.35,222.98 		"/>
		<line class="st10" x1="73.35" y1="198.06" x2="95.45" y2="190.95"/>
		<polyline class="st10" points="115,181.19 120.24,181.82 120.24,216.57 		"/>
		<line class="st10" x1="120.24" y1="181.82" x2="147.21" y2="172.54"/>
		<polyline class="st10" points="121.88,216.46 121.88,182.83 147.21,174.33 		"/>
		<line class="st10" x1="136.28" y1="177.99" x2="136.28" y2="214.52"/>
		<polyline class="st10" points="138.37,214.24 138.37,177.29 139.86,177.99 139.86,214.04 		"/>
		<polyline class="st10" points="121.88,182.83 123.04,183.32 123.04,216.3 		"/>
		<line class="st10" x1="123.04" y1="183.32" x2="136.28" y2="179.06"/>
		<line class="st10" x1="139.86" y1="177.99" x2="147.21" y2="175.49"/>
		<polyline class="st10" points="74.72,222.8 74.72,198.88 95.45,192.69 		"/>
		<line class="st10" x1="85.08" y1="195.79" x2="85.08" y2="221.4"/>
		<polyline class="st10" points="86.46,221.22 86.46,195.37 87.47,195.79 87.47,221.08 		"/>
		<polyline class="st10" points="74.72,198.88 75.65,199.22 75.65,222.67 		"/>
		<line class="st10" x1="75.65" y1="199.22" x2="85.08" y2="196.46"/>
		<line class="st10" x1="87.47" y1="195.79" x2="95.45" y2="193.42"/>
		<line class="st9" x1="54.58" y1="151.8" x2="54.58" y2="345.87"/>
		<line class="st9" x1="168.28" y1="115.51" x2="168.28" y2="404.98"/>
		<line class="st9" x1="176.4" y1="118.7" x2="176.4" y2="413.39"/>
		<line class="st9" x1="271.85" y1="112.61" x2="271.85" y2="441.17"/>
		<line class="st9" x1="407.17" y1="54.77" x2="407.17" y2="351.41"/>
		<line class="st9" x1="222.17" y1="92.56" x2="222.17" y2="339.27"/>
		<line class="st9" x1="447.8" y1="121.06" x2="447.8" y2="312.38"/>
		<line class="st9" x1="307.28" y1="168.59" x2="307.28" y2="359.91"/>
		<line class="st9" x1="46.29" y1="174.35" x2="423.29" y2="24.54"/>
		<line class="st9" x1="455" y1="143.78" x2="386.46" y2="24.54"/>
		<line class="st10" x1="368.79" y1="101.73" x2="368.79" y2="204.15"/>
		<polygon class="st10" points="96.17,242.62 168.28,242.62 168.28,288.45 96.17,278.38 		"/>
		<polyline class="st10" points="100.74,242.62 100.74,277.66 96.17,278.38 		"/>
		<line class="st10" x1="100.74" y1="277.66" x2="168.28" y2="286.56"/>
		<polyline class="st10" points="102.93,242.62 102.93,276.27 168.28,283.9 		"/>
		<line class="st10" x1="132.22" y1="242.62" x2="132.22" y2="279.69"/>
		<line class="st10" x1="137.64" y1="280.08" x2="137.64" y2="242.62"/>
		<line class="st10" x1="135.61" y1="242.62" x2="135.61" y2="280.08"/>
		<polyline class="st10" points="102.93,276.27 104.58,276.27 104.58,242.62 		"/>
	</g>
</g>
<g id="Designed_by_Freepik">
</g>
</svg>
