<svg width="120" height="54" viewBox="0 0 120 54" fill="none" xmlns="http://www.w3.org/2000/svg">
<path d="M0 16.0045H18.86C31.2429 16.0045 35.6831 25.1988 35.6831 34.6088C35.6831 46.1098 29.6264 53.3101 16.6184 53.3101H0V16.0045ZM11.4992 43.7492H15.9933C23.0954 43.7492 24.1947 37.9502 24.1947 34.4471C24.1947 32.0973 23.5157 25.5653 15.1527 25.5653H11.4992V43.7492Z" fill="#71A8BF"/>
<path d="M56.1925 54C46.0081 54 41.4062 47.2632 41.4062 39.7396C41.4062 32.2698 46.0081 25.5222 56.1925 25.5222C66.3769 25.5222 70.9787 32.259 70.9787 39.7396C70.9787 47.2524 66.3769 54 56.1925 54ZM56.1925 33.0459C52.2265 33.0459 51.7523 36.8616 51.7523 39.7396C51.7523 42.6175 52.2265 46.4764 56.1925 46.4764C60.1585 46.4764 60.6327 42.6067 60.6327 39.7396C60.6327 36.8508 60.1585 33.0459 56.1925 33.0459Z" fill="#71A8BF"/>
<path d="M74.9805 26.2013H84.9601V29.8014H85.0679C87.1586 26.6648 90.187 25.5114 93.9482 25.5114C96.8689 25.5114 100.005 27.0313 101.266 29.7475C101.686 29.4888 103.777 25.5114 110.513 25.5114C117.464 25.5114 119.813 30.3188 119.813 34.7058V53.3101H109.467V38.6293C109.467 36.0639 109.209 33.7681 106.073 33.7681C103.411 33.7681 102.57 35.7514 102.57 38.6293V53.3101H92.2239V38.6293C92.2239 36.0639 91.9653 33.7681 88.8291 33.7681C86.1671 33.7681 85.3265 35.7514 85.3265 38.6293V53.3101H74.9805V26.2013Z" fill="#71A8BF"/>
<path d="M119.045 23.3182L0 9.88475V0L119.045 13.4334V23.3182Z" fill="black"/>
<path d="M119.045 23.3182L0 9.88475V0L119.045 13.4334V23.3182Z" fill="#D85F39"/>
</svg>
