<svg width="227" height="103" viewBox="0 0 227 103" fill="none" xmlns="http://www.w3.org/2000/svg">
<path d="M0 30.0786H36.071C59.7542 30.0786 68.2463 47.7245 68.2463 65.7842C68.2463 87.8571 56.6624 101.676 31.7837 101.676H0V30.0786ZM21.993 83.3267H30.5882C44.1715 83.3267 46.2739 72.1971 46.2739 65.4739C46.2739 60.9641 44.9754 48.4279 28.9805 48.4279H21.993V83.3267Z" fill="white"/>
<path d="M103.534 103C84.0552 103 75.2539 90.0706 75.2539 75.6312C75.2539 61.2952 84.0552 48.3452 103.534 48.3452C123.012 48.3452 131.813 61.2745 131.813 75.6312C131.813 90.05 123.012 103 103.534 103ZM103.534 62.7847C95.9484 62.7847 95.0414 70.1078 95.0414 75.6312C95.0414 81.1546 95.9484 88.5605 103.534 88.5605C111.119 88.5605 112.026 81.1339 112.026 75.6312C112.026 70.0871 111.119 62.7847 103.534 62.7847Z" fill="white"/>
<path d="M140.307 49.6482H159.393V56.5576H159.599C163.598 50.5377 169.39 48.3242 176.584 48.3242C182.17 48.3242 188.168 51.2411 190.579 56.4542C191.383 55.9577 195.382 48.3242 208.264 48.3242C221.559 48.3242 226.053 57.5506 226.053 65.9701V101.676H206.265V73.5002C206.265 68.5767 205.77 64.1704 199.772 64.1704C194.681 64.1704 193.073 67.9768 193.073 73.5002V101.676H173.286V73.5002C173.286 68.5767 172.791 64.1704 166.793 64.1704C161.702 64.1704 160.094 67.9768 160.094 73.5002V101.676H140.307V49.6482Z" fill="white"/>
<path d="M227.001 43.0908L0.0625 18.2665V0L227.001 24.8243V43.0908Z" fill="black"/>
<path d="M227.001 43.0908L0.0625 18.2665V0L227.001 24.8243V43.0908Z" fill="#D85F39"/>
</svg>
