<svg width="116" height="53" viewBox="0 0 116 53" fill="none" xmlns="http://www.w3.org/2000/svg">
<path d="M0.140625 15.4893H18.3936C30.3779 15.4893 34.6752 24.3877 34.6752 33.4947C34.6752 44.6256 28.8134 51.5941 16.2241 51.5941H0.140625V15.4893ZM11.2697 42.341H15.6191C22.4927 42.341 23.5566 36.7286 23.5566 33.3383C23.5566 31.0641 22.8995 24.7424 14.8056 24.7424H11.2697V42.341Z" fill="white"/>
<path d="M52.531 52.2623C42.6744 52.2623 38.2207 45.7424 38.2207 38.4609C38.2207 31.2316 42.6744 24.7012 52.531 24.7012C62.3876 24.7012 66.8413 31.2211 66.8413 38.4609C66.8413 45.7319 62.3876 52.2623 52.531 52.2623ZM52.531 31.9827C48.6927 31.9827 48.2338 35.6756 48.2338 38.4609C48.2338 41.2462 48.6927 44.9808 52.531 44.9808C56.3694 44.9808 56.8283 41.2358 56.8283 38.4609C56.8283 35.6651 56.3694 31.9827 52.531 31.9827Z" fill="white"/>
<path d="M71.1387 25.3581H80.7971V28.8423H80.9014C82.9249 25.8066 85.8558 24.6904 89.4959 24.6904C92.3225 24.6904 95.3577 26.1613 96.5781 28.7902C96.9849 28.5398 99.0083 24.6904 105.527 24.6904C112.255 24.6904 114.529 29.3431 114.529 33.5889V51.5943H104.516V37.3861C104.516 34.9033 104.265 32.6813 101.23 32.6813C98.6537 32.6813 97.8401 34.6007 97.8401 37.3861V51.5943H87.8271V37.3861C87.8271 34.9033 87.5768 32.6813 84.5416 32.6813C81.9653 32.6813 81.1517 34.6007 81.1517 37.3861V51.5943H71.1387V25.3581Z" fill="white"/>
<path d="M115.504 22.4533L0.140625 9.51813V0L115.504 12.9352V22.4533Z" fill="black"/>
<path d="M115.504 22.4533L0.140625 9.51813V0L115.504 12.9352V22.4533Z" fill="white"/>
</svg>
