<svg width="96" height="96" viewBox="0 0 96 96" fill="none" xmlns="http://www.w3.org/2000/svg">
<path d="M87 6H63C58.0312 6 54 10.0312 54 15V39C54 43.9688 58.0312 48 63 48H78V60C78 66.6188 72.6188 72 66 72H64.5C62.0062 72 60 74.0062 60 76.5V85.5C60 87.9938 62.0062 90 64.5 90H66C82.575 90 96 76.575 96 60V15C96 10.0312 91.9688 6 87 6ZM33 6H9C4.03125 6 0 10.0312 0 15V39C0 43.9688 4.03125 48 9 48H24V60C24 66.6188 18.6187 72 12 72H10.5C8.00625 72 6 74.0062 6 76.5V85.5C6 87.9938 8.00625 90 10.5 90H12C28.575 90 42 76.575 42 60V15C42 10.0312 37.9688 6 33 6Z" fill="#437E97"/>
</svg>
