<svg width="21" height="21" viewBox="0 0 21 21" fill="none" xmlns="http://www.w3.org/2000/svg">
<path d="M20.084 3.32546L17.2883 0.532808C16.9471 0.191601 16.4903 0 16.0073 0C15.5243 0 15.0676 0.188976 14.7263 0.532808L11.7154 3.53806C11.3742 3.87927 11.1825 4.33858 11.1825 4.82152C11.1825 5.30709 11.3715 5.76116 11.7154 6.10499L14.0674 8.45932C13.5316 9.70757 12.7618 10.8417 11.7994 11.8005C10.836 12.769 9.70992 13.5328 8.46041 14.0735L6.1084 11.7192C5.76715 11.378 5.3104 11.1864 4.8274 11.1864C4.58916 11.1855 4.35314 11.2321 4.13317 11.3236C3.91321 11.4151 3.71372 11.5496 3.54639 11.7192L0.532877 14.7244C0.191626 15.0656 0 15.5249 0 16.0079C0 16.4934 0.189001 16.9475 0.532877 17.2913L3.32589 20.084C3.90864 20.6667 4.7119 21 5.53615 21C5.70677 21 5.87215 20.9869 6.04015 20.958C9.51567 20.3858 12.9649 18.5354 15.7501 15.7533C18.5326 12.9659 20.3806 9.51706 20.9581 6.03937C21.1235 5.05249 20.7927 4.03675 20.084 3.32546ZM19.097 5.72703C18.5851 8.82152 16.9208 11.9081 14.4139 14.4147C11.9071 16.9213 8.82266 18.5853 5.72778 19.0971C5.33927 19.1627 4.94027 19.0315 4.65677 18.7507L1.91363 16.0079L4.82215 13.0971L7.96691 16.2467L7.99053 16.2703L8.55754 16.0604C10.2767 15.4284 11.8379 14.4301 13.1329 13.1349C14.4279 11.8396 15.4257 10.2782 16.0572 8.55906L16.2672 7.99213L13.0962 4.82415L16.0047 1.91339L18.7478 4.65617C19.0313 4.93963 19.1626 5.33858 19.097 5.72703Z" fill="white" fill-opacity="0.8"/>
</svg>
